<svg width="415" height="68" viewBox="0 0 415 68" fill="none" xmlns="http://www.w3.org/2000/svg"><path fill-rule="evenodd" clip-rule="evenodd" d="M22.297 2.885c-4.267 1.502-7.804 4.63-9.738 7.054l-.02.024-.02.023C7.322 15.725 4.482 22.194 3.1 28.858l13.505-.72c.065-.445.15-.904.262-1.375l.009-.037.012-.037c.422-1.326 1.437-3.14 3.184-4.18 1.837-1.095 4.273-1.209 7.196.539a160.99 160.99 0 0 0 3.333 1.913c.575.32 1.097.602 1.493.802.11.055.206.102.288.141.656-.305 1.543-.61 2.474-.714.826-.093 1.792-.036 2.65.42.866-.989 2.01-1.89 3.131-2.643a28.513 28.513 0 0 1 4.019-2.24l.08-.035.084-.022c3.722-.936 6.176-.524 7.618.8 1.429 1.311 1.526 3.206 1.263 4.454l3.725-.27c-.627-2.05-1.762-3.912-3.36-5.563a8.907 8.907 0 0 0-3.09-2.104c-1.539-.622-3.182-.778-4.783-.64-2.688.23-5.166 1.28-6.608 2.172l-2.582 1.597 1.136-2.826c2.705-6.73-.176-11.408-1.794-12.841-4.93-3.957-9.847-4.043-14.05-2.564Zm18.234 5.63c.744 2.178 1.042 4.948.229 8.167a18.04 18.04 0 0 1 4.404-1.234c-.046-.772-.33-1.672-.772-2.599a14.755 14.755 0 0 0-1.77-2.801l-2.091-1.532Zm6.62 6.782c1.484-.011 3.025.216 4.518.81.608.177 1.37.58 2.143 1.047a44.961 44.961 0 0 1 2.701 1.796 103.62 103.62 0 0 1 5.038 3.84l.041.034.037.037c4.967 4.993 5.357 11.649 2.892 18.14-2.457 6.466-7.773 12.9-14.484 17.799-5.464 3.988-13.402 6.32-20.994 7.639-7.619 1.323-15.028 1.65-19.543 1.542l-.296-.007-6.642-4.584-.072-.415C1.17 55.417-.387 46.255.087 36.96c.122-2.399.38-4.81.812-7.21 1.332-7.4 4.327-14.675 10.126-21.089 2.105-2.63 5.92-6.015 10.612-7.667C26.398-.682 32.053-.56 37.59 3.884l6.404 4.69.077.092a16.66 16.66 0 0 1 2.117 3.316c.473.99.888 2.156.963 3.315Zm11.332 7.612c.53 1.09.928 2.242 1.182 3.451 1.315 6.274-1.303 13.782-8.55 22.016-3.788 4.654-10.704 8.696-19.093 11.477-7.499 2.485-16.27 3.995-25.249 4.013l3.069 2.118c4.425.084 11.548-.249 18.862-1.52 7.506-1.304 15.076-3.573 20.163-7.286 6.478-4.728 11.506-10.872 13.792-16.892 2.271-5.98 1.812-11.705-2.402-15.971-.492-.4-1.101-.884-1.774-1.406ZM4.313 61.83C3.07 54.675 1.727 46.368 2.038 37.947l13.765-.98c.038.149.084.296.14.44.48 1.268 1.54 2.125 2.334 2.543l.102.053.112.03c.326.083.653.153.98.21 2.755.477 5.568.029 7.943-.7 2.153-.663 4.006-1.574 5.216-2.32 1.012.392 2.326.597 3.697.102 1.5 1.233 3.695 2.679 5.94 3.405 1.254.406 2.597.61 3.873.363a5.013 5.013 0 0 0 2.88-1.664c.56.113 1.226.073 1.848-.36.963-.668 1.411-2.002 1.411-3.909v-.047l-.004-.048a11.053 11.053 0 0 1-.042-.707l5.16-.46c-1.053 3.923-3.531 8.337-7.783 13.164l-.014.015-.012.016c-3.442 4.239-9.953 8.128-18.186 10.857-7.982 2.646-17.47 4.162-27.085 3.879Zm53.51-29.981c.221-1.487.228-2.894.042-4.217l-4.848.352a22.596 22.596 0 0 0-.736 4.359l5.542-.494Zm-8.595 5.56c.23.103.413.08.509.013.09-.063.332-.31.463-1.077-.485-.505-1.247-.912-2.268-1.184-1.188-.318-2.618-.42-4.08-.34a17.867 17.867 0 0 0-3.03.43c.755.05 1.53.12 2.294.216 1.222.152 2.436.371 3.496.683.984.29 1.932.686 2.616 1.258ZM37.05 34.513a11.17 11.17 0 0 1 2.094-.881c1.379-.436 2.989-.724 4.598-.814 1.606-.089 3.255.018 4.7.404a8.4 8.4 0 0 1 1.79.69c-.005-2.066.3-5.357 1.534-8.476.16-.853.016-1.857-.671-2.488-.694-.637-2.276-1.204-5.707-.356a26.635 26.635 0 0 0-3.644 2.04c-1.361.915-2.564 1.937-3.226 2.923-.29.43-.445.81-.495 1.134l-.008.054-.015.054a7.802 7.802 0 0 0-.236 1.404c-.016.253-.009.454.014.594a.799.799 0 0 0 .017.08l.544.547-.49.69c-.234.33-.56.948-.713 1.641-.057.26-.087.514-.086.76Zm-1.866 1.049c-.194-.787-.142-1.57.007-2.244a6.931 6.931 0 0 1 .704-1.839 2.71 2.71 0 0 1-.082-.356 4.732 4.732 0 0 1-.037-1.048c.04-.645.172-1.308.287-1.748.06-.357.172-.702.32-1.032-.356-.135-.794-.172-1.306-.115a6.148 6.148 0 0 0-1.656.452c-.038.195-.092.42-.149.648l-.081.327c-.15.602-.331 1.326-.478 2.105-.176.928-.293 1.88-.258 2.721.031.762.183 1.33.431 1.712.633.335 1.45.57 2.298.417Zm-4.659-1.33a7.764 7.764 0 0 1-.061-.716c-.044-1.063.103-2.186.291-3.179.16-.841.356-1.628.506-2.23a103.173 103.173 0 0 0 .116-.466 48.334 48.334 0 0 1-1.74-.926 163.063 163.063 0 0 1-3.38-1.942l-.003-.001-.002-.002c-2.413-1.444-4.063-1.195-5.165-.538-1.18.702-1.955 2.005-2.29 3.032-.666 2.849-.256 5.154-.019 5.845l.188.548-.378.437c-1.03 1.188-.998 2.038-.785 2.598.027.073.06.145.096.215.029-.138.071-.278.13-.417.213-.508.601-.918 1.13-1.21.608-.337 1.548-.573 2.537-.746 1.026-.18 2.233-.31 3.46-.386 1.849-.113 3.838-.107 5.37.084ZM20.19 38.327c2.23.306 4.563-.062 6.643-.701a22.428 22.428 0 0 0 3.48-1.401c-1.317-.167-3.176-.19-5.033-.076a30.191 30.191 0 0 0-3.241.36c-.975.17-1.624.365-1.917.527-.193.107-.24.197-.256.234a.529.529 0 0 0-.01.296c.043.244.177.522.334.761Zm19.349-1.14c1.04.664 2.197 1.266 3.34 1.636 1.07.346 2.054.464 2.884.303a3.009 3.009 0 0 0 1.392-.655 8.453 8.453 0 0 0-1.101-.4c-.92-.27-2.02-.472-3.182-.617a41.213 41.213 0 0 0-3.334-.267Zm-23.692-2.232c.161-.569.453-1.154.893-1.745-.17-.72-.314-1.78-.294-3.057l-13.72.732a54.685 54.685 0 0 0-.58 5.045l13.7-.975Z" fill="#000"/><path d="M112.27 11.602v12.054h8.118v9.676h-8.118v16.892c0 1.695.383 2.897 1.148 3.608.765.71 1.968 1.066 3.608 1.066 1.476 0 2.597-.11 3.362-.328v9.02c-1.585.656-3.635.984-6.15.984-3.936 0-7.052-1.093-9.348-3.28-2.296-2.241-3.444-5.303-3.444-9.184V33.332h-7.298v-9.676h2.05c2.023 0 3.553-.574 4.592-1.722 1.093-1.203 1.64-2.76 1.64-4.674v-5.658h9.84Zm41.422 11.89V34.48a16.692 16.692 0 0 0-3.28-.328c-3.116 0-5.631.902-7.544 2.706-1.914 1.75-2.87 4.647-2.87 8.692V64h-10.906V23.656h10.578v5.986c1.968-4.21 5.794-6.314 11.48-6.314.601 0 1.448.055 2.542.164Zm15.225 15.744h18.04c-.11-2.241-.93-4.127-2.46-5.658-1.476-1.53-3.663-2.296-6.56-2.296-2.624 0-4.756.82-6.396 2.46-1.64 1.64-2.515 3.471-2.624 5.494Zm19.106 10.496 9.102 2.706c-1.094 3.717-3.253 6.779-6.478 9.184-3.171 2.405-7.134 3.608-11.89 3.608-5.795 0-10.715-1.94-14.76-5.822-4.046-3.936-6.068-9.184-6.068-15.744 0-6.232 1.968-11.316 5.904-15.252 3.936-3.99 8.582-5.986 13.94-5.986 6.232 0 11.097 1.859 14.596 5.576 3.553 3.717 5.33 8.829 5.33 15.334 0 .437-.028.93-.082 1.476v1.312l-.082.574h-28.864c.109 2.624 1.148 4.81 3.116 6.56 1.968 1.75 4.318 2.624 7.052 2.624 4.646 0 7.708-2.05 9.184-6.15Zm15.804 3.28c0-3.444 1.121-6.205 3.362-8.282s5.139-3.39 8.692-3.936l9.922-1.476c2.023-.273 3.034-1.23 3.034-2.87 0-1.53-.601-2.788-1.804-3.772-1.148-.984-2.815-1.476-5.002-1.476-2.296 0-4.127.629-5.494 1.886-1.312 1.257-2.05 2.815-2.214 4.674l-9.676-2.05c.383-3.499 2.105-6.587 5.166-9.266 3.061-2.679 7.107-4.018 12.136-4.018 6.013 0 10.441 1.449 13.284 4.346 2.843 2.843 4.264 6.505 4.264 10.988v19.844c0 2.405.164 4.537.492 6.396h-10.004c-.273-1.203-.41-2.815-.41-4.838-2.569 3.99-6.533 5.986-11.89 5.986-4.155 0-7.517-1.203-10.086-3.608-2.515-2.405-3.772-5.248-3.772-8.528Zm16.154 4.018c2.569 0 4.674-.71 6.314-2.132 1.695-1.476 2.542-3.881 2.542-7.216v-1.804l-9.102 1.394c-3.335.492-5.002 2.187-5.002 5.084 0 1.312.465 2.433 1.394 3.362.929.875 2.214 1.312 3.854 1.312Zm43.717-45.428v12.054h8.118v9.676h-8.118v16.892c0 1.695.382 2.897 1.148 3.608.765.71 1.968 1.066 3.608 1.066 1.476 0 2.596-.11 3.362-.328v9.02c-1.586.656-3.636.984-6.15.984-3.936 0-7.052-1.093-9.348-3.28-2.296-2.241-3.444-5.303-3.444-9.184V33.332h-7.298v-9.676h2.05c2.022 0 3.553-.574 4.592-1.722 1.093-1.203 1.64-2.76 1.64-4.674v-5.658h9.84Zm55.439-6.97v52.07c0 2.679.11 5.111.328 7.298h-10.414c-.273-1.367-.41-2.925-.41-4.674-.929 1.695-2.405 3.061-4.428 4.1-1.968 1.039-4.264 1.558-6.888 1.558-5.74 0-10.468-1.995-14.186-5.986-3.662-4.045-5.494-9.13-5.494-15.252 0-5.959 1.804-10.96 5.412-15.006 3.663-4.045 8.31-6.068 13.94-6.068 5.795 0 9.594 1.667 11.398 5.002V4.632h10.742Zm-30.504 39.114c0 3.553.93 6.369 2.788 8.446 1.859 2.023 4.264 3.034 7.216 3.034 2.898 0 5.276-1.039 7.134-3.116 1.859-2.077 2.788-4.893 2.788-8.446 0-3.499-.929-6.232-2.788-8.2-1.858-2.023-4.236-3.034-7.134-3.034-2.897 0-5.302 1.011-7.216 3.034-1.858 2.023-2.788 4.783-2.788 8.282Zm39.635 9.266c0-3.444 1.121-6.205 3.362-8.282 2.242-2.077 5.139-3.39 8.692-3.936l9.922-1.476c2.023-.273 3.034-1.23 3.034-2.87 0-1.53-.601-2.788-1.804-3.772-1.148-.984-2.815-1.476-5.002-1.476-2.296 0-4.127.629-5.494 1.886-1.312 1.257-2.05 2.815-2.214 4.674l-9.676-2.05c.383-3.499 2.105-6.587 5.166-9.266 3.062-2.679 7.107-4.018 12.136-4.018 6.014 0 10.442 1.449 13.284 4.346 2.843 2.843 4.264 6.505 4.264 10.988v19.844c0 2.405.164 4.537.492 6.396h-10.004c-.273-1.203-.41-2.815-.41-4.838-2.569 3.99-6.532 5.986-11.89 5.986-4.154 0-7.516-1.203-10.086-3.608-2.514-2.405-3.772-5.248-3.772-8.528Zm16.154 4.018c2.57 0 4.674-.71 6.314-2.132 1.695-1.476 2.542-3.881 2.542-7.216v-1.804l-9.102 1.394c-3.334.492-5.002 2.187-5.002 5.084 0 1.312.465 2.433 1.394 3.362.93.875 2.214 1.312 3.854 1.312Zm41.173-4.756c2.023 2.023 4.456 3.034 7.298 3.034 2.843 0 5.248-1.011 7.216-3.034 2.023-2.023 3.034-4.838 3.034-8.446 0-3.608-1.011-6.423-3.034-8.446-1.968-2.023-4.373-3.034-7.216-3.034-2.842 0-5.275 1.011-7.298 3.034-1.968 2.023-2.952 4.838-2.952 8.446 0 3.608.984 6.423 2.952 8.446Zm-7.872-23.78c4.046-4.045 9.102-6.068 15.17-6.068s11.098 2.023 15.088 6.068c4.046 4.045 6.068 9.157 6.068 15.334s-2.022 11.289-6.068 15.334c-3.99 4.045-9.02 6.068-15.088 6.068s-11.124-2.023-15.17-6.068c-3.99-4.045-5.986-9.157-5.986-15.334s1.996-11.289 5.986-15.334Z" fill="#000"/></svg>