<svg width="64" height="64" viewBox="0 0 64 64" fill="none" xmlns="http://www.w3.org/2000/svg">
<path fill-rule="evenodd" clip-rule="evenodd" d="M13.0809 6.84862C11.9172 7.29038 10.9526 8.21052 10.4251 8.92318L10.4198 8.93032L10.4142 8.9371C8.99721 10.625 8.2227 12.5276 7.84563 14.4877L11.529 14.2759C11.5466 14.145 11.5701 14.0099 11.6004 13.8715L11.6028 13.8606L11.606 13.8499C11.7212 13.4598 11.998 12.9261 12.4743 12.6201C12.9754 12.2983 13.6399 12.2647 14.4369 12.7788C14.6734 12.9292 15.0335 13.1544 15.346 13.3416C15.5027 13.4355 15.6451 13.5184 15.7531 13.5772C15.783 13.5936 15.8093 13.6074 15.8317 13.6189C16.0107 13.529 16.2526 13.4395 16.5064 13.4087C16.7316 13.3815 16.9953 13.3982 17.2293 13.5321C17.4655 13.2415 17.7772 12.9767 18.0832 12.755C18.4776 12.4693 18.8884 12.2369 19.1791 12.0963L19.2008 12.0858L19.2239 12.0795C20.2389 11.8041 20.9084 11.9252 21.3016 12.3145C21.6912 12.7003 21.7176 13.2578 21.6459 13.6248L22.662 13.5452C22.4909 12.9424 22.1814 12.3948 21.7458 11.909C21.4844 11.6175 21.1986 11.419 20.903 11.2903C20.4832 11.1074 20.0349 11.0616 19.5984 11.1019C18.8652 11.1696 18.1894 11.4784 17.796 11.7409L17.092 12.2106L17.4018 11.3795C18.1395 9.39987 17.3538 8.02411 16.9126 7.60251C15.5679 6.4389 14.227 6.41349 13.0809 6.84862ZM18.0538 8.50464C18.2568 9.14499 18.338 9.95973 18.1163 10.9065C18.4641 10.7487 18.8766 10.6112 19.3176 10.5436C19.3049 10.3165 19.2275 10.0517 19.1069 9.77925C18.9579 9.44278 18.763 9.13869 18.6243 8.95529L18.0538 8.50464ZM19.8594 10.4991C20.2642 10.4959 20.6843 10.5625 21.0915 10.7373C21.2572 10.7893 21.4652 10.9081 21.676 11.0452C21.9016 11.192 22.1565 11.3773 22.4127 11.5736C22.9254 11.9663 23.4549 12.412 23.7868 12.7032L23.7979 12.7129L23.808 12.7239C25.1625 14.1924 25.2688 16.1499 24.5965 18.059C23.9267 19.9609 22.4768 21.8534 20.6466 23.294C19.1564 24.4669 16.9915 25.1529 14.9209 25.5408C12.8429 25.9301 10.8221 26.026 9.59088 25.9944L9.51014 25.9924L7.69873 24.6441L7.679 24.5221C7.31926 22.2991 6.89458 19.6044 7.02365 16.8703C7.05696 16.1647 7.12715 15.4553 7.24506 14.7495C7.60855 12.5734 8.42532 10.4336 10.0067 8.54709C10.5808 7.77387 11.6216 6.7782 12.9013 6.2924C14.1997 5.79949 15.7418 5.83523 17.2519 7.14218L18.9982 8.5216L19.0195 8.54896C19.1839 8.76076 19.4177 9.11974 19.5967 9.52422C19.7256 9.81538 19.8388 10.1581 19.8594 10.4991ZM22.9498 12.7381C23.0946 13.0588 23.203 13.3974 23.2722 13.7529C23.6308 15.5981 22.917 17.8065 20.9403 20.2282C19.9073 21.5972 18.0212 22.786 15.7333 23.6038C13.6882 24.3348 11.2962 24.779 8.84723 24.7842L9.68417 25.4071C10.8909 25.4318 12.8335 25.3338 14.8283 24.9601C16.8754 24.5765 18.9399 23.9091 20.3273 22.817C22.0942 21.4264 23.4652 19.6194 24.0889 17.8487C24.7082 16.0901 24.583 14.4063 23.4337 13.1515C23.2995 13.0339 23.1334 12.8915 22.9498 12.7381ZM8.17622 24.1849C7.83723 22.081 7.47092 19.6376 7.55576 17.1608L11.31 16.8726C11.3203 16.9165 11.3329 16.9597 11.3478 17.0021C11.4791 17.3751 11.768 17.6269 11.9846 17.7499L12.0125 17.7657L12.043 17.7741C12.1318 17.7989 12.221 17.8194 12.3104 17.8361C13.0617 17.9764 13.8289 17.8446 14.4765 17.63C15.0638 17.4354 15.5691 17.1673 15.8991 16.9482C16.1751 17.0632 16.5334 17.1235 16.9075 16.9778C17.3166 17.3405 17.9152 17.7658 18.5274 17.9794C18.8694 18.0987 19.2357 18.1591 19.5837 18.0862C19.8797 18.0242 20.1502 17.8679 20.3693 17.5967C20.5217 17.6301 20.7035 17.6182 20.8732 17.4911C21.1358 17.2945 21.258 16.9019 21.258 16.3413V16.3272L21.2567 16.3131C21.2516 16.256 21.2476 16.1861 21.2454 16.1052L22.6527 15.9699C22.3653 17.1237 21.6896 18.4221 20.5299 19.8419L20.5263 19.8463L20.5229 19.8509C19.5842 21.0976 17.8083 22.2415 15.5631 23.0441C13.3861 23.8223 10.7983 24.2683 8.17622 24.1849ZM22.7699 15.367C22.8302 14.9297 22.832 14.5158 22.7813 14.1268L21.4592 14.2302C21.3419 14.6876 21.2834 15.1367 21.2586 15.5123L22.7699 15.367ZM20.4257 17.0022C20.4885 17.0328 20.5384 17.0256 20.5645 17.0061C20.5892 16.9877 20.6553 16.9148 20.6909 16.6895C20.5585 16.5408 20.3508 16.4212 20.0725 16.3411C19.7482 16.2478 19.3583 16.2174 18.9598 16.2412C18.6749 16.2583 18.3918 16.3026 18.1331 16.3677C18.3392 16.3825 18.5508 16.4032 18.759 16.4311C19.0921 16.476 19.4234 16.5403 19.7124 16.632C19.9808 16.7171 20.2392 16.8337 20.4257 17.0022ZM17.1049 16.1511C17.275 16.0478 17.4714 15.9617 17.676 15.892C18.0519 15.7638 18.491 15.679 18.9299 15.6528C19.3678 15.6266 19.8177 15.658 20.2119 15.7715C20.3822 15.8205 20.5482 15.8867 20.7001 15.9742C20.6985 15.3668 20.7819 14.3989 21.1182 13.4814C21.1622 13.2305 21.1226 12.9353 20.9352 12.7498C20.746 12.5625 20.3146 12.3957 19.3788 12.645C19.1139 12.7748 18.7412 12.9871 18.385 13.2451C18.0138 13.514 17.6858 13.8147 17.5051 14.1047C17.4262 14.2312 17.3837 14.3428 17.3702 14.4381L17.3679 14.4542L17.364 14.4699C17.3386 14.5722 17.3082 14.735 17.2996 14.8829C17.2953 14.9573 17.2972 15.0165 17.3035 15.0576C17.3051 15.0683 17.3068 15.076 17.3081 15.0812L17.4564 15.2421L17.3228 15.4451C17.2589 15.5422 17.1702 15.7237 17.1283 15.9276C17.1127 16.004 17.1044 16.0789 17.1049 16.1511ZM16.596 16.4596C16.5431 16.2282 16.5573 15.9978 16.5979 15.7997C16.6404 15.5926 16.7146 15.4048 16.7899 15.2588C16.7792 15.2215 16.7722 15.1857 16.7674 15.1541C16.7518 15.0522 16.7516 14.944 16.7573 14.8458C16.7683 14.6561 16.8043 14.4613 16.8356 14.3318C16.852 14.2267 16.8825 14.1253 16.9229 14.0282C16.8259 13.9884 16.7064 13.9775 16.5667 13.9944C16.405 14.014 16.2434 14.0687 16.1152 14.1272C16.1046 14.1848 16.0899 14.2509 16.0745 14.3181C16.0675 14.3487 16.0601 14.3808 16.0524 14.4141C16.0113 14.5913 15.9621 14.804 15.9219 15.0332C15.874 15.3061 15.8421 15.586 15.8515 15.8336C15.8601 16.0577 15.9015 16.2247 15.9692 16.3369C16.1418 16.4357 16.3645 16.5047 16.596 16.4596ZM15.3253 16.0686C15.3165 15.998 15.3112 15.9274 15.3086 15.858C15.2966 15.5453 15.3368 15.2149 15.3881 14.923C15.4315 14.6755 15.4851 14.444 15.5261 14.2671C15.5336 14.2349 15.5406 14.2045 15.5471 14.1762C15.5508 14.1598 15.5543 14.1444 15.5576 14.1299C15.5418 14.1216 15.5256 14.1128 15.509 14.1038C15.3916 14.0398 15.242 13.9526 15.0832 13.8574C14.765 13.6668 14.4002 13.4386 14.1613 13.2866L14.1606 13.2862L14.1598 13.2857C13.5017 12.861 13.0519 12.9341 12.7512 13.1272C12.4294 13.3339 12.218 13.717 12.1266 14.0192C11.9451 14.857 12.057 15.5349 12.1216 15.7383L12.1728 15.8994L12.0696 16.0279C11.7889 16.3773 11.7975 16.6272 11.8555 16.7919C11.8631 16.8135 11.8719 16.8346 11.8818 16.8552C11.8897 16.8146 11.9012 16.7736 11.9171 16.7328C11.9753 16.5831 12.0813 16.4628 12.2254 16.3767C12.3914 16.2777 12.6476 16.2082 12.9173 16.1573C13.1973 16.1046 13.5265 16.0661 13.8612 16.0439C14.3652 16.0105 14.9078 16.0125 15.3253 16.0686ZM12.5061 17.2727C13.1142 17.3626 13.7505 17.2544 14.3178 17.0664C14.6783 16.947 15.0037 16.7977 15.2668 16.6544C14.9079 16.6052 14.4006 16.5986 13.8943 16.6321C13.5744 16.6533 13.2659 16.6898 13.0103 16.738C12.7445 16.7881 12.5674 16.8453 12.4875 16.893C12.4349 16.9244 12.422 16.9509 12.4178 16.9618C12.4122 16.9763 12.4072 17.0028 12.4149 17.0489C12.4268 17.1207 12.4632 17.2024 12.5061 17.2727ZM15.5896 13.965C15.5896 13.965 15.5895 13.9654 15.5895 13.9661C15.5895 13.9653 15.5896 13.9649 15.5896 13.965ZM17.7829 16.9374C18.0665 17.1326 18.3822 17.3097 18.6938 17.4184C18.9859 17.5203 19.2542 17.555 19.4806 17.5076C19.6176 17.4789 19.7454 17.4191 19.8603 17.3151C19.7765 17.2741 19.6764 17.2346 19.5599 17.1976C19.3089 17.118 19.0088 17.0586 18.6921 17.016C18.3876 16.9751 18.0738 16.9505 17.7829 16.9374ZM11.3216 16.2809C11.3656 16.1135 11.445 15.9414 11.5652 15.7675C11.5189 15.5556 11.4796 15.2439 11.4849 14.8686L7.74322 15.0838C7.66839 15.5765 7.61687 16.072 7.58491 16.5678L11.3216 16.2809Z" fill="#11172D" fill-opacity="0.1"/>
</svg>
