<svg width="1202" height="771" viewBox="0 0 1202 771" fill="none" xmlns="http://www.w3.org/2000/svg"><g opacity=".7"><rect x="249.5" y="1.5" width="39" height="39" rx="5.5" fill="#F7F7F7" stroke="#F2F2F2"/><rect x="288.5" y="1.5" width="39" height="39" rx="5.5" stroke="#F2F2F2"/><rect x="288.5" y="40.5" width="39" height="39" rx="5.5" stroke="#F2F2F2"/><rect x="249.5" y="40.5" width="39" height="39" rx="5.5" stroke="#F1F1F1"/><rect x="327.5" y="1.5" width="39" height="39" rx="5.5" stroke="#F1F1F1"/><rect x="366.5" y="1.5" width="39" height="39" rx="5.5" stroke="#F2F2F2"/><rect x="366.5" y="40.5" width="39" height="39" rx="5.5" stroke="#F2F2F2"/><rect x="327.5" y="40.5" width="39" height="39" rx="5.5" stroke="#F1F1F1"/><rect x="405.5" y="1.5" width="39" height="39" rx="5.5" stroke="#F2F2F2"/><rect x="444.5" y="1.5" width="39" height="39" rx="5.5" stroke="#F1F1F1"/><rect x="444.5" y="40.5" width="39" height="39" rx="5.5" stroke="#F2F2F2"/><rect x="405.5" y="40.5" width="39" height="39" rx="5.5" stroke="#F2F2F2"/><rect x="483.5" y="1.5" width="39" height="39" rx="5.5" stroke="#F2F2F2"/><rect x="522.5" y="1.5" width="39" height="39" rx="5.5" stroke="#F2F2F2"/><rect x="522.5" y="40.5" width="39" height="39" rx="5.5" stroke="#F2F2F2"/><rect x="483.5" y="40.5" width="39" height="39" rx="5.5" stroke="#F1F1F1"/><rect x="639.5" y=".5" width="39" height="39" rx="5.5" stroke="#F2F2F2"/><rect x="678.5" y=".5" width="39" height="39" rx="5.5" stroke="#F2F2F2"/><rect x="678.5" y="39.5" width="39" height="39" rx="5.5" stroke="#F2F2F2"/><rect x="639.5" y="39.5" width="39" height="39" rx="5.5" stroke="#F2F2F2"/><rect x="717.5" y=".5" width="39" height="39" rx="5.5" stroke="#F1F1F1"/><rect x="756.5" y=".5" width="39" height="39" rx="5.5" fill="#F7F7F7" stroke="#F2F2F2"/><rect x="756.5" y="39.5" width="39" height="39" rx="5.5" stroke="#F2F2F2"/><rect x="717.5" y="39.5" width="39" height="39" rx="5.5" stroke="#F1F1F1"/><rect x="795.5" y=".5" width="39" height="39" rx="5.5" stroke="#F2F2F2"/><rect x="834.5" y=".5" width="39" height="39" rx="5.5" stroke="#F2F2F2"/><rect x="834.5" y="39.5" width="39" height="39" rx="5.5" stroke="#F2F2F2"/><rect x="795.5" y="39.5" width="39" height="39" rx="5.5" stroke="#F2F2F2"/><rect x="873.5" y=".5" width="39" height="39" rx="5.5" stroke="#F2F2F2"/><rect x="912.5" y=".5" width="39" height="39" rx="5.5" stroke="#F2F2F2"/><rect x="912.5" y="39.5" width="39" height="39" rx="5.5" stroke="#F2F2F2"/><rect x="873.5" y="39.5" width="39" height="39" rx="5.5" fill="#F7F7F7" stroke="#F2F2F2"/><rect x="249.5" y="351.5" width="39" height="39" rx="5.5" fill="#F6F6F6" stroke="#F2F2F2"/><rect x="288.5" y="351.5" width="39" height="39" rx="5.5" fill="#F6F6F6" stroke="#F2F2F2"/><rect x="327.5" y="351.5" width="39" height="39" rx="5.5" stroke="#F2F2F2"/><rect x="366.5" y="351.5" width="39" height="39" rx="5.5" stroke="#F2F2F2"/><rect x="444.5" y="351.5" width="39" height="39" rx="5.5" stroke="#F2F2F2"/><rect x="639.5" y="350.5" width="39" height="39" rx="5.5" stroke="#F2F2F2"/><rect x="678.5" y="389.5" width="39" height="39" rx="5.5" stroke="#F2F2F2"/><rect x="756.5" y="350.5" width="39" height="39" rx="5.5" stroke="#F2F2F2"/><rect x="873.5" y="350.5" width="39" height="39" rx="5.5" stroke="#F2F2F2"/><rect x="912.5" y="350.5" width="39" height="39" rx="5.5" stroke="#F2F2F2"/><rect x="56.5" y="221.5" width="39" height="39" rx="5.5" stroke="#F2F2F2"/><rect x="95.5" y="221.5" width="39" height="39" rx="5.5" stroke="#F1F1F1"/><rect x="134.5" y="260.5" width="39" height="39" rx="5.5" fill="#F7F7F7" stroke="#F2F2F2"/><rect x="173.5" y="221.5" width="39" height="39" rx="5.5" stroke="#F2F2F2"/><rect x="212.5" y="221.5" width="39" height="39" rx="5.5" stroke="#F1F1F1"/><rect x="212.5" y="260.5" width="39" height="39" rx="5.5" stroke="#F2F2F2"/><rect x="173.5" y="260.5" width="39" height="39" rx="5.5" stroke="#F1F1F1"/><rect x="1006.5" y="221.5" width="39" height="39" rx="5.5" fill="#F7F7F7" stroke="#F2F2F2"/><rect x="1006.5" y="260.5" width="39" height="39" rx="5.5" stroke="#F2F2F2"/><rect x="1045.5" y="221.5" width="39" height="39" rx="5.5" stroke="#F2F2F2"/><rect x="1084.5" y="221.5" width="39" height="39" rx="5.5" stroke="#F2F2F2"/><rect x="1084.5" y="260.5" width="39" height="39" rx="5.5" stroke="#F2F2F2"/><rect x="1045.5" y="260.5" width="39" height="39" rx="5.5" stroke="#F2F2F2"/><rect x="1123.5" y="221.5" width="39" height="39" rx="5.5" stroke="#F2F2F2"/><rect x="1162.5" y="221.5" width="39" height="39" rx="5.5" stroke="#F2F2F2"/><rect x="1162.5" y="260.5" width="39" height="39" rx="5.5" stroke="#F2F2F2"/><rect x="1123.5" y="260.5" width="39" height="39" rx="5.5" fill="#F7F7F7" stroke="#F2F2F2"/><rect x="561.5" y="78.5" width="39" height="39" rx="5.5" stroke="#F2F2F2"/><rect x="561.5" y="117.5" width="39" height="39" rx="5.5" fill="#F7F7F7" stroke="#F2F2F2"/><rect x="600.5" y="78.5" width="39" height="39" rx="5.5" stroke="#F2F2F2"/><rect x="639.5" y="78.5" width="39" height="39" rx="5.5" stroke="#F2F2F2"/><rect x="639.5" y="117.5" width="39" height="39" rx="5.5" stroke="#F2F2F2"/><rect x="600.5" y="117.5" width="39" height="39" rx="5.5" stroke="#F2F2F2"/><rect x="483.5" y="156.5" width="39" height="39" rx="5.5" stroke="#F2F2F2"/><rect x="522.5" y="156.5" width="39" height="39" rx="5.5" stroke="#F2F2F2"/><rect x="561.5" y="156.5" width="39" height="39" rx="5.5" stroke="#F2F2F2"/><rect x="561.5" y="195.5" width="39" height="39" rx="5.5" stroke="#F2F2F2"/><rect x="522.5" y="195.5" width="39" height="39" rx="5.5" stroke="#F2F2F2"/><rect x="640.5" y="156.5" width="39" height="39" rx="5.5" stroke="#F2F2F2"/><rect x="640.5" y="195.5" width="39" height="39" rx="5.5" stroke="#F2F2F2"/><rect x="679.5" y="156.5" width="39" height="39" rx="5.5" stroke="#F2F2F2"/><rect x="718.5" y="156.5" width="39" height="39" rx="5.5" stroke="#F2F2F2"/><rect x="718.5" y="195.5" width="39" height="39" rx="5.5" fill="#F7F7F7" stroke="#F2F2F2"/><rect x="679.5" y="195.5" width="39" height="39" rx="5.5" stroke="#F2F2F2"/><rect x="585.5" y="731.5" width="39" height="39" rx="5.5" transform="rotate(-180 585.5 731.5)" stroke="#F2F2F2"/><rect x="507.5" y="731.5" width="39" height="39" rx="5.5" transform="rotate(-180 507.5 731.5)" stroke="#F2F2F2"/><rect x="546.5" y="731.5" width="39" height="39" rx="5.5" transform="rotate(-180 546.5 731.5)" stroke="#F2F2F2"/><rect x="468.5" y="731.5" width="39" height="39" rx="5.5" transform="rotate(-180 468.5 731.5)" stroke="#F2F2F2"/><rect x="390.5" y="731.5" width="39" height="39" rx="5.5" transform="rotate(-180 390.5 731.5)" stroke="#F2F2F2"/><rect x="429.5" y="731.5" width="39" height="39" rx="5.5" transform="rotate(-180 429.5 731.5)" fill="#F7F7F7" stroke="#F2F2F2"/><rect x="273.5" y="692.5" width="39" height="39" rx="5.5" stroke="#F2F2F2"/><rect x="234.5" y="653.5" width="39" height="39" rx="5.5" stroke="#F2F2F2"/><rect x="273.5" y="653.5" width="39" height="39" rx="5.5" stroke="#F2F2F2"/><rect x="234.5" y="614.5" width="39" height="39" rx="5.5" stroke="#F2F2F2"/><rect x="351.5" y="731.5" width="39" height="39" rx="5.5" transform="rotate(-180 351.5 731.5)" stroke="#F2F2F2"/><rect x="741.5" y="731.5" width="39" height="39" rx="5.5" transform="rotate(-180 741.5 731.5)" stroke="#F2F2F2"/><rect x="663.5" y="731.5" width="39" height="39" rx="5.5" transform="rotate(-180 663.5 731.5)" stroke="#F2F2F2"/><rect x="702.5" y="731.5" width="39" height="39" rx="5.5" transform="rotate(-180 702.5 731.5)" stroke="#F1F1F1"/><rect x="624.5" y="731.5" width="39" height="39" rx="5.5" transform="rotate(-180 624.5 731.5)" fill="#F7F7F7" stroke="#F2F2F2"/><rect x="234.5" y="575.5" width="39" height="39" rx="5.5" fill="#F7F7F7" stroke="#F2F2F2"/><rect x="312.5" y="731.5" width="39" height="39" rx="5.5" stroke="#F2F2F2"/><rect x="741.5" y="692.5" width="39" height="39" rx="5.5" stroke="#F2F2F2"/><rect x="702.5" y="731.5" width="39" height="39" rx="5.5" stroke="#F2F2F2"/><rect x="780.5" y="692.5" width="39" height="39" rx="5.5" stroke="#F2F2F2"/><rect x="585.5" y="652.5" width="39" height="39" rx="5.5" transform="rotate(-180 585.5 652.5)" stroke="#F2F2F2"/><rect x="507.5" y="652.5" width="39" height="39" rx="5.5" transform="rotate(-180 507.5 652.5)" stroke="#F2F2F2"/><rect x="546.5" y="652.5" width="39" height="39" rx="5.5" transform="rotate(-180 546.5 652.5)" stroke="#F2F2F2"/><rect x="468.5" y="652.5" width="39" height="39" rx="5.5" transform="rotate(-180 468.5 652.5)" stroke="#F2F2F2"/><rect x="390.5" y="652.5" width="39" height="39" rx="5.5" transform="rotate(-180 390.5 652.5)" stroke="#F2F2F2"/><rect x="351.5" y="652.5" width="39" height="39" rx="5.5" transform="rotate(-180 351.5 652.5)" stroke="#F2F2F2"/><rect x="741.5" y="652.5" width="39" height="39" rx="5.5" transform="rotate(-180 741.5 652.5)" stroke="#F2F2F2"/><rect x="663.5" y="652.5" width="39" height="39" rx="5.5" transform="rotate(-180 663.5 652.5)" stroke="#F2F2F2"/><rect x="702.5" y="652.5" width="39" height="39" rx="5.5" transform="rotate(-180 702.5 652.5)" stroke="#F1F1F1"/><rect x="624.5" y="652.5" width="39" height="39" rx="5.5" transform="rotate(-180 624.5 652.5)" fill="#F7F7F7" stroke="#F2F2F2"/><rect x="741.5" y="613.5" width="39" height="39" rx="5.5" stroke="#F1F1F1"/><rect x="780.5" y="613.5" width="39" height="39" rx="5.5" stroke="#F2F2F2"/><rect x="273.5" y="574.5" width="39" height="39" rx="5.5" transform="rotate(-180 273.5 574.5)" stroke="#F2F2F2"/><rect x="195.5" y="574.5" width="39" height="39" rx="5.5" transform="rotate(-180 195.5 574.5)" stroke="#F2F2F2"/><rect x="234.5" y="574.5" width="39" height="39" rx="5.5" transform="rotate(-180 234.5 574.5)" stroke="#F2F2F2"/><rect x="156.5" y="574.5" width="39" height="39" rx="5.5" transform="rotate(-180 156.5 574.5)" stroke="#F2F2F2"/><rect x="78.5" y="574.5" width="39" height="39" rx="5.5" transform="rotate(-180 78.5 574.5)" stroke="#F2F2F2"/><rect x="39.5" y="574.5" width="39" height="39" rx="5.5" transform="rotate(-180 39.5 574.5)" stroke="#F2F2F2"/><rect x="429.5" y="574.5" width="39" height="39" rx="5.5" transform="rotate(-180 429.5 574.5)" stroke="#F2F2F2"/><rect x="351.5" y="574.5" width="39" height="39" rx="5.5" transform="rotate(-180 351.5 574.5)" stroke="#F2F2F2"/><rect x="390.5" y="574.5" width="39" height="39" rx="5.5" transform="rotate(-180 390.5 574.5)" stroke="#F2F2F2"/><rect x="312.5" y="574.5" width="39" height="39" rx="5.5" transform="rotate(-180 312.5 574.5)" fill="#F7F7F7" stroke="#F2F2F2"/><rect x="429.5" y="535.5" width="39" height="39" rx="5.5" stroke="#F2F2F2"/><rect x="468.5" y="535.5" width="39" height="39" rx="5.5" stroke="#F2F2F2"/><rect x="625.5" y="534.5" width="39" height="39" rx="5.5" transform="rotate(-180 625.5 534.5)" stroke="#F2F2F2"/><rect x="547.5" y="534.5" width="39" height="39" rx="5.5" transform="rotate(-180 547.5 534.5)" stroke="#F1F1F1"/><rect x="586.5" y="534.5" width="39" height="39" rx="5.5" transform="rotate(-180 586.5 534.5)" stroke="#F2F2F2"/><rect x="508.5" y="534.5" width="39" height="39" rx="5.5" transform="rotate(-180 508.5 534.5)" stroke="#F2F2F2"/><rect x="430.5" y="534.5" width="39" height="39" rx="5.5" transform="rotate(-180 430.5 534.5)" stroke="#F2F2F2"/><rect x="391.5" y="534.5" width="39" height="39" rx="5.5" transform="rotate(-180 391.5 534.5)" stroke="#F2F2F2"/><rect x="781.5" y="534.5" width="39" height="39" rx="5.5" transform="rotate(-180 781.5 534.5)" stroke="#F2F2F2"/><rect x="703.5" y="534.5" width="39" height="39" rx="5.5" transform="rotate(-180 703.5 534.5)" stroke="#F2F2F2"/><rect x="742.5" y="534.5" width="39" height="39" rx="5.5" transform="rotate(-180 742.5 534.5)" stroke="#F2F2F2"/><rect x="664.5" y="534.5" width="39" height="39" rx="5.5" transform="rotate(-180 664.5 534.5)" fill="#F7F7F7" stroke="#F2F2F2"/><rect x="781.5" y="495.5" width="39" height="39" rx="5.5" stroke="#F1F1F1"/><rect x="820.5" y="495.5" width="39" height="39" rx="5.5" stroke="#F2F2F2"/><rect x="898.5" y="574.5" width="39" height="39" rx="5.5" transform="rotate(-180 898.5 574.5)" stroke="#F2F2F2"/><rect x="820.5" y="574.5" width="39" height="39" rx="5.5" transform="rotate(-180 820.5 574.5)" stroke="#F2F2F2"/><rect x="859.5" y="574.5" width="39" height="39" rx="5.5" transform="rotate(-180 859.5 574.5)" stroke="#F2F2F2"/><rect x="781.5" y="574.5" width="39" height="39" rx="5.5" transform="rotate(-180 781.5 574.5)" stroke="#F2F2F2"/><rect x="703.5" y="574.5" width="39" height="39" rx="5.5" transform="rotate(-180 703.5 574.5)" stroke="#F1F1F1"/><rect x="664.5" y="574.5" width="39" height="39" rx="5.5" transform="rotate(-180 664.5 574.5)" stroke="#F2F2F2"/><rect x="1054.5" y="574.5" width="39" height="39" rx="5.5" transform="rotate(-180 1054.5 574.5)" stroke="#F2F2F2"/><rect x="976.5" y="574.5" width="39" height="39" rx="5.5" transform="rotate(-180 976.5 574.5)" stroke="#F2F2F2"/><rect x="1015.5" y="574.5" width="39" height="39" rx="5.5" transform="rotate(-180 1015.5 574.5)" stroke="#F1F1F1"/><rect x="937.5" y="574.5" width="39" height="39" rx="5.5" transform="rotate(-180 937.5 574.5)" fill="#F7F7F7" stroke="#F2F2F2"/><rect x="834.5" y="428.5" width="39" height="39" rx="5.5" transform="rotate(-180 834.5 428.5)" stroke="#F2F2F2"/><rect x="873.5" y="428.5" width="39" height="39" rx="5.5" transform="rotate(-180 873.5 428.5)" stroke="#F2F2F2"/><rect x="795.5" y="428.5" width="39" height="39" rx="5.5" transform="rotate(-180 795.5 428.5)" stroke="#F2F2F2"/><rect x="1068.5" y="428.5" width="39" height="39" rx="5.5" transform="rotate(-180 1068.5 428.5)" stroke="#F1F1F1"/><rect x="990.5" y="428.5" width="39" height="39" rx="5.5" transform="rotate(-180 990.5 428.5)" stroke="#F2F2F2"/><rect x="951.5" y="428.5" width="39" height="39" rx="5.5" transform="rotate(-180 951.5 428.5)" fill="#F7F7F7" stroke="#F2F2F2"/><rect x="561.5" y="349.5" width="39" height="39" rx="5.5" transform="rotate(-180 561.5 349.5)" stroke="#F2F2F2"/><rect x="600.5" y="349.5" width="39" height="39" rx="5.5" transform="rotate(-180 600.5 349.5)" stroke="#F2F2F2"/><rect x="522.5" y="349.5" width="39" height="39" rx="5.5" transform="rotate(-180 522.5 349.5)" stroke="#F2F2F2"/><rect x="795.5" y="349.5" width="39" height="39" rx="5.5" transform="rotate(-180 795.5 349.5)" stroke="#F2F2F2"/><rect x="717.5" y="349.5" width="39" height="39" rx="5.5" transform="rotate(-180 717.5 349.5)" stroke="#F2F2F2"/><rect x="678.5" y="349.5" width="39" height="39" rx="5.5" transform="rotate(-180 678.5 349.5)" fill="#F7F7F7" stroke="#F2F2F2"/><rect x="330.5" y="300.5" width="39" height="39" rx="5.5" transform="rotate(-180 330.5 300.5)" stroke="#F2F2F2"/><rect x="369.5" y="300.5" width="39" height="39" rx="5.5" transform="rotate(-180 369.5 300.5)" stroke="#F2F2F2"/><rect x="291.5" y="300.5" width="39" height="39" rx="5.5" transform="rotate(-180 291.5 300.5)" stroke="#F1F1F1"/><rect x="564.5" y="300.5" width="39" height="39" rx="5.5" transform="rotate(-180 564.5 300.5)" stroke="#F2F2F2"/><rect x="486.5" y="300.5" width="39" height="39" rx="5.5" transform="rotate(-180 486.5 300.5)" stroke="#F2F2F2"/><rect x="447.5" y="300.5" width="39" height="39" rx="5.5" transform="rotate(-180 447.5 300.5)" fill="#F7F7F7" stroke="#F2F2F2"/><rect x="1054.5" y="535.5" width="39" height="39" rx="5.5" stroke="#F2F2F2"/><rect x="1093.5" y="535.5" width="39" height="39" rx="5.5" stroke="#F2F2F2"/><rect x="741.5" y="653.5" width="39" height="39" rx="5.5" stroke="#F2F2F2"/><rect x="780.5" y="653.5" width="39" height="39" rx="5.5" stroke="#F2F2F2"/><rect x="780.5" y="614.5" width="39" height="39" rx="5.5" stroke="#F2F2F2"/><rect x="780.5" y="575.5" width="39" height="39" rx="5.5" stroke="#F2F2F2"/><rect x="780.5" y="731.5" width="39" height="39" rx="5.5" fill="#F7F7F7" stroke="#F2F2F2"/><rect x="741.5" y="731.5" width="39" height="39" rx="5.5" stroke="#F2F2F2"/><path d="M678.5 44a.5.5 0 0 0-1 0h1ZM618 118.5h14.592v-1H618v1Zm21.5-6.908V85.828h-1v25.764h1Zm6.328-32.092h25.344v-1h-25.344v1Zm32.672-7.328V44h-1v28.172h1Zm-2.146 5.182a7.33 7.33 0 0 0 2.146-5.182h-1a6.328 6.328 0 0 1-1.854 4.474l.708.708Zm-5.182 2.146a7.33 7.33 0 0 0 5.182-2.146l-.708-.708a6.325 6.325 0 0 1-4.474 1.854v1Zm-29.818 1.854a6.325 6.325 0 0 1 4.474-1.854v-1a7.33 7.33 0 0 0-5.182 2.146l.708.708Zm-1.854 4.474c0-1.678.667-3.288 1.854-4.474l-.708-.708a7.33 7.33 0 0 0-2.146 5.182h1Zm-2.359 30.963a6.91 6.91 0 0 0 2.359-5.199h-1a5.906 5.906 0 0 1-2.017 4.446l.658.753Zm-4.549 1.709c1.674 0 3.29-.607 4.549-1.709l-.658-.753a5.906 5.906 0 0 1-3.891 1.462v1Z" fill="url(#a)"/><path d="M448 40.5h30.481c.973 0 1.905-.386 2.593-1.074a3.667 3.667 0 0 1 5.008-.167l.272.238a4.053 4.053 0 0 0 2.669 1.003h28.535c.915 0 1.785-.4 2.381-1.095a3.135 3.135 0 0 1 4.445-.32l.532.466a3.834 3.834 0 0 0 2.525.949h28.084a5.973 5.973 0 0 0 5.975-5.975V7.975A5.975 5.975 0 0 0 555.525 2H526" stroke="url(#b)"/><path d="M56.5 295v-29.489c0-.96.414-1.874 1.137-2.506a3.328 3.328 0 0 0 0-5.01 3.33 3.33 0 0 1-1.137-2.506v-27.161a6.827 6.827 0 0 1 6.828-6.828H90.61a3.76 3.76 0 0 1 2.445.904 3.757 3.757 0 0 0 4.89 0 3.76 3.76 0 0 1 2.445-.904h28.555a5.557 5.557 0 0 1 5.555 5.555v27.47a5.973 5.973 0 0 1-5.975 5.975h-26.929a4.65 4.65 0 0 1-2.856-.98l-1.568-1.22a2.398 2.398 0 1 0-2.867 3.846l.132.095a2.537 2.537 0 0 1 1.063 2.065v28.344a6.849 6.849 0 0 0 6.85 6.85h27.069a3.817 3.817 0 0 0 2.699-1.118 3.816 3.816 0 0 1 5.041-.314l.582.452c.816.635 1.82.98 2.855.98h25.602a7.303 7.303 0 0 0 7.302-7.302V265.39a3.76 3.76 0 0 0-.904-2.445 3.757 3.757 0 0 1 0-4.89 3.76 3.76 0 0 0 .904-2.445v-28.555a5.555 5.555 0 0 1 5.555-5.555H202.5" stroke="url(#c)"/><path d="M815.5 731.5h-29.545a3.934 3.934 0 0 1-2.56-.947 3.933 3.933 0 0 0-4.919-.16l-.302.226a4.4 4.4 0 0 1-2.642.881h-28.02a4.087 4.087 0 0 1-2.66-.984l-.779-.668a2.737 2.737 0 0 0-3.297-.199l-.141.094a2.597 2.597 0 0 0-.395 3.997c.486.486.76 1.147.76 1.835V764.5a5.999 5.999 0 0 1-6 6h-25.24a7.261 7.261 0 0 1-7.26-7.26v-27.318c0-.888.444-1.718 1.183-2.211 1.578-1.052 1.578-3.37 0-4.422a2.658 2.658 0 0 1-1.183-2.211V699.35a6.85 6.85 0 0 1 6.85-6.85h27.098c.985 0 1.921.43 2.562 1.178a3.372 3.372 0 0 0 4.495.568l1.205-.843a4.995 4.995 0 0 1 2.865-.903h25.665a7.759 7.759 0 0 0 7.76-7.76v-24.765a5.973 5.973 0 0 1 5.975-5.975h25.265a7.261 7.261 0 0 0 7.26-7.26v-27.165c0-.991-.467-1.925-1.26-2.52a3.152 3.152 0 0 1-.465-4.615l.688-.774a4.102 4.102 0 0 0 1.037-2.726V579" stroke="url(#d)"/><path d="M273.5 579.5v29.025a5.973 5.973 0 0 1-5.975 5.975h-27.404a5.122 5.122 0 0 0-5.121 5.121V647a5.999 5.999 0 0 0 6 6h26.092a6.407 6.407 0 0 1 6.408 6.408v26.684a6.407 6.407 0 0 0 6.408 6.408h25.684a6.411 6.411 0 0 1 6.408 6.408v24.89a7.702 7.702 0 0 0 7.702 7.702h24.417a5.36 5.36 0 0 0 3.35-1.175l.29-.232a4.921 4.921 0 0 1 6.343.164 4.918 4.918 0 0 0 3.269 1.243h26.301a6.826 6.826 0 0 0 6.828-6.828v-25.764a6.407 6.407 0 0 1 6.408-6.408h27.642a3.5 3.5 0 0 1 2.475 1.025 3.5 3.5 0 0 0 4.95 0 3.5 3.5 0 0 1 2.475-1.025h28.609c.929 0 1.826.337 2.525.949l.532.465a3.135 3.135 0 0 0 4.445-.319 3.137 3.137 0 0 1 2.381-1.095h28.083a5.973 5.973 0 0 1 5.975 5.975v26.197a6.826 6.826 0 0 0 6.828 6.828H541" stroke="url(#e)"/><path d="M1050 261h26.25c1.47 0 2.9-.435 4.12-1.249a7.45 7.45 0 0 1 8.26 0 7.415 7.415 0 0 0 4.12 1.249H1120" stroke="url(#f)"/><path d="M249.5 76V47.328a6.828 6.828 0 0 1 6.828-6.828h25.346a5.794 5.794 0 0 0 3.322-1.047l.316-.221a5.272 5.272 0 0 1 6.26.157 5.275 5.275 0 0 0 3.237 1.111h25.824c1.21 0 2.385-.403 3.341-1.146a5.44 5.44 0 0 1 6.261-.295l.657.418a6.544 6.544 0 0 0 3.514 1.023H361" stroke="url(#g)"/><path d="M646 390h27.607c.906 0 1.789.283 2.527.81a4.348 4.348 0 0 0 4.832.149l.333-.209a4.943 4.943 0 0 1 2.617-.75h26.928c1.089 0 2.163.254 3.137.741l.727.363a5.568 5.568 0 0 0 5.439-.258 5.56 5.56 0 0 1 2.949-.846h27.429a5.973 5.973 0 0 0 5.975-5.975v-27.117a6.407 6.407 0 0 1 6.408-6.408H776" stroke="url(#h)"/></g><defs><linearGradient id="a" x1="682.5" y1="40.5" x2="618.5" y2="118.5" gradientUnits="userSpaceOnUse"><stop stop-color="#F5F5F5"/><stop offset=".177" stop-color="#AD00FF" stop-opacity=".847"/><stop offset=".349" stop-color="#561AFE" stop-opacity=".698"/><stop offset=".568" stop-color="#FF046E" stop-opacity=".63"/><stop offset=".807" stop-color="#FF003D" stop-opacity=".54"/><stop offset="1" stop-color="#FF0CAC" stop-opacity="0"/></linearGradient><linearGradient id="b" x1="570.012" y1=".179" x2="555.432" y2="64.791" gradientUnits="userSpaceOnUse"><stop stop-color="#F5F5F5"/><stop offset=".177" stop-color="#AD00FF" stop-opacity=".847"/><stop offset=".349" stop-color="#561AFE" stop-opacity=".698"/><stop offset=".568" stop-color="#FF046E" stop-opacity=".63"/><stop offset=".807" stop-color="#FF003D" stop-opacity=".54"/><stop offset="1" stop-color="#FF0CAC" stop-opacity="0"/></linearGradient><linearGradient id="c" x1="213.45" y1="217.811" x2="170.039" y2="339.949" gradientUnits="userSpaceOnUse"><stop stop-color="#F5F5F5"/><stop offset=".177" stop-color="#AD00FF" stop-opacity=".847"/><stop offset=".349" stop-color="#561AFE" stop-opacity=".698"/><stop offset=".568" stop-color="#FF046E" stop-opacity=".63"/><stop offset=".807" stop-color="#FF003D" stop-opacity=".54"/><stop offset="1" stop-color="#FF0CAC" stop-opacity="0"/></linearGradient><linearGradient id="d" x1="828.275" y1="569.943" x2="660.013" y2="724.468" gradientUnits="userSpaceOnUse"><stop stop-color="#F5F5F5"/><stop offset=".177" stop-color="#AD00FF" stop-opacity=".847"/><stop offset=".349" stop-color="#561AFE" stop-opacity=".698"/><stop offset=".568" stop-color="#FF046E" stop-opacity=".63"/><stop offset=".807" stop-color="#FF003D" stop-opacity=".54"/><stop offset="1" stop-color="#FF0CAC" stop-opacity="0"/></linearGradient><linearGradient id="e" x1="563.95" y1="572.311" x2="484.081" y2="813.997" gradientUnits="userSpaceOnUse"><stop stop-color="#F5F5F5"/><stop offset=".177" stop-color="#AD00FF" stop-opacity=".847"/><stop offset=".349" stop-color="#561AFE" stop-opacity=".698"/><stop offset=".568" stop-color="#FF046E" stop-opacity=".63"/><stop offset=".807" stop-color="#FF003D" stop-opacity=".54"/><stop offset="1" stop-color="#FF0CAC" stop-opacity="0"/></linearGradient><linearGradient id="f" x1="1125.25" y1="256.811" x2="1124.98" y2="263.855" gradientUnits="userSpaceOnUse"><stop stop-color="#F5F5F5"/><stop offset=".177" stop-color="#AD00FF" stop-opacity=".847"/><stop offset=".349" stop-color="#561AFE" stop-opacity=".698"/><stop offset=".568" stop-color="#FF046E" stop-opacity=".63"/><stop offset=".807" stop-color="#FF003D" stop-opacity=".54"/><stop offset="1" stop-color="#FF0CAC" stop-opacity="0"/></linearGradient><linearGradient id="g" x1="369.362" y1="35.155" x2="354.179" y2="100.406" gradientUnits="userSpaceOnUse"><stop stop-color="#F5F5F5"/><stop offset=".177" stop-color="#AD00FF" stop-opacity=".847"/><stop offset=".349" stop-color="#561AFE" stop-opacity=".698"/><stop offset=".568" stop-color="#FF046E" stop-opacity=".63"/><stop offset=".807" stop-color="#FF003D" stop-opacity=".54"/><stop offset="1" stop-color="#FF0CAC" stop-opacity="0"/></linearGradient><linearGradient id="h" x1="765.275" y1="386.216" x2="764.914" y2="396.786" gradientUnits="userSpaceOnUse"><stop stop-color="#F5F5F5"/><stop offset=".177" stop-color="#AD00FF" stop-opacity=".847"/><stop offset=".349" stop-color="#561AFE" stop-opacity=".698"/><stop offset=".568" stop-color="#FF046E" stop-opacity=".63"/><stop offset=".807" stop-color="#FF003D" stop-opacity=".54"/><stop offset="1" stop-color="#FF0CAC" stop-opacity="0"/></linearGradient></defs></svg>