<svg width="1202" height="771" viewBox="0 0 1202 771" fill="none" xmlns="http://www.w3.org/2000/svg">
<g opacity="0.7">
<rect x="249.5" y="1.5" width="39" height="39" rx="5.5" fill="#F7F7F7" stroke="#F2F2F2"/>
<rect x="288.5" y="1.5" width="39" height="39" rx="5.5" stroke="#F2F2F2"/>
<rect x="288.5" y="40.5" width="39" height="39" rx="5.5" stroke="#F2F2F2"/>
<rect x="249.5" y="40.5" width="39" height="39" rx="5.5" stroke="#F1F1F1"/>
<rect x="327.5" y="1.5" width="39" height="39" rx="5.5" stroke="#F1F1F1"/>
<rect x="366.5" y="1.5" width="39" height="39" rx="5.5" stroke="#F2F2F2"/>
<rect x="366.5" y="40.5" width="39" height="39" rx="5.5" stroke="#F2F2F2"/>
<rect x="327.5" y="40.5" width="39" height="39" rx="5.5" stroke="#F1F1F1"/>
<rect x="405.5" y="1.5" width="39" height="39" rx="5.5" stroke="#F2F2F2"/>
<rect x="444.5" y="1.5" width="39" height="39" rx="5.5" stroke="#F1F1F1"/>
<rect x="444.5" y="40.5" width="39" height="39" rx="5.5" stroke="#F2F2F2"/>
<rect x="405.5" y="40.5" width="39" height="39" rx="5.5" stroke="#F2F2F2"/>
<rect x="483.5" y="1.5" width="39" height="39" rx="5.5" stroke="#F2F2F2"/>
<rect x="522.5" y="1.5" width="39" height="39" rx="5.5" stroke="#F2F2F2"/>
<rect x="522.5" y="40.5" width="39" height="39" rx="5.5" stroke="#F2F2F2"/>
<rect x="483.5" y="40.5" width="39" height="39" rx="5.5" stroke="#F1F1F1"/>
<rect x="639.5" y="0.5" width="39" height="39" rx="5.5" stroke="#F2F2F2"/>
<rect x="678.5" y="0.5" width="39" height="39" rx="5.5" stroke="#F2F2F2"/>
<rect x="678.5" y="39.5" width="39" height="39" rx="5.5" stroke="#F2F2F2"/>
<rect x="639.5" y="39.5" width="39" height="39" rx="5.5" stroke="#F2F2F2"/>
<rect x="717.5" y="0.5" width="39" height="39" rx="5.5" stroke="#F1F1F1"/>
<rect x="756.5" y="0.5" width="39" height="39" rx="5.5" fill="#F7F7F7" stroke="#F2F2F2"/>
<rect x="756.5" y="39.5" width="39" height="39" rx="5.5" stroke="#F2F2F2"/>
<rect x="717.5" y="39.5" width="39" height="39" rx="5.5" stroke="#F1F1F1"/>
<rect x="795.5" y="0.5" width="39" height="39" rx="5.5" stroke="#F2F2F2"/>
<rect x="834.5" y="0.5" width="39" height="39" rx="5.5" stroke="#F2F2F2"/>
<rect x="834.5" y="39.5" width="39" height="39" rx="5.5" stroke="#F2F2F2"/>
<rect x="795.5" y="39.5" width="39" height="39" rx="5.5" stroke="#F2F2F2"/>
<rect x="873.5" y="0.5" width="39" height="39" rx="5.5" stroke="#F2F2F2"/>
<rect x="912.5" y="0.5" width="39" height="39" rx="5.5" stroke="#F2F2F2"/>
<rect x="912.5" y="39.5" width="39" height="39" rx="5.5" stroke="#F2F2F2"/>
<rect x="873.5" y="39.5" width="39" height="39" rx="5.5" fill="#F7F7F7" stroke="#F2F2F2"/>
<rect x="249.5" y="351.5" width="39" height="39" rx="5.5" fill="#F6F6F6" stroke="#F2F2F2"/>
<rect x="288.5" y="351.5" width="39" height="39" rx="5.5" fill="#F6F6F6" stroke="#F2F2F2"/>
<rect x="327.5" y="351.5" width="39" height="39" rx="5.5" stroke="#F2F2F2"/>
<rect x="366.5" y="351.5" width="39" height="39" rx="5.5" stroke="#F2F2F2"/>
<rect x="444.5" y="351.5" width="39" height="39" rx="5.5" stroke="#F2F2F2"/>
<rect x="639.5" y="350.5" width="39" height="39" rx="5.5" stroke="#F2F2F2"/>
<rect x="678.5" y="389.5" width="39" height="39" rx="5.5" stroke="#F2F2F2"/>
<rect x="756.5" y="350.5" width="39" height="39" rx="5.5" stroke="#F2F2F2"/>
<rect x="873.5" y="350.5" width="39" height="39" rx="5.5" stroke="#F2F2F2"/>
<rect x="912.5" y="350.5" width="39" height="39" rx="5.5" stroke="#F2F2F2"/>
<rect x="56.5" y="221.5" width="39" height="39" rx="5.5" stroke="#F2F2F2"/>
<rect x="95.5" y="221.5" width="39" height="39" rx="5.5" stroke="#F1F1F1"/>
<rect x="134.5" y="260.5" width="39" height="39" rx="5.5" fill="#F7F7F7" stroke="#F2F2F2"/>
<rect x="173.5" y="221.5" width="39" height="39" rx="5.5" stroke="#F2F2F2"/>
<rect x="212.5" y="221.5" width="39" height="39" rx="5.5" stroke="#F1F1F1"/>
<rect x="212.5" y="260.5" width="39" height="39" rx="5.5" stroke="#F2F2F2"/>
<rect x="173.5" y="260.5" width="39" height="39" rx="5.5" stroke="#F1F1F1"/>
<rect x="1006.5" y="221.5" width="39" height="39" rx="5.5" fill="#F7F7F7" stroke="#F2F2F2"/>
<rect x="1006.5" y="260.5" width="39" height="39" rx="5.5" stroke="#F2F2F2"/>
<rect x="1045.5" y="221.5" width="39" height="39" rx="5.5" stroke="#F2F2F2"/>
<rect x="1084.5" y="221.5" width="39" height="39" rx="5.5" stroke="#F2F2F2"/>
<rect x="1084.5" y="260.5" width="39" height="39" rx="5.5" stroke="#F2F2F2"/>
<rect x="1045.5" y="260.5" width="39" height="39" rx="5.5" stroke="#F2F2F2"/>
<rect x="1123.5" y="221.5" width="39" height="39" rx="5.5" stroke="#F2F2F2"/>
<rect x="1162.5" y="221.5" width="39" height="39" rx="5.5" stroke="#F2F2F2"/>
<rect x="1162.5" y="260.5" width="39" height="39" rx="5.5" stroke="#F2F2F2"/>
<rect x="1123.5" y="260.5" width="39" height="39" rx="5.5" fill="#F7F7F7" stroke="#F2F2F2"/>
<rect x="561.5" y="78.5" width="39" height="39" rx="5.5" stroke="#F2F2F2"/>
<rect x="561.5" y="117.5" width="39" height="39" rx="5.5" fill="#F7F7F7" stroke="#F2F2F2"/>
<rect x="600.5" y="78.5" width="39" height="39" rx="5.5" stroke="#F2F2F2"/>
<rect x="639.5" y="78.5" width="39" height="39" rx="5.5" stroke="#F2F2F2"/>
<rect x="639.5" y="117.5" width="39" height="39" rx="5.5" stroke="#F2F2F2"/>
<rect x="600.5" y="117.5" width="39" height="39" rx="5.5" stroke="#F2F2F2"/>
<rect x="483.5" y="156.5" width="39" height="39" rx="5.5" stroke="#F2F2F2"/>
<rect x="522.5" y="156.5" width="39" height="39" rx="5.5" stroke="#F2F2F2"/>
<rect x="561.5" y="156.5" width="39" height="39" rx="5.5" stroke="#F2F2F2"/>
<rect x="561.5" y="195.5" width="39" height="39" rx="5.5" stroke="#F2F2F2"/>
<rect x="522.5" y="195.5" width="39" height="39" rx="5.5" stroke="#F2F2F2"/>
<rect x="640.5" y="156.5" width="39" height="39" rx="5.5" stroke="#F2F2F2"/>
<rect x="640.5" y="195.5" width="39" height="39" rx="5.5" stroke="#F2F2F2"/>
<rect x="679.5" y="156.5" width="39" height="39" rx="5.5" stroke="#F2F2F2"/>
<rect x="718.5" y="156.5" width="39" height="39" rx="5.5" stroke="#F2F2F2"/>
<rect x="718.5" y="195.5" width="39" height="39" rx="5.5" fill="#F7F7F7" stroke="#F2F2F2"/>
<rect x="679.5" y="195.5" width="39" height="39" rx="5.5" stroke="#F2F2F2"/>
<rect x="585.5" y="731.5" width="39" height="39" rx="5.5" transform="rotate(-180 585.5 731.5)" stroke="#F2F2F2"/>
<rect x="507.5" y="731.5" width="39" height="39" rx="5.5" transform="rotate(-180 507.5 731.5)" stroke="#F2F2F2"/>
<rect x="546.5" y="731.5" width="39" height="39" rx="5.5" transform="rotate(-180 546.5 731.5)" stroke="#F2F2F2"/>
<rect x="468.5" y="731.5" width="39" height="39" rx="5.5" transform="rotate(-180 468.5 731.5)" stroke="#F2F2F2"/>
<rect x="390.5" y="731.5" width="39" height="39" rx="5.5" transform="rotate(-180 390.5 731.5)" stroke="#F2F2F2"/>
<rect x="429.5" y="731.5" width="39" height="39" rx="5.5" transform="rotate(-180 429.5 731.5)" fill="#F7F7F7" stroke="#F2F2F2"/>
<rect x="273.5" y="692.5" width="39" height="39" rx="5.5" stroke="#F2F2F2"/>
<rect x="234.5" y="653.5" width="39" height="39" rx="5.5" stroke="#F2F2F2"/>
<rect x="273.5" y="653.5" width="39" height="39" rx="5.5" stroke="#F2F2F2"/>
<rect x="234.5" y="614.5" width="39" height="39" rx="5.5" stroke="#F2F2F2"/>
<rect x="351.5" y="731.5" width="39" height="39" rx="5.5" transform="rotate(-180 351.5 731.5)" stroke="#F2F2F2"/>
<rect x="741.5" y="731.5" width="39" height="39" rx="5.5" transform="rotate(-180 741.5 731.5)" stroke="#F2F2F2"/>
<rect x="663.5" y="731.5" width="39" height="39" rx="5.5" transform="rotate(-180 663.5 731.5)" stroke="#F2F2F2"/>
<rect x="702.5" y="731.5" width="39" height="39" rx="5.5" transform="rotate(-180 702.5 731.5)" stroke="#F1F1F1"/>
<rect x="624.5" y="731.5" width="39" height="39" rx="5.5" transform="rotate(-180 624.5 731.5)" fill="#F7F7F7" stroke="#F2F2F2"/>
<rect x="234.5" y="575.5" width="39" height="39" rx="5.5" fill="#F7F7F7" stroke="#F2F2F2"/>
<rect x="312.5" y="731.5" width="39" height="39" rx="5.5" stroke="#F2F2F2"/>
<rect x="741.5" y="692.5" width="39" height="39" rx="5.5" stroke="#F2F2F2"/>
<rect x="702.5" y="731.5" width="39" height="39" rx="5.5" stroke="#F2F2F2"/>
<rect x="780.5" y="692.5" width="39" height="39" rx="5.5" stroke="#F2F2F2"/>
<rect x="585.5" y="652.5" width="39" height="39" rx="5.5" transform="rotate(-180 585.5 652.5)" stroke="#F2F2F2"/>
<rect x="507.5" y="652.5" width="39" height="39" rx="5.5" transform="rotate(-180 507.5 652.5)" stroke="#F2F2F2"/>
<rect x="546.5" y="652.5" width="39" height="39" rx="5.5" transform="rotate(-180 546.5 652.5)" stroke="#F2F2F2"/>
<rect x="468.5" y="652.5" width="39" height="39" rx="5.5" transform="rotate(-180 468.5 652.5)" stroke="#F2F2F2"/>
<rect x="390.5" y="652.5" width="39" height="39" rx="5.5" transform="rotate(-180 390.5 652.5)" stroke="#F2F2F2"/>
<rect x="351.5" y="652.5" width="39" height="39" rx="5.5" transform="rotate(-180 351.5 652.5)" stroke="#F2F2F2"/>
<rect x="741.5" y="652.5" width="39" height="39" rx="5.5" transform="rotate(-180 741.5 652.5)" stroke="#F2F2F2"/>
<rect x="663.5" y="652.5" width="39" height="39" rx="5.5" transform="rotate(-180 663.5 652.5)" stroke="#F2F2F2"/>
<rect x="702.5" y="652.5" width="39" height="39" rx="5.5" transform="rotate(-180 702.5 652.5)" stroke="#F1F1F1"/>
<rect x="624.5" y="652.5" width="39" height="39" rx="5.5" transform="rotate(-180 624.5 652.5)" fill="#F7F7F7" stroke="#F2F2F2"/>
<rect x="741.5" y="613.5" width="39" height="39" rx="5.5" stroke="#F1F1F1"/>
<rect x="780.5" y="613.5" width="39" height="39" rx="5.5" stroke="#F2F2F2"/>
<rect x="273.5" y="574.5" width="39" height="39" rx="5.5" transform="rotate(-180 273.5 574.5)" stroke="#F2F2F2"/>
<rect x="195.5" y="574.5" width="39" height="39" rx="5.5" transform="rotate(-180 195.5 574.5)" stroke="#F2F2F2"/>
<rect x="234.5" y="574.5" width="39" height="39" rx="5.5" transform="rotate(-180 234.5 574.5)" stroke="#F2F2F2"/>
<rect x="156.5" y="574.5" width="39" height="39" rx="5.5" transform="rotate(-180 156.5 574.5)" stroke="#F2F2F2"/>
<rect x="78.5" y="574.5" width="39" height="39" rx="5.5" transform="rotate(-180 78.5 574.5)" stroke="#F2F2F2"/>
<rect x="39.5" y="574.5" width="39" height="39" rx="5.5" transform="rotate(-180 39.5 574.5)" stroke="#F2F2F2"/>
<rect x="429.5" y="574.5" width="39" height="39" rx="5.5" transform="rotate(-180 429.5 574.5)" stroke="#F2F2F2"/>
<rect x="351.5" y="574.5" width="39" height="39" rx="5.5" transform="rotate(-180 351.5 574.5)" stroke="#F2F2F2"/>
<rect x="390.5" y="574.5" width="39" height="39" rx="5.5" transform="rotate(-180 390.5 574.5)" stroke="#F2F2F2"/>
<rect x="312.5" y="574.5" width="39" height="39" rx="5.5" transform="rotate(-180 312.5 574.5)" fill="#F7F7F7" stroke="#F2F2F2"/>
<rect x="429.5" y="535.5" width="39" height="39" rx="5.5" stroke="#F2F2F2"/>
<rect x="468.5" y="535.5" width="39" height="39" rx="5.5" stroke="#F2F2F2"/>
<rect x="625.5" y="534.5" width="39" height="39" rx="5.5" transform="rotate(-180 625.5 534.5)" stroke="#F2F2F2"/>
<rect x="547.5" y="534.5" width="39" height="39" rx="5.5" transform="rotate(-180 547.5 534.5)" stroke="#F1F1F1"/>
<rect x="586.5" y="534.5" width="39" height="39" rx="5.5" transform="rotate(-180 586.5 534.5)" stroke="#F2F2F2"/>
<rect x="508.5" y="534.5" width="39" height="39" rx="5.5" transform="rotate(-180 508.5 534.5)" stroke="#F2F2F2"/>
<rect x="430.5" y="534.5" width="39" height="39" rx="5.5" transform="rotate(-180 430.5 534.5)" stroke="#F2F2F2"/>
<rect x="391.5" y="534.5" width="39" height="39" rx="5.5" transform="rotate(-180 391.5 534.5)" stroke="#F2F2F2"/>
<rect x="781.5" y="534.5" width="39" height="39" rx="5.5" transform="rotate(-180 781.5 534.5)" stroke="#F2F2F2"/>
<rect x="703.5" y="534.5" width="39" height="39" rx="5.5" transform="rotate(-180 703.5 534.5)" stroke="#F2F2F2"/>
<rect x="742.5" y="534.5" width="39" height="39" rx="5.5" transform="rotate(-180 742.5 534.5)" stroke="#F2F2F2"/>
<rect x="664.5" y="534.5" width="39" height="39" rx="5.5" transform="rotate(-180 664.5 534.5)" fill="#F7F7F7" stroke="#F2F2F2"/>
<rect x="781.5" y="495.5" width="39" height="39" rx="5.5" stroke="#F1F1F1"/>
<rect x="820.5" y="495.5" width="39" height="39" rx="5.5" stroke="#F2F2F2"/>
<rect x="898.5" y="574.5" width="39" height="39" rx="5.5" transform="rotate(-180 898.5 574.5)" stroke="#F2F2F2"/>
<rect x="820.5" y="574.5" width="39" height="39" rx="5.5" transform="rotate(-180 820.5 574.5)" stroke="#F2F2F2"/>
<rect x="859.5" y="574.5" width="39" height="39" rx="5.5" transform="rotate(-180 859.5 574.5)" stroke="#F2F2F2"/>
<rect x="781.5" y="574.5" width="39" height="39" rx="5.5" transform="rotate(-180 781.5 574.5)" stroke="#F2F2F2"/>
<rect x="703.5" y="574.5" width="39" height="39" rx="5.5" transform="rotate(-180 703.5 574.5)" stroke="#F1F1F1"/>
<rect x="664.5" y="574.5" width="39" height="39" rx="5.5" transform="rotate(-180 664.5 574.5)" stroke="#F2F2F2"/>
<rect x="1054.5" y="574.5" width="39" height="39" rx="5.5" transform="rotate(-180 1054.5 574.5)" stroke="#F2F2F2"/>
<rect x="976.5" y="574.5" width="39" height="39" rx="5.5" transform="rotate(-180 976.5 574.5)" stroke="#F2F2F2"/>
<rect x="1015.5" y="574.5" width="39" height="39" rx="5.5" transform="rotate(-180 1015.5 574.5)" stroke="#F1F1F1"/>
<rect x="937.5" y="574.5" width="39" height="39" rx="5.5" transform="rotate(-180 937.5 574.5)" fill="#F7F7F7" stroke="#F2F2F2"/>
<rect x="834.5" y="428.5" width="39" height="39" rx="5.5" transform="rotate(-180 834.5 428.5)" stroke="#F2F2F2"/>
<rect x="873.5" y="428.5" width="39" height="39" rx="5.5" transform="rotate(-180 873.5 428.5)" stroke="#F2F2F2"/>
<rect x="795.5" y="428.5" width="39" height="39" rx="5.5" transform="rotate(-180 795.5 428.5)" stroke="#F2F2F2"/>
<rect x="1068.5" y="428.5" width="39" height="39" rx="5.5" transform="rotate(-180 1068.5 428.5)" stroke="#F1F1F1"/>
<rect x="990.5" y="428.5" width="39" height="39" rx="5.5" transform="rotate(-180 990.5 428.5)" stroke="#F2F2F2"/>
<rect x="951.5" y="428.5" width="39" height="39" rx="5.5" transform="rotate(-180 951.5 428.5)" fill="#F7F7F7" stroke="#F2F2F2"/>
<rect x="561.5" y="349.5" width="39" height="39" rx="5.5" transform="rotate(-180 561.5 349.5)" stroke="#F2F2F2"/>
<rect x="600.5" y="349.5" width="39" height="39" rx="5.5" transform="rotate(-180 600.5 349.5)" stroke="#F2F2F2"/>
<rect x="522.5" y="349.5" width="39" height="39" rx="5.5" transform="rotate(-180 522.5 349.5)" stroke="#F2F2F2"/>
<rect x="795.5" y="349.5" width="39" height="39" rx="5.5" transform="rotate(-180 795.5 349.5)" stroke="#F2F2F2"/>
<rect x="717.5" y="349.5" width="39" height="39" rx="5.5" transform="rotate(-180 717.5 349.5)" stroke="#F2F2F2"/>
<rect x="678.5" y="349.5" width="39" height="39" rx="5.5" transform="rotate(-180 678.5 349.5)" fill="#F7F7F7" stroke="#F2F2F2"/>
<rect x="330.5" y="300.5" width="39" height="39" rx="5.5" transform="rotate(-180 330.5 300.5)" stroke="#F2F2F2"/>
<rect x="369.5" y="300.5" width="39" height="39" rx="5.5" transform="rotate(-180 369.5 300.5)" stroke="#F2F2F2"/>
<rect x="291.5" y="300.5" width="39" height="39" rx="5.5" transform="rotate(-180 291.5 300.5)" stroke="#F1F1F1"/>
<rect x="564.5" y="300.5" width="39" height="39" rx="5.5" transform="rotate(-180 564.5 300.5)" stroke="#F2F2F2"/>
<rect x="486.5" y="300.5" width="39" height="39" rx="5.5" transform="rotate(-180 486.5 300.5)" stroke="#F2F2F2"/>
<rect x="447.5" y="300.5" width="39" height="39" rx="5.5" transform="rotate(-180 447.5 300.5)" fill="#F7F7F7" stroke="#F2F2F2"/>
<rect x="1054.5" y="535.5" width="39" height="39" rx="5.5" stroke="#F2F2F2"/>
<rect x="1093.5" y="535.5" width="39" height="39" rx="5.5" stroke="#F2F2F2"/>
<rect x="741.5" y="653.5" width="39" height="39" rx="5.5" stroke="#F2F2F2"/>
<rect x="780.5" y="653.5" width="39" height="39" rx="5.5" stroke="#F2F2F2"/>
<rect x="780.5" y="614.5" width="39" height="39" rx="5.5" stroke="#F2F2F2"/>
<rect x="780.5" y="575.5" width="39" height="39" rx="5.5" stroke="#F2F2F2"/>
<rect x="780.5" y="731.5" width="39" height="39" rx="5.5" fill="#F7F7F7" stroke="#F2F2F2"/>
<rect x="741.5" y="731.5" width="39" height="39" rx="5.5" stroke="#F2F2F2"/>
<path d="M678.5 44C678.5 43.7239 678.276 43.5 678 43.5C677.724 43.5 677.5 43.7239 677.5 44H678.5ZM618 118.5H632.592V117.5H618V118.5ZM639.5 111.592V85.8284H638.5V111.592H639.5ZM645.828 79.5H671.172V78.5H645.828V79.5ZM678.5 72.1716V44H677.5V72.1716H678.5ZM676.354 77.3536C677.728 75.9792 678.5 74.1152 678.5 72.1716H677.5C677.5 73.85 676.833 75.4596 675.646 76.6464L676.354 77.3536ZM671.172 79.5C673.115 79.5 674.979 78.7279 676.354 77.3536L675.646 76.6464C674.46 77.8333 672.85 78.5 671.172 78.5V79.5ZM641.354 81.3536C642.54 80.1667 644.15 79.5 645.828 79.5V78.5C643.885 78.5 642.021 79.2721 640.646 80.6464L641.354 81.3536ZM639.5 85.8284C639.5 84.15 640.167 82.5404 641.354 81.3536L640.646 80.6464C639.272 82.0208 638.5 83.8848 638.5 85.8284H639.5ZM637.141 116.791C638.64 115.479 639.5 113.584 639.5 111.592H638.5C638.5 113.296 637.765 114.917 636.483 116.038L637.141 116.791ZM632.592 118.5C634.266 118.5 635.882 117.893 637.141 116.791L636.483 116.038C635.406 116.981 634.023 117.5 632.592 117.5V118.5Z" fill="url(#paint0_linear_116_1195)"/>
<path d="M448 40.5H478.481C479.454 40.5 480.386 40.1136 481.074 39.4259V39.4259C482.439 38.0608 484.629 37.9879 486.082 39.2592L486.354 39.4971C487.093 40.1436 488.041 40.5 489.023 40.5H517.558C518.473 40.5 519.343 40.1 519.939 39.4051V39.4051C521.074 38.0808 523.071 37.9374 524.384 39.0859L524.916 39.5512C525.615 40.1628 526.512 40.5 527.441 40.5H555.525C557.11 40.5 558.629 39.8705 559.75 38.75V38.75C560.871 37.6295 561.5 36.1098 561.5 34.5251V7.97487C561.5 6.39024 560.871 4.87051 559.75 3.75V3.75C558.629 2.62949 557.11 2 555.525 2H526" stroke="url(#paint1_linear_116_1195)"/>
<path d="M56.5 295V265.511C56.5 264.551 56.9144 263.637 57.6368 263.005V263.005C59.1526 261.679 59.1526 259.321 57.6368 257.995V257.995C56.9144 257.363 56.5 256.449 56.5 255.489V228.328C56.5 226.517 57.2194 224.781 58.5 223.5V223.5C59.7806 222.219 61.5174 221.5 63.3284 221.5H90.6103C91.5071 221.5 92.3743 221.821 93.0551 222.404V222.404C94.462 223.61 96.538 223.61 97.9449 222.404V222.404C98.6257 221.821 99.4929 221.5 100.39 221.5H128.945C130.271 221.5 131.553 221.974 132.56 222.837V222.837C133.791 223.893 134.5 225.433 134.5 227.055V254.525C134.5 256.11 133.871 257.629 132.75 258.75V258.75C131.629 259.871 130.11 260.5 128.525 260.5H101.596C100.561 260.5 99.5568 260.155 98.7405 259.52L97.1717 258.3C96.2167 257.557 94.858 257.642 94.0025 258.498V258.498C92.9542 259.546 93.0981 261.284 94.3044 262.146L94.4374 262.241C95.1042 262.717 95.5 263.486 95.5 264.306V292.65C95.5 294.173 96.0078 295.653 96.943 296.855V296.855C98.2409 298.524 100.236 299.5 102.35 299.5H129.419C130.431 299.5 131.402 299.098 132.118 298.382V298.382C133.479 297.021 135.64 296.887 137.159 298.068L137.741 298.52C138.557 299.155 139.561 299.5 140.596 299.5H166.198C167.696 299.5 169.158 299.039 170.386 298.18V298.18C172.337 296.814 173.5 294.581 173.5 292.198V265.39C173.5 264.493 173.179 263.626 172.596 262.945V262.945C171.39 261.538 171.39 259.462 172.596 258.055V258.055C173.179 257.374 173.5 256.507 173.5 255.61V227.055C173.5 225.433 174.209 223.893 175.44 222.837V222.837C176.447 221.974 177.729 221.5 179.055 221.5H202.5" stroke="url(#paint2_linear_116_1195)"/>
<path d="M815.5 731.5H785.955C785.016 731.5 784.108 731.164 783.395 730.553V730.553C781.996 729.354 779.951 729.287 778.476 730.393L778.174 730.619C777.412 731.191 776.485 731.5 775.532 731.5H747.512C746.536 731.5 745.593 731.151 744.852 730.516L744.073 729.848C743.143 729.051 741.796 728.97 740.776 729.649L740.635 729.743C739.272 730.652 739.081 732.581 740.24 733.74V733.74C740.726 734.226 741 734.887 741 735.575V764.5C741 765.798 740.579 767.061 739.8 768.1V768.1C738.667 769.611 736.889 770.5 735 770.5H709.76C707.982 770.5 706.266 769.847 704.937 768.666V768.666C703.387 767.288 702.5 765.313 702.5 763.24V735.922C702.5 735.034 702.944 734.204 703.683 733.711V733.711C705.261 732.659 705.261 730.341 703.683 729.289V729.289C702.944 728.796 702.5 727.966 702.5 727.078V699.35C702.5 697.236 703.476 695.241 705.145 693.943V693.943C706.347 693.008 707.827 692.5 709.35 692.5H736.448C737.433 692.5 738.369 692.93 739.01 693.678V693.678C740.139 694.996 742.084 695.241 743.505 694.246L744.71 693.403C745.55 692.815 746.55 692.5 747.575 692.5H773.24C774.716 692.5 776.161 692.079 777.406 691.287V691.287C779.645 689.863 781 687.393 781 684.74V659.975C781 658.39 781.629 656.871 782.75 655.75V655.75C783.871 654.629 785.39 654 786.975 654H812.24C814.313 654 816.288 653.113 817.666 651.563V651.563C818.847 650.234 819.5 648.518 819.5 646.74V619.575C819.5 618.584 819.033 617.65 818.24 617.055V617.055C816.765 615.949 816.55 613.818 817.775 612.44L818.463 611.666C819.131 610.915 819.5 609.945 819.5 608.94V579" stroke="url(#paint3_linear_116_1195)"/>
<path d="M273.5 579.5V608.525C273.5 610.11 272.871 611.629 271.75 612.75V612.75C270.629 613.871 269.11 614.5 267.525 614.5H240.121C238.763 614.5 237.46 615.04 236.5 616V616C235.54 616.96 235 618.263 235 619.621V647C235 648.298 235.421 649.561 236.2 650.6V650.6C237.333 652.111 239.111 653 241 653H267.092C268.94 653 270.698 653.798 271.915 655.188V655.188C272.937 656.356 273.5 657.855 273.5 659.408V686.092C273.5 687.94 274.298 689.698 275.688 690.915V690.915C276.856 691.937 278.355 692.5 279.908 692.5H305.592C307.145 692.5 308.644 693.063 309.812 694.085V694.085C311.202 695.302 312 697.06 312 698.908V723.798C312 726.138 313.064 728.351 314.89 729.812V729.812C316.256 730.905 317.953 731.5 319.702 731.5H344.119C345.337 731.5 346.518 731.086 347.469 730.325L347.759 730.093C349.631 728.595 352.31 728.665 354.102 730.257V730.257C355.002 731.058 356.166 731.5 357.371 731.5H383.672C385.483 731.5 387.219 730.781 388.5 729.5V729.5C389.781 728.219 390.5 726.483 390.5 724.672V698.908C390.5 697.06 391.298 695.302 392.688 694.085V694.085C393.856 693.063 395.355 692.5 396.908 692.5H424.55C425.479 692.5 426.369 692.869 427.025 693.525V693.525C428.392 694.892 430.608 694.892 431.975 693.525V693.525C432.631 692.869 433.521 692.5 434.45 692.5H463.059C463.988 692.5 464.885 692.837 465.584 693.449L466.116 693.914C467.429 695.063 469.426 694.919 470.561 693.595V693.595C471.157 692.9 472.027 692.5 472.942 692.5H501.025C502.61 692.5 504.129 693.129 505.25 694.25V694.25C506.371 695.371 507 696.89 507 698.475V724.672C507 726.483 507.719 728.219 509 729.5V729.5C510.281 730.781 512.017 731.5 513.828 731.5H541" stroke="url(#paint4_linear_116_1195)"/>
<path d="M1050 261H1076.25C1077.72 261 1079.15 260.565 1080.37 259.751V259.751C1082.87 258.085 1086.13 258.085 1088.63 259.751V259.751C1089.85 260.565 1091.28 261 1092.75 261H1120" stroke="url(#paint5_linear_116_1195)"/>
<path d="M249.5 76V47.3284C249.5 45.5174 250.219 43.7806 251.5 42.5V42.5C252.781 41.2194 254.517 40.5 256.328 40.5H281.674C282.862 40.5 284.022 40.1343 284.996 39.4526L285.312 39.2319C287.207 37.9051 289.746 37.969 291.572 39.3894V39.3894C292.498 40.1092 293.637 40.5 294.809 40.5H320.633C321.843 40.5 323.018 40.0967 323.974 39.3539V39.3539C325.788 37.9423 328.295 37.824 330.235 39.0585L330.892 39.4766C331.942 40.145 333.161 40.5 334.406 40.5H361" stroke="url(#paint6_linear_116_1195)"/>
<path d="M646 390H673.607C674.513 390 675.396 390.283 676.134 390.81V390.81C677.566 391.833 679.473 391.892 680.966 390.959L681.299 390.75C682.084 390.26 682.991 390 683.916 390H710.844C711.933 390 713.007 390.254 713.981 390.741L714.708 391.104C716.442 391.971 718.503 391.873 720.147 390.846V390.846C721.031 390.293 722.053 390 723.096 390H750.525C752.11 390 753.629 389.371 754.75 388.25V388.25C755.871 387.129 756.5 385.61 756.5 384.025V356.908C756.5 355.06 757.298 353.302 758.688 352.085V352.085C759.856 351.063 761.355 350.5 762.908 350.5H776" stroke="url(#paint7_linear_116_1195)"/>
</g>
<defs>
<linearGradient id="paint0_linear_116_1195" x1="682.5" y1="40.5" x2="618.5" y2="118.5" gradientUnits="userSpaceOnUse">
<stop stop-color="#F5F5F5"/>
<stop offset="0.177083" stop-color="#AD00FF" stop-opacity="0.846704"/>
<stop offset="0.348958" stop-color="#561AFE" stop-opacity="0.697917"/>
<stop offset="0.567708" stop-color="#FF046E" stop-opacity="0.63"/>
<stop offset="0.807292" stop-color="#FF003D" stop-opacity="0.54"/>
<stop offset="1" stop-color="#FF0CAC" stop-opacity="0"/>
</linearGradient>
<linearGradient id="paint1_linear_116_1195" x1="570.012" y1="0.179054" x2="555.432" y2="64.7906" gradientUnits="userSpaceOnUse">
<stop stop-color="#F5F5F5"/>
<stop offset="0.177083" stop-color="#AD00FF" stop-opacity="0.846704"/>
<stop offset="0.348958" stop-color="#561AFE" stop-opacity="0.697917"/>
<stop offset="0.567708" stop-color="#FF046E" stop-opacity="0.63"/>
<stop offset="0.807292" stop-color="#FF003D" stop-opacity="0.54"/>
<stop offset="1" stop-color="#FF0CAC" stop-opacity="0"/>
</linearGradient>
<linearGradient id="paint2_linear_116_1195" x1="213.45" y1="217.811" x2="170.039" y2="339.949" gradientUnits="userSpaceOnUse">
<stop stop-color="#F5F5F5"/>
<stop offset="0.177083" stop-color="#AD00FF" stop-opacity="0.846704"/>
<stop offset="0.348958" stop-color="#561AFE" stop-opacity="0.697917"/>
<stop offset="0.567708" stop-color="#FF046E" stop-opacity="0.63"/>
<stop offset="0.807292" stop-color="#FF003D" stop-opacity="0.54"/>
<stop offset="1" stop-color="#FF0CAC" stop-opacity="0"/>
</linearGradient>
<linearGradient id="paint3_linear_116_1195" x1="828.275" y1="569.943" x2="660.013" y2="724.468" gradientUnits="userSpaceOnUse">
<stop stop-color="#F5F5F5"/>
<stop offset="0.177083" stop-color="#AD00FF" stop-opacity="0.846704"/>
<stop offset="0.348958" stop-color="#561AFE" stop-opacity="0.697917"/>
<stop offset="0.567708" stop-color="#FF046E" stop-opacity="0.63"/>
<stop offset="0.807292" stop-color="#FF003D" stop-opacity="0.54"/>
<stop offset="1" stop-color="#FF0CAC" stop-opacity="0"/>
</linearGradient>
<linearGradient id="paint4_linear_116_1195" x1="563.95" y1="572.311" x2="484.081" y2="813.997" gradientUnits="userSpaceOnUse">
<stop stop-color="#F5F5F5"/>
<stop offset="0.177083" stop-color="#AD00FF" stop-opacity="0.846704"/>
<stop offset="0.348958" stop-color="#561AFE" stop-opacity="0.697917"/>
<stop offset="0.567708" stop-color="#FF046E" stop-opacity="0.63"/>
<stop offset="0.807292" stop-color="#FF003D" stop-opacity="0.54"/>
<stop offset="1" stop-color="#FF0CAC" stop-opacity="0"/>
</linearGradient>
<linearGradient id="paint5_linear_116_1195" x1="1125.25" y1="256.811" x2="1124.98" y2="263.855" gradientUnits="userSpaceOnUse">
<stop stop-color="#F5F5F5"/>
<stop offset="0.177083" stop-color="#AD00FF" stop-opacity="0.846704"/>
<stop offset="0.348958" stop-color="#561AFE" stop-opacity="0.697917"/>
<stop offset="0.567708" stop-color="#FF046E" stop-opacity="0.63"/>
<stop offset="0.807292" stop-color="#FF003D" stop-opacity="0.54"/>
<stop offset="1" stop-color="#FF0CAC" stop-opacity="0"/>
</linearGradient>
<linearGradient id="paint6_linear_116_1195" x1="369.362" y1="35.1554" x2="354.179" y2="100.406" gradientUnits="userSpaceOnUse">
<stop stop-color="#F5F5F5"/>
<stop offset="0.177083" stop-color="#AD00FF" stop-opacity="0.846704"/>
<stop offset="0.348958" stop-color="#561AFE" stop-opacity="0.697917"/>
<stop offset="0.567708" stop-color="#FF046E" stop-opacity="0.63"/>
<stop offset="0.807292" stop-color="#FF003D" stop-opacity="0.54"/>
<stop offset="1" stop-color="#FF0CAC" stop-opacity="0"/>
</linearGradient>
<linearGradient id="paint7_linear_116_1195" x1="765.275" y1="386.216" x2="764.914" y2="396.786" gradientUnits="userSpaceOnUse">
<stop stop-color="#F5F5F5"/>
<stop offset="0.177083" stop-color="#AD00FF" stop-opacity="0.846704"/>
<stop offset="0.348958" stop-color="#561AFE" stop-opacity="0.697917"/>
<stop offset="0.567708" stop-color="#FF046E" stop-opacity="0.63"/>
<stop offset="0.807292" stop-color="#FF003D" stop-opacity="0.54"/>
<stop offset="1" stop-color="#FF0CAC" stop-opacity="0"/>
</linearGradient>
</defs>
</svg>
