<svg width="235" height="96" viewBox="0 0 235 96" fill="none" xmlns="http://www.w3.org/2000/svg">
<path d="M9.408 20.64H8.832C8.096 20.64 7.36 20.56 6.624 20.4C5.888 20.24 5.2 19.952 4.56 19.536C3.952 19.088 3.456 18.496 3.072 17.76C2.688 16.992 2.496 16.032 2.496 14.88V6.912C2.496 5.76 2.688 4.816 3.072 4.08C3.456 3.312 3.952 2.72 4.56 2.304C5.2 1.856 5.888 1.552 6.624 1.392C7.36 1.232 8.096 1.152 8.832 1.152H9.408V20.64ZM2.16 31.392C2.16 30.4 2.352 29.6 2.736 28.992C3.12 28.352 3.584 27.856 4.128 27.504C4.672 27.152 5.248 26.928 5.856 26.832C6.464 26.704 6.992 26.64 7.44 26.64C7.824 26.64 8.144 26.672 8.4 26.736V29.136C8.4 30.32 8.864 30.912 9.792 30.912C10.08 30.912 10.32 30.864 10.512 30.768C10.704 30.672 10.912 30.528 11.136 30.336C11.232 30.592 11.28 30.912 11.28 31.296C11.312 31.68 11.328 31.984 11.328 32.208C11.328 32.592 11.264 33.008 11.136 33.456C11.008 33.904 10.784 34.32 10.464 34.704C10.176 35.056 9.76 35.36 9.216 35.616C8.672 35.872 7.984 36 7.152 36C6.288 36 5.536 35.856 4.896 35.568C4.288 35.28 3.776 34.928 3.36 34.512C2.976 34.064 2.672 33.568 2.448 33.024C2.256 32.48 2.16 31.936 2.16 31.392ZM12.096 16.56H12.672C13.376 16.56 14.096 16.64 14.832 16.8C15.6 16.96 16.288 17.264 16.896 17.712C17.536 18.128 18.048 18.72 18.432 19.488C18.816 20.224 19.008 21.168 19.008 22.32V30.288C19.008 31.44 18.816 32.4 18.432 33.168C18.048 33.904 17.536 34.496 16.896 34.944C16.288 35.36 15.6 35.648 14.832 35.808C14.096 35.968 13.376 36.048 12.672 36.048H12.096V16.56ZM19.248 5.76C19.248 6.784 19.056 7.6 18.672 8.208C18.288 8.816 17.824 9.296 17.28 9.648C16.736 10 16.16 10.24 15.552 10.368C14.944 10.464 14.416 10.512 13.968 10.512C13.584 10.512 13.264 10.48 13.008 10.416V8.016C13.008 6.832 12.544 6.24 11.616 6.24C11.328 6.24 11.088 6.288 10.896 6.384C10.704 6.48 10.496 6.624 10.272 6.816C10.176 6.56 10.112 6.24 10.08 5.856C10.08 5.472 10.08 5.168 10.08 4.944C10.08 4.56 10.144 4.144 10.272 3.696C10.4 3.248 10.608 2.848 10.896 2.496C11.216 2.112 11.648 1.792 12.192 1.536C12.736 1.28 13.424 1.152 14.256 1.152C15.12 1.152 15.856 1.296 16.464 1.584C17.104 1.872 17.616 2.24 18 2.688C18.416 3.104 18.72 3.6 18.912 4.176C19.136 4.72 19.248 5.248 19.248 5.76ZM30.0139 36H29.5339C28.7979 36 28.0779 35.92 27.3739 35.76C26.6699 35.568 26.0299 35.264 25.4539 34.848C24.9099 34.4 24.4619 33.824 24.1099 33.12C23.7579 32.416 23.5819 31.552 23.5819 30.528V17.616C23.5819 15.856 23.9979 14.416 24.8299 13.296C25.6939 12.176 27.0859 11.616 29.0059 11.616C30.2859 11.616 31.3419 11.952 32.1739 12.624C33.0059 13.264 33.4219 14.304 33.4219 15.744C33.4219 16.224 33.3579 16.576 33.2299 16.8C32.7819 16.416 32.3019 16.224 31.7899 16.224C31.0859 16.224 30.6059 16.464 30.3499 16.944C30.1259 17.424 30.0139 17.936 30.0139 18.48V36ZM34.2859 11.664C34.4459 11.632 34.6059 11.616 34.7659 11.616H35.2459C36.9739 11.616 38.3179 12.064 39.2779 12.96C40.2379 13.824 40.7179 15.072 40.7179 16.704V19.344C40.7179 21.52 40.1739 23.136 39.0859 24.192C37.9979 25.248 36.6699 25.776 35.1019 25.776H34.7659C33.5499 25.712 32.5579 25.312 31.7899 24.576C31.0539 23.808 30.6859 22.896 30.6859 21.84C30.6859 21.68 30.6859 21.536 30.6859 21.408C30.7179 21.28 30.7819 21.088 30.8779 20.832C31.1339 21.088 31.3579 21.28 31.5499 21.408C31.7419 21.536 32.0619 21.6 32.5099 21.6C33.2459 21.6 33.7259 21.344 33.9499 20.832C34.1739 20.288 34.2859 19.664 34.2859 18.96V11.664ZM40.5259 31.344C40.5259 32.24 40.3659 32.992 40.0459 33.6C39.7579 34.176 39.3739 34.656 38.8939 35.04C38.4139 35.392 37.8859 35.648 37.3099 35.808C36.7339 35.936 36.1739 36 35.6299 36C33.9979 36 32.8459 35.6 32.1739 34.8C31.5019 34 31.1659 33.104 31.1659 32.112C31.1659 31.952 31.1659 31.76 31.1659 31.536C31.1979 31.312 31.2779 31.072 31.4059 30.816C31.8219 31.2 32.3019 31.392 32.8459 31.392C33.6139 31.328 34.0619 31.072 34.1899 30.624C34.3179 30.176 34.3819 29.616 34.3819 28.944V27.168C34.8619 27.04 35.4379 26.976 36.1099 26.976C36.9419 26.976 37.6299 27.104 38.1739 27.36C38.7499 27.616 39.2139 27.952 39.5659 28.368C39.9179 28.784 40.1579 29.264 40.2859 29.808C40.4459 30.32 40.5259 30.832 40.5259 31.344ZM55.7603 11.616C56.4643 11.616 57.2003 11.712 57.9683 11.904C58.7363 12.096 59.4243 12.416 60.0323 12.864C60.6723 13.312 61.1843 13.904 61.5683 14.64C61.9843 15.344 62.1923 16.224 62.1923 17.28V30.144C62.1923 31.968 61.7123 33.408 60.7523 34.464C59.7923 35.488 58.4003 36 56.5763 36C55.9683 36 55.3763 35.92 54.8003 35.76C54.2563 35.568 53.7603 35.328 53.3123 35.04C52.8963 34.72 52.5603 34.352 52.3043 33.936C52.0483 33.488 51.9203 33.008 51.9203 32.496C51.9203 32.304 51.9203 32.064 51.9203 31.776C51.9523 31.488 52.0163 31.216 52.1123 30.96C52.5603 31.376 53.1523 31.584 53.8883 31.584C54.7203 31.584 55.2323 31.28 55.4243 30.672C55.6483 30.032 55.7603 29.312 55.7603 28.512V11.616ZM44.8163 17.28C44.8163 15.456 45.3283 14.048 46.3523 13.056C47.3763 12.064 48.8483 11.568 50.7683 11.568C52.0163 11.568 53.0403 11.92 53.8403 12.624C54.6403 13.328 55.0403 14.16 55.0403 15.12C55.0403 15.408 55.0243 15.696 54.9922 15.984C54.9922 16.24 54.9283 16.496 54.8003 16.752C54.3523 16.336 53.8723 16.128 53.3603 16.128C52.8803 16.128 52.4963 16.224 52.2083 16.416C51.9523 16.576 51.7443 16.8 51.5843 17.088C51.4563 17.344 51.3603 17.648 51.2963 18C51.2643 18.352 51.2483 18.72 51.2483 19.104V47.952C50.5123 47.952 49.7603 47.856 48.9922 47.664C48.2563 47.504 47.5683 47.2 46.9283 46.752C46.3203 46.336 45.8083 45.76 45.3923 45.024C45.0083 44.32 44.8163 43.408 44.8163 42.288V17.28ZM72.9514 28.656C72.9514 28.976 72.9514 29.312 72.9514 29.664C72.9834 30.016 73.0474 30.336 73.1434 30.624C73.2714 30.912 73.4474 31.152 73.6714 31.344C73.8954 31.536 74.2154 31.632 74.6314 31.632C75.1434 31.632 75.5274 31.504 75.7834 31.248C76.0714 30.96 76.2794 30.72 76.4074 30.528C76.4714 30.72 76.5194 31.008 76.5514 31.392C76.6154 31.776 76.6474 32.096 76.6474 32.352C76.6474 33.568 76.2314 34.48 75.3994 35.088C74.5994 35.696 73.5274 36 72.1834 36C70.4234 36 69.0314 35.456 68.0074 34.368C67.0154 33.28 66.5194 31.488 66.5194 28.992V6.96C66.5194 6.16 66.6154 5.408 66.8074 4.704C67.0314 4 67.3674 3.392 67.8154 2.88C68.2634 2.336 68.8394 1.92 69.5434 1.632C70.2794 1.312 71.1594 1.152 72.1834 1.152C72.3114 1.152 72.4394 1.168 72.5674 1.2C72.6954 1.2 72.8234 1.2 72.9514 1.2V28.656ZM73.7674 11.856H73.8634C73.9274 11.856 74.0714 11.856 74.2954 11.856C74.5194 11.824 74.8714 11.808 75.3514 11.808H77.5114C77.5434 11.904 77.5594 12.144 77.5594 12.528C77.5594 13.744 77.2714 14.704 76.6954 15.408C76.1194 16.08 75.1434 16.416 73.7674 16.416V11.856ZM86.7795 36H86.2995C85.5635 36 84.8435 35.92 84.1395 35.76C83.4355 35.568 82.7955 35.264 82.2195 34.848C81.6755 34.4 81.2275 33.824 80.8755 33.12C80.5235 32.416 80.3475 31.552 80.3475 30.528V17.616C80.3475 15.856 80.7635 14.416 81.5955 13.296C82.4595 12.176 83.8515 11.616 85.7715 11.616C87.0515 11.616 88.1075 11.952 88.9395 12.624C89.7715 13.264 90.1875 14.304 90.1875 15.744C90.1875 16.224 90.1235 16.576 89.9955 16.8C89.5475 16.416 89.0675 16.224 88.5555 16.224C87.8515 16.224 87.3715 16.464 87.1155 16.944C86.8915 17.424 86.7795 17.936 86.7795 18.48V36ZM91.0515 11.664C91.2115 11.632 91.3715 11.616 91.5315 11.616H92.0115C93.7395 11.616 95.0835 12.064 96.0435 12.96C97.0035 13.824 97.4835 15.072 97.4835 16.704V19.344C97.4835 21.52 96.9395 23.136 95.8515 24.192C94.7635 25.248 93.4355 25.776 91.8675 25.776H91.5315C90.3155 25.712 89.3235 25.312 88.5555 24.576C87.8195 23.808 87.4515 22.896 87.4515 21.84C87.4515 21.68 87.4515 21.536 87.4515 21.408C87.4835 21.28 87.5475 21.088 87.6435 20.832C87.8995 21.088 88.1235 21.28 88.3155 21.408C88.5075 21.536 88.8275 21.6 89.2755 21.6C90.0115 21.6 90.4915 21.344 90.7155 20.832C90.9395 20.288 91.0515 19.664 91.0515 18.96V11.664ZM97.2915 31.344C97.2915 32.24 97.1315 32.992 96.8115 33.6C96.5235 34.176 96.1395 34.656 95.6595 35.04C95.1795 35.392 94.6515 35.648 94.0755 35.808C93.4995 35.936 92.9395 36 92.3955 36C90.7635 36 89.6115 35.6 88.9395 34.8C88.2675 34 87.9315 33.104 87.9315 32.112C87.9315 31.952 87.9315 31.76 87.9315 31.536C87.9635 31.312 88.0435 31.072 88.1715 30.816C88.5875 31.2 89.0675 31.392 89.6115 31.392C90.3795 31.328 90.8275 31.072 90.9555 30.624C91.0835 30.176 91.1475 29.616 91.1475 28.944V27.168C91.6275 27.04 92.2035 26.976 92.8755 26.976C93.7075 26.976 94.3955 27.104 94.9395 27.36C95.5155 27.616 95.9795 27.952 96.3315 28.368C96.6835 28.784 96.9235 29.264 97.0515 29.808C97.2115 30.32 97.2915 30.832 97.2915 31.344ZM112.526 19.104C112.526 18.72 112.494 18.352 112.43 18C112.398 17.648 112.302 17.344 112.142 17.088C112.014 16.8 111.806 16.576 111.518 16.416C111.262 16.224 110.894 16.128 110.414 16.128C110.158 16.128 109.886 16.176 109.598 16.272C109.342 16.336 109.102 16.464 108.878 16.656C108.782 16.464 108.718 16.288 108.686 16.128C108.686 15.936 108.686 15.76 108.686 15.6V15.168C108.686 14.144 109.134 13.296 110.03 12.624C110.926 11.952 112.094 11.616 113.534 11.616C115.262 11.616 116.59 12.144 117.518 13.2C118.478 14.224 118.958 15.744 118.958 17.76V36H118.67C116.75 36 115.246 35.552 114.158 34.656C113.07 33.728 112.526 32.256 112.526 30.24V19.104ZM101.582 11.616H102.11C103.774 11.616 105.166 12.064 106.286 12.96C107.438 13.856 108.014 15.28 108.014 17.232V36H107.726C106.99 36 106.254 35.904 105.518 35.712C104.814 35.52 104.158 35.216 103.55 34.8C102.974 34.352 102.494 33.792 102.11 33.12C101.758 32.416 101.582 31.552 101.582 30.528V11.616ZM123.47 19.104C123.47 18.72 123.438 18.352 123.374 18C123.342 17.648 123.246 17.344 123.086 17.088C122.958 16.8 122.75 16.576 122.462 16.416C122.206 16.224 121.838 16.128 121.358 16.128C121.102 16.128 120.83 16.176 120.542 16.272C120.286 16.336 120.046 16.464 119.822 16.656C119.694 16.4 119.63 16.112 119.63 15.792C119.63 14.672 120.014 13.696 120.782 12.864C121.55 12.032 122.702 11.616 124.238 11.616C126.062 11.616 127.454 12.144 128.414 13.2C129.406 14.224 129.902 15.744 129.902 17.76V36H129.614C127.694 36 126.19 35.552 125.102 34.656C124.014 33.728 123.47 32.256 123.47 30.24V19.104ZM140.639 36H140.111C139.279 36 138.495 35.872 137.759 35.616C137.055 35.36 136.431 35.008 135.887 34.56C135.375 34.112 134.959 33.568 134.639 32.928C134.351 32.288 134.207 31.584 134.207 30.816V7.2C134.207 6.016 134.351 5.04 134.639 4.272C134.959 3.472 135.375 2.848 135.887 2.4C136.431 1.952 137.055 1.632 137.759 1.44C138.463 1.248 139.231 1.152 140.063 1.152H140.639V36ZM151.583 29.664C151.583 31.872 151.071 33.488 150.047 34.512C149.023 35.504 147.551 36 145.631 36C144.415 36 143.375 35.664 142.511 34.992C141.647 34.32 141.215 33.472 141.215 32.448C141.215 31.904 141.327 31.408 141.551 30.96C141.967 31.312 142.463 31.488 143.039 31.488C143.679 31.488 144.191 31.232 144.575 30.72C144.959 30.208 145.151 29.424 145.151 28.368V18.72C145.151 18.016 145.007 17.424 144.719 16.944C144.463 16.464 143.967 16.192 143.231 16.128H143.039C142.463 16.128 141.951 16.304 141.503 16.656C141.375 16.4 141.295 16.16 141.263 15.936C141.231 15.68 141.215 15.424 141.215 15.168C141.215 14.144 141.647 13.296 142.511 12.624C143.375 11.952 144.415 11.616 145.631 11.616C147.551 11.616 149.023 12.112 150.047 13.104C151.071 14.096 151.583 15.36 151.583 16.896V29.664ZM162.342 36H161.862C161.126 36 160.406 35.92 159.702 35.76C158.998 35.568 158.358 35.264 157.782 34.848C157.238 34.4 156.79 33.824 156.438 33.12C156.086 32.416 155.91 31.552 155.91 30.528V17.616C155.91 15.856 156.326 14.416 157.158 13.296C158.022 12.176 159.414 11.616 161.334 11.616C162.614 11.616 163.67 11.952 164.502 12.624C165.334 13.264 165.75 14.304 165.75 15.744C165.75 16.224 165.686 16.576 165.558 16.8C165.11 16.416 164.63 16.224 164.118 16.224C163.414 16.224 162.934 16.464 162.678 16.944C162.454 17.424 162.342 17.936 162.342 18.48V36ZM166.614 11.664C166.774 11.632 166.934 11.616 167.094 11.616H167.574C169.302 11.616 170.646 12.064 171.606 12.96C172.566 13.824 173.046 15.072 173.046 16.704V19.344C173.046 21.52 172.502 23.136 171.414 24.192C170.326 25.248 168.998 25.776 167.43 25.776H167.094C165.878 25.712 164.886 25.312 164.118 24.576C163.382 23.808 163.014 22.896 163.014 21.84C163.014 21.68 163.014 21.536 163.014 21.408C163.046 21.28 163.11 21.088 163.206 20.832C163.462 21.088 163.686 21.28 163.878 21.408C164.07 21.536 164.39 21.6 164.838 21.6C165.574 21.6 166.054 21.344 166.278 20.832C166.502 20.288 166.614 19.664 166.614 18.96V11.664ZM172.854 31.344C172.854 32.24 172.694 32.992 172.374 33.6C172.086 34.176 171.702 34.656 171.222 35.04C170.742 35.392 170.214 35.648 169.638 35.808C169.062 35.936 168.502 36 167.958 36C166.326 36 165.174 35.6 164.502 34.8C163.83 34 163.494 33.104 163.494 32.112C163.494 31.952 163.494 31.76 163.494 31.536C163.526 31.312 163.606 31.072 163.734 30.816C164.15 31.2 164.63 31.392 165.174 31.392C165.942 31.328 166.39 31.072 166.518 30.624C166.646 30.176 166.71 29.616 166.71 28.944V27.168C167.19 27.04 167.766 26.976 168.438 26.976C169.27 26.976 169.958 27.104 170.502 27.36C171.078 27.616 171.542 27.952 171.894 28.368C172.246 28.784 172.486 29.264 172.614 29.808C172.774 30.32 172.854 30.832 172.854 31.344ZM177.144 11.616H177.672C179.336 11.616 180.728 12.064 181.848 12.96C183 13.856 183.576 15.28 183.576 17.232V36H183.288C182.552 36 181.816 35.904 181.08 35.712C180.376 35.52 179.72 35.216 179.112 34.8C178.536 34.352 178.056 33.792 177.672 33.12C177.32 32.416 177.144 31.552 177.144 30.528V11.616ZM193.032 15.84C193.032 16.736 192.856 17.456 192.504 18C192.152 18.544 191.72 18.976 191.208 19.296C190.728 19.584 190.2 19.776 189.624 19.872C189.048 19.968 188.552 20.016 188.136 20.016C187.688 20.016 187.304 19.984 186.984 19.92V18.192C186.984 17.456 186.856 16.992 186.6 16.8C186.376 16.608 186.088 16.512 185.736 16.512C185.416 16.512 185.16 16.576 184.968 16.704C184.808 16.832 184.616 17.024 184.392 17.28C184.296 17.024 184.232 16.768 184.2 16.512C184.2 16.224 184.2 15.952 184.2 15.696C184.2 15.28 184.264 14.832 184.392 14.352C184.552 13.872 184.792 13.44 185.112 13.056C185.464 12.64 185.912 12.304 186.456 12.048C187 11.76 187.688 11.616 188.52 11.616C190.056 11.616 191.192 12.032 191.928 12.864C192.664 13.664 193.032 14.656 193.032 15.84Z" fill="white"/>
<path d="M158.24 49.152H158.816C159.52 49.152 160.24 49.232 160.976 49.392C161.744 49.552 162.432 49.856 163.04 50.304C163.68 50.72 164.192 51.312 164.576 52.08C164.96 52.816 165.152 53.76 165.152 54.912V62.88C165.152 64.032 164.96 64.992 164.576 65.76C164.192 66.496 163.68 67.088 163.04 67.536C162.432 67.952 161.744 68.24 160.976 68.4C160.24 68.56 159.52 68.64 158.816 68.64H158.24V49.152ZM164.72 84H164.144C163.408 84 162.672 83.92 161.936 83.76C161.2 83.6 160.512 83.312 159.872 82.896C159.264 82.48 158.768 81.904 158.384 81.168C158 80.4 157.808 79.44 157.808 78.288V77.184C157.808 76.032 158 75.088 158.384 74.352C158.768 73.584 159.264 72.992 159.872 72.576C160.512 72.128 161.2 71.824 161.936 71.664C162.672 71.504 163.408 71.424 164.144 71.424H164.72V84ZM148.4 53.76C148.4 53.216 148.496 52.672 148.688 52.128C148.88 51.584 149.184 51.088 149.6 50.64C150.016 50.192 150.528 49.84 151.136 49.584C151.744 49.296 152.464 49.152 153.296 49.152C154.16 49.152 154.864 49.28 155.408 49.536C155.952 49.792 156.384 50.112 156.704 50.496C157.024 50.848 157.248 51.248 157.376 51.696C157.504 52.144 157.568 52.56 157.568 52.944C157.568 53.168 157.552 53.472 157.52 53.856C157.52 54.24 157.472 54.56 157.376 54.816C157.152 54.624 156.944 54.48 156.752 54.384C156.56 54.288 156.32 54.24 156.032 54.24C155.104 54.24 154.64 54.832 154.64 56.016V58.416C154.384 58.48 154.064 58.512 153.68 58.512C153.232 58.512 152.704 58.464 152.096 58.368C151.488 58.24 150.912 58 150.368 57.648C149.824 57.296 149.36 56.816 148.976 56.208C148.592 55.6 148.4 54.784 148.4 53.76ZM155.888 84H155.312C154.576 84 153.84 83.904 153.104 83.712C152.368 83.52 151.68 83.2 151.04 82.752C150.432 82.272 149.936 81.648 149.552 80.88C149.168 80.08 148.976 79.104 148.976 77.952V74.304C148.976 73.152 149.168 72.208 149.552 71.472C149.936 70.704 150.432 70.112 151.04 69.696C151.68 69.248 152.368 68.944 153.104 68.784C153.84 68.624 154.576 68.544 155.312 68.544H155.888V84ZM178.058 84H177.578C176.746 84 175.946 83.92 175.178 83.76C174.41 83.6 173.722 83.312 173.114 82.896C172.538 82.48 172.058 81.904 171.674 81.168C171.322 80.432 171.146 79.472 171.146 78.288V54.912C171.146 53.76 171.322 52.816 171.674 52.08C172.026 51.344 172.49 50.768 173.066 50.352C173.642 49.904 174.298 49.6 175.034 49.44C175.77 49.248 176.522 49.152 177.29 49.152H178.058V84ZM180.218 49.056L180.698 49.152C181.498 49.12 182.282 49.184 183.05 49.344C183.85 49.472 184.538 49.744 185.114 50.16C185.722 50.576 186.202 51.152 186.554 51.888C186.938 52.624 187.13 53.584 187.13 54.768V78.144C187.13 79.296 186.954 80.256 186.602 81.024C186.25 81.76 185.786 82.352 185.21 82.8C184.634 83.216 183.978 83.504 183.242 83.664C182.506 83.824 181.754 83.904 180.986 83.904H180.218V49.056ZM202.256 49.152H202.832C203.536 49.152 204.256 49.232 204.992 49.392C205.76 49.552 206.448 49.856 207.056 50.304C207.696 50.72 208.208 51.312 208.592 52.08C208.976 52.816 209.168 53.76 209.168 54.912V62.88C209.168 64.032 208.976 64.992 208.592 65.76C208.208 66.496 207.696 67.088 207.056 67.536C206.448 67.952 205.76 68.24 204.992 68.4C204.256 68.56 203.536 68.64 202.832 68.64H202.256V49.152ZM208.736 84H208.16C207.424 84 206.688 83.92 205.952 83.76C205.216 83.6 204.528 83.312 203.888 82.896C203.28 82.48 202.784 81.904 202.4 81.168C202.016 80.4 201.824 79.44 201.824 78.288V77.184C201.824 76.032 202.016 75.088 202.4 74.352C202.784 73.584 203.28 72.992 203.888 72.576C204.528 72.128 205.216 71.824 205.952 71.664C206.688 71.504 207.424 71.424 208.16 71.424H208.736V84ZM192.416 53.76C192.416 53.216 192.512 52.672 192.704 52.128C192.896 51.584 193.2 51.088 193.616 50.64C194.032 50.192 194.544 49.84 195.152 49.584C195.76 49.296 196.48 49.152 197.312 49.152C198.176 49.152 198.88 49.28 199.424 49.536C199.968 49.792 200.4 50.112 200.72 50.496C201.04 50.848 201.264 51.248 201.392 51.696C201.52 52.144 201.584 52.56 201.584 52.944C201.584 53.168 201.568 53.472 201.536 53.856C201.536 54.24 201.488 54.56 201.392 54.816C201.168 54.624 200.96 54.48 200.768 54.384C200.576 54.288 200.336 54.24 200.048 54.24C199.12 54.24 198.656 54.832 198.656 56.016V58.416C198.4 58.48 198.08 58.512 197.696 58.512C197.248 58.512 196.72 58.464 196.112 58.368C195.504 58.24 194.928 58 194.384 57.648C193.84 57.296 193.376 56.816 192.992 56.208C192.608 55.6 192.416 54.784 192.416 53.76ZM199.904 84H199.328C198.592 84 197.856 83.904 197.12 83.712C196.384 83.52 195.696 83.2 195.056 82.752C194.448 82.272 193.952 81.648 193.568 80.88C193.184 80.08 192.992 79.104 192.992 77.952V74.304C192.992 73.152 193.184 72.208 193.568 71.472C193.952 70.704 194.448 70.112 195.056 69.696C195.696 69.248 196.384 68.944 197.12 68.784C197.856 68.624 198.592 68.544 199.328 68.544H199.904V84ZM224.521 49.152H225.097C225.801 49.152 226.521 49.232 227.257 49.392C228.025 49.552 228.713 49.856 229.321 50.304C229.961 50.72 230.473 51.312 230.857 52.08C231.241 52.816 231.433 53.76 231.433 54.912V62.88C231.433 64.032 231.241 64.992 230.857 65.76C230.473 66.496 229.961 67.088 229.321 67.536C228.713 67.952 228.025 68.24 227.257 68.4C226.521 68.56 225.801 68.64 225.097 68.64H224.521V49.152ZM231.001 84H230.425C229.689 84 228.953 83.92 228.217 83.76C227.481 83.6 226.793 83.312 226.153 82.896C225.545 82.48 225.049 81.904 224.665 81.168C224.281 80.4 224.089 79.44 224.089 78.288V77.184C224.089 76.032 224.281 75.088 224.665 74.352C225.049 73.584 225.545 72.992 226.153 72.576C226.793 72.128 227.481 71.824 228.217 71.664C228.953 71.504 229.689 71.424 230.425 71.424H231.001V84ZM214.681 53.76C214.681 53.216 214.777 52.672 214.969 52.128C215.161 51.584 215.465 51.088 215.881 50.64C216.297 50.192 216.809 49.84 217.417 49.584C218.025 49.296 218.745 49.152 219.577 49.152C220.441 49.152 221.145 49.28 221.689 49.536C222.233 49.792 222.665 50.112 222.985 50.496C223.305 50.848 223.529 51.248 223.657 51.696C223.785 52.144 223.849 52.56 223.849 52.944C223.849 53.168 223.833 53.472 223.801 53.856C223.801 54.24 223.753 54.56 223.657 54.816C223.433 54.624 223.225 54.48 223.033 54.384C222.841 54.288 222.601 54.24 222.313 54.24C221.385 54.24 220.921 54.832 220.921 56.016V58.416C220.665 58.48 220.345 58.512 219.961 58.512C219.513 58.512 218.985 58.464 218.377 58.368C217.769 58.24 217.193 58 216.649 57.648C216.105 57.296 215.641 56.816 215.257 56.208C214.873 55.6 214.681 54.784 214.681 53.76ZM222.169 84H221.593C220.857 84 220.121 83.904 219.385 83.712C218.649 83.52 217.961 83.2 217.321 82.752C216.713 82.272 216.217 81.648 215.833 80.88C215.449 80.08 215.257 79.104 215.257 77.952V74.304C215.257 73.152 215.449 72.208 215.833 71.472C216.217 70.704 216.713 70.112 217.321 69.696C217.961 69.248 218.649 68.944 219.385 68.784C220.121 68.624 220.857 68.544 221.593 68.544H222.169V84Z" fill="white"/>
</svg>
