<?xml version="1.0" encoding="utf-8"?>
<!-- Generator: Adobe Illustrator 26.0.3, SVG Export Plug-In . SVG Version: 6.00 Build 0)  -->
<svg version="1.1" xmlns="http://www.w3.org/2000/svg" xmlns:xlink="http://www.w3.org/1999/xlink" x="0px" y="0px"
	 viewBox="0 0 500 500" style="enable-background:new 0 0 500 500;" xml:space="preserve">
<style type="text/css">
	.st0{display:none;}
	.st1{display:inline;fill:#FFFFFF;stroke:#D64C80;stroke-width:9;stroke-miterlimit:10;}
	.st2{display:inline;fill:#D64580;}
	.st3{display:inline;}
	.st4{display:inline;fill:#FF7BBA;}
	.st5{fill:#FFFFFF;}
	.st6{fill:#D64C80;}
	.st7{fill:#D64580;}
	.st8{fill:#FF7BBA;}
</style>
<g id="Layer_1" class="st0">
	<g>
		<path class="st1" d="M793.24,463.47h-126c-4.97,0-9-4.03-9-9V242.68c0-4.97,4.03-9,9-9h126c4.97,0,9,4.03,9,9v211.79
			C802.24,459.44,798.22,463.47,793.24,463.47z"/>
		<path class="st2" d="M781.09,446.96H679.4c-3.31,0-6-2.69-6-6v-15.82c0-3.31,2.69-6,6-6h101.69c3.31,0,6,2.69,6,6v15.82
			C787.09,444.28,784.4,446.96,781.09,446.96z"/>
		<g class="st3">
			<defs>
				<rect id="SVGID_1_" x="669.48" y="260.75" width="121.53" height="150.64"/>
			</defs>
			<clipPath id="SVGID_00000132793941078362767730000008905505679910094758_">
				<use xlink:href="#SVGID_1_"  style="overflow:visible;"/>
			</clipPath>
		</g>
		<path class="st4" d="M781.33,403.54H679.16c-3.31,0-6-2.69-6-6V268.03c0-3.31,2.69-6,6-6h102.17c3.31,0,6,2.69,6,6v129.51
			C787.33,400.85,784.64,403.54,781.33,403.54z"/>
		<g class="st3">
			<defs>
				<circle id="SVGID_00000067194287258926747750000009089778451752586629_" cx="730.24" cy="260.49" r="15.06"/>
			</defs>
			<clipPath id="SVGID_00000033338032966615021120000010674465544661791647_">
				<use xlink:href="#SVGID_00000067194287258926747750000009089778451752586629_"  style="overflow:visible;"/>
			</clipPath>
		</g>
		<circle class="st4" cx="730.24" cy="261.79" r="14.15"/>
	</g>
	<g class="st3">
		<g>
			<path class="st5" d="M386.43,482.08H113.57c-4.97,0-9-4.03-9-9V26.92c0-4.97,4.03-9,9-9h272.87c4.97,0,9,4.03,9,9v446.15
				C395.43,478.05,391.4,482.08,386.43,482.08z"/>
			<path class="st6" d="M377.25,491.17H122.75c-15.04,0-27.27-12.23-27.27-27.27V36.1c0-15.04,12.23-27.27,27.27-27.27h254.51
				c15.04,0,27.27,12.23,27.27,27.27V463.9C404.52,478.93,392.29,491.17,377.25,491.17z M122.75,27.01c-5.01,0-9.09,4.08-9.09,9.09
				V463.9c0,5.01,4.08,9.09,9.09,9.09h254.51c5.01,0,9.09-4.08,9.09-9.09V36.1c0-5.01-4.08-9.09-9.09-9.09H122.75z"/>
		</g>
		<g>
			<path class="st7" d="M358.82,448.73H141.18c-3.31,0-6-2.69-6-6v-44.2c0-3.31,2.69-6,6-6h217.65c3.31,0,6,2.69,6,6v44.2
				C364.82,446.05,362.14,448.73,358.82,448.73z"/>
		</g>
		<g>
			<defs>
				<rect id="SVGID_00000121269341826995763180000005490727939092926645_" x="127.26" y="72.59" width="245.48" height="304.28"/>
			</defs>
			<clipPath id="SVGID_00000000207336387040857790000005024029735187572924_">
				<use xlink:href="#SVGID_00000121269341826995763180000005490727939092926645_"  style="overflow:visible;"/>
			</clipPath>
		</g>
		<g>
			<path class="st8" d="M353.19,361.03H146.81c-6.69,0-12.12-5.43-12.12-12.12V87.3c0-6.69,5.43-12.12,12.12-12.12h206.38
				c6.69,0,12.12,5.43,12.12,12.12v261.61C365.31,355.6,359.88,361.03,353.19,361.03z"/>
		</g>
		<g>
			<defs>
				<circle id="SVGID_00000084519356234551749340000003801345914346320293_" cx="250" cy="72.08" r="30.43"/>
			</defs>
			<clipPath id="SVGID_00000003079297088591086200000014871664069204757927_">
				<use xlink:href="#SVGID_00000084519356234551749340000003801345914346320293_"  style="overflow:visible;"/>
			</clipPath>
		</g>
		<g>
			<circle class="st8" cx="250" cy="74.7" r="28.58"/>
		</g>
	</g>
</g>
<g id="Layer_2">
	<g>
		<path class="st7" d="M246.35,96.78c-38.37-1.63-80.65,31.78-80.87,80.32c-0.2,44.87,36.2,81.44,80.8,81.42
			c44.24-0.02,80.36-36.37,80.67-80.69C327.28,131.01,286.49,95.44,246.35,96.78z"/>
		<path class="st7" d="M411.29,92.82C367.2,48.72,308.57,24.44,246.22,24.44S125.23,48.72,81.14,92.82
			c-44.09,44.09-68.38,102.72-68.38,165.08s24.28,120.98,68.38,165.08c44.09,44.09,102.72,68.38,165.08,68.38
			s120.98-24.28,165.08-68.38c44.09-44.09,68.38-102.72,68.38-165.08S455.39,136.91,411.29,92.82z M396.94,392.16
			c-1.22-0.69-1.19-2.57-1.62-3.85c-20.6-60.53-74.98-102.72-138.39-107.33c-70.39-5.12-137.19,39.66-159.85,107.09
			c-0.46,1.36-0.53,3.33-1.23,4.5c-32.06-35.76-51.59-82.97-51.59-134.66c0-111.36,90.6-201.96,201.96-201.96
			s201.96,90.6,201.96,201.96C448.17,309.39,428.79,356.44,396.94,392.16z"/>
	</g>
</g>
</svg>
