<svg width="594" height="382" viewBox="0 0 594 382" fill="none" xmlns="http://www.w3.org/2000/svg">
<g clip-path="url(#clip0_414_930)">
<g filter="url(#filter0_f_414_930)">
<path d="M386.9 208.894C388.223 209.478 389.183 210.213 389.804 210.976C389.011 210.371 388.036 209.668 386.9 208.894C380.429 206.037 365.258 206.759 338.41 225.095C297.984 252.704 308.952 300.705 282.001 258.351C255.05 215.996 205.85 141.327 175.452 170.818C145.054 200.309 211.804 237.958 182.346 258.351C152.888 278.744 169.498 333.334 131.579 286.587C93.6595 239.84 93.3461 222.898 112.462 196.858C131.579 170.818 143.487 154.19 131.579 128.15C119.67 102.109 107.762 84.54 141.607 96.462C175.452 108.384 198.329 134.738 230.293 115.6C262.258 96.462 266.019 64.7745 290.462 96.462C314.906 128.15 313.026 136.934 347.498 134.738C381.97 132.542 418.635 130.346 384.163 152.307C349.691 174.269 323.681 185.564 347.498 191.211C364.098 195.147 379.208 203.656 386.9 208.894Z" fill="url(#paint0_angular_414_930)"/>
</g>
<g filter="url(#filter1_f_414_930)">
<path d="M467.159 312.076C467.295 313.336 467.157 314.386 466.849 315.191C466.962 314.324 467.069 313.277 467.159 312.076C466.495 305.916 459.305 294.727 433.624 282.408C394.954 263.858 363.298 293.225 383.668 254.214C404.037 215.203 439.209 145.149 403.501 135.029C367.792 124.91 368.422 192.038 340.036 178.642C311.649 165.245 277.459 201.779 296.362 152.525C315.266 103.27 327.996 95.6032 356.144 98.6809C384.292 101.759 402.135 103.498 416.699 83.0479C431.264 62.5983 439.394 45.8632 445.158 76.7573C450.921 107.651 440.92 136.556 469.451 152.404C497.982 168.252 523.696 157.209 510.331 189.641C496.965 222.073 489.47 224.499 506.231 249.677C522.992 274.856 540.713 301.698 508.94 285.187C477.166 268.676 457.2 253.904 463.338 274.441C467.617 288.756 467.77 303.946 467.159 312.076Z" fill="url(#paint1_angular_414_930)"/>
</g>
<g filter="url(#filter2_d_414_930)">
<g clip-path="url(#clip1_414_930)">
<rect x="184.632" y="101.609" width="99" height="80" rx="8" transform="rotate(30 184.632 101.609)" fill="white"/>
<path d="M215.838 160.272C216.317 160.548 216.928 160.384 217.204 159.906C217.48 159.427 217.317 158.816 216.838 158.54L215.838 160.272ZM204.962 151.683C204.483 151.407 203.872 151.57 203.596 152.049C203.319 152.527 203.483 153.139 203.962 153.415L204.962 151.683ZM204.735 146.589C204.257 146.313 203.646 146.477 203.369 146.955C203.093 147.433 203.257 148.045 203.735 148.321L204.735 146.589ZM220.363 157.921C220.841 158.197 221.453 158.033 221.729 157.555C222.005 157.076 221.841 156.465 221.363 156.189L220.363 157.921ZM207.26 145.906C207.505 146.401 208.105 146.604 208.6 146.359C209.095 146.115 209.298 145.515 209.053 145.02L207.26 145.906ZM207.957 142.804C207.712 142.309 207.113 142.106 206.618 142.35C206.123 142.595 205.92 143.195 206.164 143.69L207.957 142.804ZM212.896 143.861C212.86 144.413 213.278 144.888 213.829 144.924C214.381 144.959 214.856 144.541 214.892 143.99L212.896 143.861ZM215.051 141.523C215.086 140.972 214.668 140.496 214.117 140.461C213.566 140.425 213.091 140.843 213.055 141.394L215.051 141.523ZM218.4 145.703C217.905 145.948 217.702 146.547 217.947 147.042C218.191 147.537 218.791 147.74 219.286 147.496L218.4 145.703ZM221.503 146.4C221.998 146.155 222.2 145.555 221.956 145.06C221.711 144.565 221.111 144.362 220.616 144.607L221.503 146.4ZM223.118 153.553C223.67 153.588 224.145 153.17 224.181 152.619C224.216 152.068 223.798 151.592 223.247 151.557L223.118 153.553ZM220.78 151.398C220.229 151.362 219.753 151.78 219.718 152.331C219.682 152.883 220.1 153.358 220.651 153.394L220.78 151.398ZM216.838 158.54L204.962 151.683L203.962 153.415L215.838 160.272L216.838 158.54ZM203.735 148.321L220.363 157.921L221.363 156.189L204.735 146.589L203.735 148.321ZM209.258 150.355C210.308 148.537 212.632 147.915 214.449 148.964L215.449 147.232C212.675 145.63 209.128 146.581 207.526 149.355L209.258 150.355ZM214.449 148.964C216.266 150.013 216.889 152.337 215.84 154.155L217.572 155.155C219.173 152.381 218.223 148.834 215.449 147.232L214.449 148.964ZM209.053 145.02L207.957 142.804L206.164 143.69L207.26 145.906L209.053 145.02ZM214.892 143.99L215.051 141.523L213.055 141.394L212.896 143.861L214.892 143.99ZM219.286 147.496L221.503 146.4L220.616 144.607L218.4 145.703L219.286 147.496ZM223.247 151.557L220.78 151.398L220.651 153.394L223.118 153.553L223.247 151.557Z" fill="#6D7280"/>
<path d="M169.966 164.733L174.329 157.175L177.223 158.845C177.769 159.161 178.173 159.509 178.435 159.89C178.701 160.27 178.839 160.659 178.848 161.058C178.86 161.459 178.758 161.846 178.542 162.22C178.364 162.527 178.153 162.756 177.909 162.907C177.665 163.056 177.405 163.14 177.128 163.16C176.85 163.18 176.572 163.149 176.292 163.066L176.249 163.14C176.509 163.309 176.718 163.54 176.877 163.832C177.041 164.123 177.123 164.45 177.124 164.811C177.125 165.173 177.015 165.546 176.794 165.929C176.568 166.321 176.27 166.618 175.9 166.821C175.532 167.021 175.105 167.101 174.62 167.061C174.135 167.02 173.603 166.833 173.025 166.499L169.966 164.733ZM171.995 164.379L173.468 165.23C173.965 165.516 174.377 165.628 174.706 165.565C175.038 165.501 175.291 165.319 175.464 165.019C175.593 164.795 175.654 164.561 175.647 164.318C175.642 164.072 175.567 163.838 175.422 163.617C175.279 163.393 175.066 163.2 174.783 163.037L173.274 162.165L171.995 164.379ZM173.843 161.18L175.197 161.962C175.433 162.098 175.671 162.178 175.91 162.201C176.151 162.222 176.371 162.184 176.572 162.086C176.776 161.988 176.942 161.828 177.07 161.606C177.239 161.314 177.275 161.013 177.178 160.704C177.083 160.397 176.834 160.127 176.43 159.894L175.046 159.095L173.843 161.18ZM176.737 168.642L180.009 162.974L181.305 163.722L180.759 164.666L180.818 164.7C181.111 164.433 181.433 164.283 181.787 164.251C182.144 164.217 182.485 164.294 182.809 164.482C182.883 164.525 182.964 164.576 183.05 164.636C183.141 164.695 183.213 164.748 183.268 164.796L182.558 166.025C182.513 165.972 182.433 165.903 182.319 165.818C182.208 165.731 182.096 165.655 181.983 165.589C181.74 165.449 181.49 165.375 181.235 165.369C180.983 165.361 180.749 165.418 180.531 165.538C180.314 165.659 180.136 165.84 179.997 166.081L178.073 169.414L176.737 168.642ZM180.857 171.021L184.13 165.353L185.466 166.124L182.193 171.792L180.857 171.021ZM185.266 164.936C185.054 164.814 184.913 164.638 184.841 164.41C184.771 164.179 184.794 163.964 184.909 163.765C185.025 163.563 185.2 163.436 185.434 163.384C185.669 163.33 185.892 163.363 186.103 163.486C186.317 163.609 186.458 163.786 186.526 164.015C186.598 164.243 186.575 164.458 186.459 164.66C186.344 164.859 186.169 164.986 185.934 165.041C185.703 165.094 185.48 165.059 185.266 164.936ZM184.737 176.253C184.257 175.976 183.882 175.673 183.613 175.343C183.343 175.017 183.165 174.684 183.081 174.347C182.997 174.01 182.99 173.686 183.061 173.376L184.433 173.779C184.423 173.921 184.438 174.076 184.479 174.244C184.519 174.414 184.605 174.586 184.738 174.758C184.873 174.934 185.074 175.099 185.343 175.254C185.721 175.473 186.088 175.562 186.443 175.521C186.797 175.482 187.095 175.254 187.336 174.836L187.956 173.762L187.89 173.723C187.741 173.821 187.559 173.905 187.342 173.973C187.128 174.043 186.884 174.064 186.611 174.038C186.34 174.013 186.042 173.906 185.717 173.719C185.282 173.467 184.946 173.137 184.709 172.729C184.477 172.319 184.374 171.849 184.401 171.32C184.431 170.79 184.625 170.216 184.981 169.599C185.341 168.976 185.747 168.511 186.201 168.202C186.659 167.892 187.129 167.729 187.611 167.712C188.094 167.692 188.554 167.808 188.989 168.06C189.322 168.252 189.562 168.466 189.711 168.703C189.863 168.938 189.958 169.172 189.995 169.403C190.034 169.632 190.046 169.835 190.033 170.011L190.107 170.053L190.648 169.116L191.966 169.877L188.64 175.637C188.36 176.122 188.013 176.456 187.598 176.64C187.184 176.824 186.73 176.879 186.238 176.805C185.746 176.731 185.246 176.547 184.737 176.253ZM186.695 172.886C186.978 173.049 187.259 173.12 187.538 173.097C187.817 173.074 188.082 172.964 188.335 172.765C188.587 172.566 188.818 172.286 189.027 171.924C189.233 171.568 189.361 171.225 189.413 170.897C189.467 170.571 189.437 170.277 189.323 170.014C189.213 169.75 189.014 169.535 188.726 169.369C188.428 169.197 188.135 169.131 187.846 169.171C187.557 169.211 187.284 169.337 187.027 169.55C186.771 169.76 186.545 170.035 186.347 170.377C186.147 170.724 186.022 171.057 185.972 171.376C185.927 171.694 185.961 171.983 186.077 172.244C186.196 172.503 186.402 172.717 186.695 172.886ZM193.316 173.785L191.398 177.107L190.062 176.336L194.426 168.778L195.732 169.532L194.085 172.385L194.151 172.423C194.469 172.18 194.82 172.046 195.205 172.022C195.593 171.997 196.004 172.11 196.437 172.36C196.83 172.587 197.126 172.867 197.324 173.201C197.521 173.535 197.608 173.907 197.585 174.317C197.564 174.728 197.422 175.162 197.157 175.62L195.074 179.229L193.738 178.458L195.702 175.055C195.922 174.674 195.995 174.321 195.92 173.995C195.85 173.669 195.638 173.404 195.287 173.201C195.05 173.065 194.809 172.994 194.562 172.99C194.32 172.984 194.09 173.047 193.873 173.177C193.659 173.31 193.473 173.512 193.316 173.785ZM202.539 175.981L201.942 177.014L198.683 175.133L199.28 174.1L202.539 175.981ZM200.869 173.206L202.205 173.977L199.132 179.299C199.028 179.479 198.976 179.632 198.975 179.759C198.977 179.885 199.014 179.992 199.085 180.079C199.157 180.166 199.247 180.241 199.358 180.305C199.442 180.354 199.522 180.391 199.598 180.419C199.676 180.448 199.737 180.468 199.779 180.479L199.401 181.654C199.316 181.637 199.198 181.605 199.048 181.558C198.901 181.512 198.731 181.437 198.539 181.333C198.198 181.149 197.926 180.925 197.722 180.66C197.519 180.392 197.407 180.094 197.386 179.767C197.367 179.441 197.461 179.102 197.668 178.749L200.869 173.206ZM203.637 179.744L201.719 183.066L200.383 182.295L203.656 176.626L204.933 177.363L204.377 178.326L204.443 178.365C204.757 178.123 205.11 177.991 205.504 177.968C205.9 177.948 206.309 178.059 206.732 178.304C207.123 178.53 207.416 178.81 207.61 179.145C207.806 179.481 207.892 179.854 207.869 180.264C207.848 180.675 207.706 181.106 207.442 181.557L205.358 185.167L204.022 184.395L205.987 180.993C206.205 180.614 206.278 180.261 206.205 179.933C206.134 179.607 205.926 179.344 205.582 179.145C205.348 179.01 205.111 178.942 204.869 178.94C204.631 178.937 204.405 179.002 204.191 179.134C203.979 179.268 203.795 179.471 203.637 179.744ZM209.162 187.51C208.593 187.182 208.171 186.781 207.894 186.306C207.621 185.83 207.499 185.311 207.529 184.747C207.561 184.181 207.747 183.602 208.09 183.009C208.426 182.426 208.833 181.978 209.308 181.666C209.788 181.352 210.299 181.188 210.842 181.174C211.387 181.157 211.93 181.304 212.471 181.617C212.82 181.819 213.117 182.065 213.362 182.358C213.61 182.649 213.787 182.98 213.89 183.352C213.996 183.725 214.014 184.132 213.943 184.573C213.873 185.012 213.695 185.479 213.408 185.976L213.172 186.386L208.525 183.704L209.045 182.803L212.411 184.746C212.556 184.489 212.632 184.229 212.639 183.968C212.647 183.703 212.588 183.457 212.46 183.229C212.335 183.003 212.144 182.816 211.888 182.668C211.615 182.511 211.337 182.438 211.054 182.452C210.772 182.463 210.511 182.542 210.272 182.69C210.037 182.836 209.845 183.035 209.696 183.287L209.242 184.073C209.052 184.403 208.949 184.72 208.933 185.026C208.918 185.33 208.983 185.606 209.127 185.857C209.273 186.105 209.491 186.313 209.781 186.48C209.975 186.593 210.167 186.667 210.356 186.704C210.546 186.738 210.73 186.735 210.908 186.693C211.086 186.652 211.251 186.568 211.402 186.442L212.569 187.303C212.3 187.587 211.983 187.788 211.62 187.906C211.26 188.023 210.87 188.051 210.45 187.989C210.032 187.924 209.602 187.765 209.162 187.51ZM219.764 187.924L218.47 187.354C218.506 187.211 218.513 187.06 218.489 186.902C218.468 186.746 218.405 186.593 218.301 186.444C218.197 186.295 218.041 186.161 217.834 186.042C217.556 185.882 217.288 185.807 217.029 185.818C216.772 185.831 216.59 185.934 216.481 186.127C216.384 186.29 216.367 186.459 216.43 186.634C216.496 186.809 216.653 187.014 216.903 187.246L217.751 188.011C218.22 188.436 218.513 188.85 218.629 189.251C218.747 189.654 218.69 190.059 218.458 190.467C218.25 190.822 217.964 191.077 217.599 191.23C217.239 191.383 216.833 191.431 216.38 191.373C215.928 191.315 215.466 191.15 214.994 190.877C214.3 190.477 213.825 190.009 213.569 189.475C213.315 188.938 213.298 188.385 213.518 187.816L214.893 188.443C214.805 188.733 214.819 188.998 214.935 189.24C215.052 189.481 215.264 189.69 215.572 189.868C215.889 190.051 216.181 190.133 216.448 190.113C216.718 190.095 216.908 189.99 217.019 189.798C217.113 189.636 217.127 189.465 217.063 189.287C217.001 189.11 216.856 188.918 216.628 188.711L215.778 187.95C215.3 187.523 215.008 187.1 214.902 186.681C214.797 186.26 214.865 185.844 215.107 185.432C215.306 185.081 215.575 184.833 215.915 184.688C216.258 184.542 216.643 184.498 217.068 184.557C217.498 184.614 217.939 184.774 218.391 185.035C219.056 185.419 219.497 185.862 219.715 186.365C219.935 186.869 219.952 187.389 219.764 187.924ZM225.468 191.217L224.173 190.647C224.21 190.504 224.216 190.353 224.193 190.195C224.172 190.039 224.109 189.886 224.005 189.737C223.9 189.588 223.745 189.454 223.538 189.335C223.26 189.175 222.991 189.1 222.732 189.111C222.476 189.124 222.293 189.227 222.185 189.42C222.087 189.583 222.07 189.752 222.134 189.927C222.199 190.102 222.357 190.307 222.607 190.539L223.454 191.304C223.924 191.729 224.216 192.143 224.332 192.544C224.451 192.947 224.394 193.352 224.162 193.76C223.954 194.115 223.667 194.37 223.303 194.523C222.942 194.676 222.536 194.724 222.084 194.666C221.632 194.608 221.169 194.443 220.697 194.17C220.003 193.77 219.529 193.302 219.273 192.768C219.019 192.23 219.002 191.678 219.222 191.109L220.597 191.736C220.508 192.026 220.522 192.291 220.639 192.533C220.755 192.774 220.968 192.983 221.275 193.161C221.592 193.344 221.885 193.426 222.152 193.406C222.422 193.388 222.612 193.283 222.723 193.091C222.816 192.929 222.831 192.758 222.767 192.58C222.705 192.403 222.56 192.211 222.332 192.004L221.482 191.243C221.003 190.816 220.711 190.393 220.605 189.974C220.501 189.553 220.569 189.136 220.81 188.725C221.009 188.374 221.279 188.126 221.618 187.981C221.962 187.835 222.346 187.791 222.772 187.85C223.201 187.907 223.642 188.067 224.095 188.328C224.759 188.711 225.2 189.155 225.418 189.658C225.639 190.162 225.655 190.682 225.468 191.217Z" fill="#111827"/>
</g>
</g>
<g filter="url(#filter3_d_414_930)">
<rect x="210.13" y="201.622" width="87" height="80" rx="8" transform="rotate(-15 210.13 201.622)" fill="white"/>
<path d="M249.863 218.928C248.49 213.806 251.53 208.542 256.651 207.17C261.772 205.798 267.036 208.837 268.408 213.958C269.781 219.08 266.741 224.344 261.62 225.716C256.499 227.088 251.235 224.049 249.863 218.928Z" stroke="#6D7280" stroke-width="2"/>
<path d="M265.06 215.373L264.802 214.407C264.015 211.473 261 209.732 258.066 210.518C257.799 210.589 257.641 210.864 257.712 211.13L260.559 221.756C260.63 222.022 260.905 222.181 261.171 222.109C264.105 221.323 265.847 218.307 265.06 215.373Z" stroke="#6D7280" stroke-width="2"/>
<path d="M250.113 249.108L248.574 249.521C248.462 249.28 248.321 249.078 248.151 248.915C247.98 248.749 247.789 248.621 247.576 248.531C247.364 248.441 247.136 248.392 246.893 248.383C246.651 248.371 246.401 248.4 246.144 248.469C245.685 248.592 245.31 248.816 245.018 249.141C244.725 249.464 244.537 249.873 244.455 250.369C244.373 250.861 244.416 251.425 244.586 252.058C244.759 252.703 245.005 253.22 245.323 253.608C245.644 253.993 246.01 254.25 246.422 254.381C246.835 254.509 247.27 254.511 247.725 254.389C247.978 254.322 248.205 254.226 248.407 254.101C248.611 253.973 248.783 253.819 248.923 253.64C249.066 253.461 249.173 253.259 249.242 253.035C249.314 252.809 249.34 252.567 249.321 252.308L250.862 251.903C250.912 252.319 250.888 252.729 250.79 253.131C250.695 253.533 250.529 253.91 250.294 254.261C250.058 254.61 249.754 254.915 249.383 255.176C249.011 255.434 248.574 255.631 248.072 255.766C247.331 255.964 246.624 255.97 245.95 255.783C245.277 255.595 244.686 255.223 244.177 254.665C243.669 254.107 243.294 253.375 243.051 252.47C242.808 251.562 242.768 250.74 242.933 250.004C243.097 249.266 243.424 248.648 243.914 248.149C244.404 247.65 245.016 247.302 245.752 247.105C246.221 246.979 246.675 246.928 247.113 246.952C247.552 246.976 247.963 247.073 248.347 247.243C248.731 247.411 249.073 247.652 249.375 247.965C249.678 248.275 249.924 248.656 250.113 249.108ZM255.733 253.722C255.116 253.887 254.545 253.894 254.019 253.744C253.493 253.594 253.04 253.308 252.66 252.886C252.282 252.464 252.005 251.926 251.83 251.273C251.655 250.62 251.626 250.015 251.741 249.458C251.859 248.899 252.108 248.424 252.488 248.031C252.868 247.638 253.367 247.359 253.984 247.193C254.602 247.028 255.173 247.02 255.699 247.171C256.224 247.321 256.676 247.609 257.055 248.034C257.436 248.458 257.714 248.997 257.889 249.65C258.064 250.303 258.093 250.907 257.974 251.462C257.858 252.017 257.61 252.491 257.23 252.884C256.85 253.277 256.351 253.556 255.733 253.722ZM255.422 252.526C255.757 252.436 256.012 252.269 256.188 252.025C256.363 251.778 256.463 251.483 256.489 251.141C256.518 250.798 256.481 250.435 256.378 250.05C256.274 249.663 256.124 249.329 255.928 249.046C255.733 248.76 255.499 248.554 255.224 248.427C254.949 248.301 254.644 248.283 254.309 248.372C253.966 248.464 253.706 248.634 253.528 248.882C253.353 249.129 253.251 249.425 253.223 249.771C253.197 250.113 253.236 250.477 253.34 250.864C253.443 251.249 253.591 251.582 253.785 251.866C253.981 252.148 254.217 252.353 254.492 252.479C254.769 252.602 255.079 252.618 255.422 252.526ZM260.492 248.344L261.485 252.048L259.995 252.447L258.3 246.125L259.725 245.743L260.013 246.818L260.087 246.798C260.137 246.405 260.294 246.061 260.556 245.768C260.821 245.473 261.19 245.263 261.662 245.136C262.098 245.019 262.503 245.011 262.877 245.11C263.254 245.21 263.579 245.412 263.852 245.718C264.128 246.024 264.332 246.429 264.465 246.935L265.543 250.961L264.053 251.36L263.036 247.565C262.923 247.142 262.725 246.841 262.441 246.661C262.16 246.48 261.828 246.442 261.444 246.544C261.183 246.614 260.967 246.734 260.794 246.904C260.624 247.07 260.51 247.275 260.452 247.52C260.397 247.765 260.41 248.039 260.492 248.344ZM268.521 243.386L268.83 244.539L265.195 245.513L264.886 244.36L268.521 243.386ZM265.378 242.605L266.868 242.206L268.458 248.141C268.512 248.342 268.583 248.487 268.672 248.578C268.763 248.665 268.865 248.715 268.977 248.726C269.088 248.737 269.206 248.726 269.33 248.693C269.423 248.668 269.506 248.638 269.579 248.604C269.655 248.569 269.712 248.541 269.75 248.519L270.314 249.616C270.241 249.665 270.136 249.726 269.996 249.798C269.86 249.87 269.687 249.937 269.477 249.999C269.106 250.11 268.755 250.144 268.423 250.101C268.09 250.055 267.8 249.923 267.554 249.707C267.311 249.49 267.138 249.183 267.034 248.788L265.378 242.605ZM271.461 249.375L269.767 243.053L271.212 242.665L271.494 243.719L271.56 243.701C271.578 243.306 271.7 242.971 271.927 242.699C272.156 242.423 272.451 242.236 272.813 242.139C272.896 242.117 272.989 242.097 273.093 242.078C273.198 242.055 273.287 242.042 273.36 242.037L273.727 243.408C273.658 243.403 273.553 243.41 273.411 243.431C273.271 243.447 273.138 243.473 273.012 243.506C272.741 243.579 272.512 243.704 272.327 243.88C272.144 244.052 272.018 244.258 271.95 244.497C271.881 244.736 271.883 244.99 271.955 245.259L272.951 248.976L271.461 249.375ZM277.797 247.814C277.397 247.921 277.017 247.947 276.657 247.89C276.3 247.83 275.99 247.683 275.728 247.451C275.468 247.217 275.283 246.894 275.172 246.479C275.076 246.122 275.063 245.81 275.132 245.541C275.202 245.273 275.331 245.038 275.522 244.837C275.712 244.636 275.94 244.462 276.206 244.314C276.475 244.163 276.758 244.029 277.057 243.914C277.417 243.776 277.708 243.661 277.93 243.569C278.152 243.475 278.306 243.381 278.393 243.287C278.482 243.189 278.507 243.069 278.469 242.927L278.462 242.902C278.379 242.592 278.223 242.377 277.993 242.256C277.764 242.135 277.476 242.121 277.13 242.213C276.765 242.311 276.497 242.468 276.326 242.685C276.157 242.901 276.065 243.127 276.049 243.363L274.605 243.539C274.611 243.125 274.707 242.755 274.89 242.43C275.072 242.102 275.329 241.824 275.659 241.597C275.989 241.368 276.375 241.194 276.817 241.075C277.121 240.994 277.434 240.948 277.755 240.939C278.076 240.929 278.383 240.973 278.677 241.071C278.97 241.166 279.23 241.333 279.456 241.573C279.684 241.811 279.855 242.141 279.967 242.56L281.101 246.792L279.669 247.176L279.436 246.307L279.387 246.32C279.343 246.52 279.26 246.719 279.136 246.917C279.015 247.111 278.843 247.288 278.621 247.448C278.401 247.604 278.126 247.726 277.797 247.814ZM277.891 246.615C278.19 246.535 278.433 246.407 278.621 246.23C278.808 246.05 278.935 245.846 279 245.617C279.067 245.387 279.07 245.155 279.008 244.922L278.808 244.177C278.772 244.228 278.702 244.285 278.598 244.348C278.497 244.41 278.381 244.472 278.251 244.534C278.12 244.595 277.99 244.654 277.861 244.709C277.731 244.764 277.619 244.812 277.524 244.852C277.31 244.942 277.124 245.044 276.967 245.16C276.81 245.276 276.697 245.409 276.628 245.56C276.559 245.707 276.55 245.877 276.602 246.07C276.675 246.344 276.831 246.524 277.069 246.611C277.307 246.697 277.581 246.698 277.891 246.615ZM286.35 240.4L285.032 240.912C284.956 240.785 284.855 240.674 284.726 240.579C284.601 240.484 284.448 240.42 284.269 240.389C284.09 240.357 283.885 240.372 283.655 240.434C283.345 240.517 283.102 240.654 282.927 240.845C282.754 241.036 282.698 241.238 282.758 241.451C282.805 241.635 282.912 241.767 283.08 241.846C283.251 241.923 283.507 241.956 283.848 241.944L284.988 241.886C285.621 241.854 286.12 241.94 286.486 242.142C286.855 242.343 287.101 242.67 287.225 243.122C287.329 243.52 287.306 243.903 287.157 244.269C287.011 244.632 286.757 244.953 286.396 245.232C286.036 245.511 285.592 245.721 285.065 245.862C284.291 246.069 283.625 246.074 283.066 245.877C282.507 245.677 282.104 245.298 281.857 244.741L283.273 244.211C283.415 244.479 283.613 244.657 283.866 244.745C284.119 244.833 284.417 244.831 284.76 244.739C285.114 244.645 285.379 244.496 285.554 244.293C285.731 244.089 285.792 243.881 285.734 243.667C285.686 243.486 285.576 243.355 285.404 243.274C285.235 243.193 284.997 243.16 284.689 243.175L283.55 243.237C282.91 243.273 282.404 243.181 282.033 242.96C281.661 242.736 281.415 242.393 281.294 241.931C281.187 241.542 281.202 241.177 281.34 240.834C281.48 240.488 281.721 240.185 282.063 239.926C282.407 239.663 282.832 239.464 283.337 239.328C284.077 239.13 284.703 239.131 285.213 239.333C285.725 239.534 286.105 239.89 286.35 240.4ZM290.424 237.517L290.733 238.67L287.098 239.644L286.789 238.491L290.424 237.517ZM287.281 236.736L288.771 236.337L290.361 242.272C290.415 242.473 290.486 242.618 290.575 242.709C290.667 242.797 290.768 242.846 290.88 242.857C290.992 242.868 291.109 242.857 291.233 242.824C291.326 242.799 291.409 242.77 291.482 242.735C291.558 242.7 291.615 242.672 291.654 242.65L292.217 243.747C292.145 243.796 292.039 243.857 291.899 243.929C291.763 244.001 291.59 244.068 291.38 244.13C291.01 244.241 290.658 244.275 290.326 244.232C289.993 244.186 289.704 244.055 289.457 243.838C289.214 243.621 289.041 243.315 288.938 242.919L287.281 236.736Z" fill="#111827"/>
</g>
<g filter="url(#filter4_d_414_930)">
<g clip-path="url(#clip2_414_930)">
<rect x="315.706" y="149" width="103" height="80" rx="8" transform="rotate(15 315.706 149)" fill="white"/>
<path d="M350.585 180.716L354.904 181.874M355.993 177.809L352.59 190.511C352.439 191.073 352.772 191.65 353.333 191.8L366.544 195.34M361.372 199.4L362.665 194.573M363.296 191.202L364.794 185.613C364.944 185.052 364.611 184.475 364.05 184.324L358.715 182.895" stroke="#6D7280" stroke-width="2" stroke-linecap="round" stroke-linejoin="round"/>
<path d="M326.589 210.117L325.05 209.704C325.074 209.44 325.053 209.195 324.987 208.968C324.922 208.739 324.82 208.532 324.681 208.348C324.542 208.164 324.369 208.007 324.163 207.878C323.96 207.747 323.729 207.647 323.471 207.578C323.013 207.455 322.576 207.462 322.16 207.598C321.745 207.73 321.378 207.991 321.059 208.379C320.741 208.764 320.498 209.274 320.328 209.908C320.155 210.553 320.109 211.123 320.191 211.619C320.277 212.112 320.465 212.518 320.756 212.837C321.05 213.155 321.425 213.374 321.881 213.496C322.133 213.564 322.378 213.594 322.615 213.587C322.856 213.578 323.082 213.531 323.293 213.447C323.506 213.363 323.699 213.241 323.872 213.081C324.046 212.922 324.19 212.725 324.303 212.491L325.84 212.912C325.675 213.297 325.45 213.639 325.164 213.939C324.88 214.24 324.549 214.483 324.169 214.67C323.791 214.854 323.375 214.966 322.923 215.006C322.472 215.044 321.995 214.996 321.493 214.861C320.752 214.663 320.137 214.314 319.647 213.815C319.157 213.316 318.832 212.698 318.67 211.961C318.509 211.224 318.55 210.402 318.792 209.497C319.036 208.588 319.413 207.857 319.923 207.303C320.434 206.745 321.026 206.373 321.7 206.186C322.374 205.999 323.078 206.004 323.814 206.201C324.283 206.327 324.701 206.509 325.07 206.749C325.438 206.989 325.745 207.279 325.993 207.619C326.24 207.956 326.417 208.335 326.521 208.757C326.629 209.177 326.652 209.631 326.589 210.117ZM326.425 216.059L328.119 209.737L329.564 210.124L329.282 211.178L329.348 211.196C329.561 210.861 329.834 210.633 330.166 210.511C330.503 210.386 330.852 210.372 331.214 210.469C331.297 210.491 331.387 210.52 331.487 210.555C331.59 210.589 331.673 210.622 331.738 210.654L331.371 212.024C331.314 211.986 331.219 211.94 331.086 211.886C330.957 211.831 330.829 211.787 330.703 211.753C330.431 211.68 330.171 211.673 329.923 211.733C329.678 211.791 329.466 211.907 329.287 212.079C329.109 212.252 328.983 212.473 328.911 212.742L327.915 216.459L326.425 216.059ZM333.485 218.084C332.868 217.918 332.369 217.639 331.989 217.246C331.609 216.853 331.36 216.379 331.241 215.823C331.125 215.269 331.154 214.665 331.329 214.012C331.504 213.359 331.781 212.82 332.16 212.395C332.541 211.97 332.994 211.683 333.52 211.533C334.046 211.382 334.617 211.39 335.235 211.555C335.852 211.721 336.351 212 336.731 212.393C337.111 212.786 337.358 213.261 337.474 213.818C337.592 214.377 337.563 214.982 337.388 215.635C337.213 216.288 336.936 216.826 336.555 217.247C336.177 217.67 335.725 217.956 335.2 218.106C334.674 218.257 334.103 218.249 333.485 218.084ZM333.813 216.892C334.148 216.982 334.453 216.965 334.727 216.841C335.002 216.715 335.236 216.51 335.43 216.227C335.626 215.944 335.776 215.611 335.879 215.226C335.982 214.839 336.02 214.475 335.991 214.132C335.966 213.787 335.866 213.491 335.691 213.244C335.516 212.997 335.261 212.829 334.926 212.739C334.583 212.647 334.273 212.664 333.995 212.789C333.72 212.916 333.484 213.121 333.287 213.407C333.093 213.69 332.945 214.026 332.841 214.412C332.738 214.797 332.7 215.16 332.726 215.502C332.754 215.845 332.856 216.14 333.031 216.387C333.21 216.632 333.47 216.8 333.813 216.892ZM337.177 221.482L339.507 212.788L340.972 213.181L340.692 214.226L340.778 214.25C340.896 214.116 341.048 213.982 341.235 213.847C341.422 213.709 341.651 213.61 341.923 213.55C342.196 213.488 342.517 213.507 342.888 213.606C343.376 213.737 343.783 213.98 344.108 214.335C344.437 214.687 344.652 215.138 344.752 215.685C344.856 216.23 344.814 216.854 344.626 217.557C344.44 218.251 344.168 218.811 343.81 219.235C343.452 219.66 343.043 219.947 342.582 220.097C342.121 220.247 341.642 220.256 341.146 220.123C340.784 220.026 340.499 219.885 340.293 219.7C340.086 219.516 339.933 219.319 339.833 219.11C339.737 218.898 339.67 218.705 339.631 218.53L339.57 218.514L338.667 221.881L337.177 221.482ZM340.121 216.341C340.011 216.75 339.973 217.123 340.006 217.462C340.042 217.801 340.146 218.086 340.319 218.318C340.496 218.547 340.742 218.704 341.058 218.789C341.387 218.877 341.686 218.863 341.955 218.747C342.226 218.628 342.458 218.43 342.653 218.153C342.851 217.874 343.003 217.537 343.109 217.142C343.214 216.749 343.251 216.386 343.221 216.051C343.19 215.716 343.086 215.433 342.91 215.2C342.734 214.968 342.48 214.807 342.148 214.718C341.83 214.633 341.537 214.644 341.27 214.752C341.003 214.86 340.771 215.049 340.575 215.32C340.382 215.592 340.23 215.932 340.121 216.341ZM347.932 221.822L349.626 215.5L351.116 215.899L349.422 222.221L347.932 221.822ZM350.616 214.803C350.38 214.74 350.198 214.607 350.07 214.405C349.942 214.201 349.908 213.987 349.968 213.765C350.028 213.54 350.164 213.372 350.376 213.261C350.589 213.147 350.813 213.122 351.049 213.186C351.288 213.249 351.47 213.383 351.595 213.587C351.723 213.789 351.757 214.003 351.696 214.228C351.637 214.45 351.501 214.618 351.288 214.732C351.079 214.843 350.855 214.867 350.616 214.803ZM350.954 222.632L352.649 216.31L354.073 216.691L353.785 217.766L353.859 217.785C354.088 217.458 354.382 217.234 354.741 217.113C355.1 216.989 355.492 216.983 355.914 217.096C356.342 217.211 356.675 217.412 356.913 217.699C357.154 217.984 357.287 218.322 357.312 218.711L357.378 218.728C357.612 218.415 357.923 218.198 358.311 218.078C358.703 217.957 359.128 217.957 359.586 218.08C360.168 218.236 360.593 218.547 360.862 219.013C361.131 219.48 361.171 220.065 360.982 220.771L359.845 225.014L358.351 224.614L359.427 220.601C359.532 220.208 359.504 219.894 359.344 219.657C359.185 219.417 358.954 219.257 358.653 219.176C358.293 219.079 357.982 219.117 357.718 219.287C357.458 219.456 357.281 219.718 357.185 220.075L356.128 224.018L354.667 223.627L355.759 219.552C355.847 219.225 355.818 218.938 355.672 218.69C355.53 218.443 355.301 218.278 354.985 218.193C354.771 218.136 354.561 218.138 354.356 218.201C354.152 218.261 353.971 218.376 353.814 218.545C353.658 218.712 353.545 218.926 353.475 219.187L352.445 223.031L350.954 222.632ZM363.142 226.034C362.742 225.927 362.4 225.759 362.117 225.53C361.838 225.3 361.643 225.018 361.532 224.685C361.424 224.353 361.425 223.98 361.536 223.566C361.632 223.209 361.777 222.932 361.971 222.734C362.165 222.536 362.395 222.397 362.66 222.319C362.925 222.24 363.21 222.203 363.515 222.208C363.823 222.211 364.135 222.237 364.451 222.287C364.832 222.347 365.141 222.394 365.38 222.425C365.619 222.454 365.8 222.45 365.922 222.412C366.047 222.372 366.129 222.28 366.167 222.138L366.174 222.113C366.257 221.803 366.229 221.538 366.091 221.319C365.953 221.099 365.711 220.943 365.365 220.851C365 220.753 364.689 220.755 364.432 220.857C364.179 220.959 363.985 221.109 363.853 221.306L362.515 220.736C362.728 220.381 362.995 220.108 363.316 219.918C363.639 219.725 364 219.613 364.399 219.582C364.799 219.548 365.22 219.59 365.662 219.708C365.967 219.79 366.261 219.907 366.543 220.059C366.826 220.211 367.07 220.403 367.276 220.635C367.482 220.864 367.623 221.138 367.699 221.459C367.778 221.78 367.761 222.15 367.648 222.57L366.515 226.801L365.082 226.418L365.315 225.549L365.265 225.536C365.128 225.687 364.956 225.818 364.75 225.927C364.548 226.035 364.311 226.102 364.039 226.129C363.77 226.154 363.471 226.123 363.142 226.034ZM363.822 225.043C364.122 225.123 364.397 225.134 364.648 225.075C364.9 225.013 365.111 224.899 365.282 224.733C365.456 224.568 365.574 224.368 365.636 224.135L365.836 223.39C365.779 223.416 365.69 223.43 365.569 223.433C365.45 223.437 365.319 223.432 365.175 223.42C365.031 223.408 364.889 223.394 364.75 223.377C364.61 223.36 364.489 223.345 364.387 223.333C364.156 223.303 363.944 223.299 363.75 223.321C363.556 223.342 363.392 223.401 363.257 223.498C363.123 223.591 363.031 223.734 362.979 223.926C362.906 224.201 362.95 224.435 363.113 224.628C363.276 224.822 363.512 224.96 363.822 225.043ZM370.092 230.442C369.557 230.299 369.117 230.103 368.771 229.855C368.425 229.609 368.168 229.334 368 229.03C367.831 228.726 367.741 228.415 367.729 228.097L369.158 228.132C369.185 228.271 369.24 228.417 369.323 228.569C369.406 228.723 369.533 228.866 369.707 228.998C369.882 229.133 370.12 229.241 370.419 229.321C370.841 229.434 371.219 229.425 371.551 229.293C371.883 229.165 372.111 228.867 372.236 228.401L372.557 227.203L372.483 227.183C372.365 227.316 372.21 227.444 372.018 227.566C371.83 227.689 371.6 227.773 371.329 227.818C371.061 227.864 370.746 227.838 370.383 227.741C369.898 227.611 369.488 227.379 369.154 227.045C368.823 226.71 368.602 226.283 368.491 225.765C368.383 225.245 368.422 224.64 368.606 223.952C368.792 223.257 369.064 222.702 369.423 222.287C369.785 221.869 370.196 221.589 370.658 221.448C371.12 221.305 371.594 221.298 372.079 221.428C372.45 221.527 372.737 221.672 372.942 221.862C373.151 222.05 373.303 222.251 373.398 222.465C373.495 222.676 373.559 222.869 373.592 223.042L373.675 223.064L373.955 222.019L375.424 222.412L373.703 228.838C373.558 229.378 373.309 229.791 372.956 230.076C372.603 230.361 372.18 230.531 371.685 230.587C371.191 230.643 370.66 230.594 370.092 230.442ZM371.112 226.683C371.428 226.768 371.717 226.763 371.981 226.669C372.244 226.575 372.472 226.399 372.665 226.142C372.857 225.885 373.007 225.554 373.116 225.151C373.222 224.753 373.258 224.389 373.223 224.059C373.19 223.73 373.085 223.453 372.907 223.229C372.732 223.003 372.484 222.847 372.163 222.761C371.831 222.672 371.531 222.684 371.262 222.797C370.994 222.91 370.763 223.103 370.569 223.375C370.377 223.644 370.229 223.969 370.127 224.35C370.024 224.737 369.989 225.091 370.024 225.412C370.062 225.731 370.17 226.001 370.349 226.223C370.531 226.442 370.786 226.596 371.112 226.683ZM378.023 230.017C377.389 229.848 376.877 229.569 376.487 229.182C376.1 228.793 375.848 228.323 375.731 227.771C375.615 227.216 375.646 226.608 375.823 225.947C375.997 225.297 376.273 224.759 376.652 224.334C377.034 223.907 377.486 223.616 378.006 223.462C378.528 223.304 379.091 223.306 379.694 223.468C380.084 223.573 380.435 223.734 380.747 223.953C381.062 224.17 381.318 224.444 381.514 224.776C381.713 225.109 381.836 225.498 381.881 225.942C381.928 226.384 381.876 226.882 381.728 227.437L381.606 227.894L376.423 226.505L376.692 225.501L380.446 226.506C380.52 226.22 380.526 225.95 380.465 225.695C380.405 225.438 380.283 225.216 380.101 225.029C379.922 224.842 379.689 224.711 379.404 224.634C379.099 224.553 378.812 224.555 378.542 224.642C378.272 224.725 378.041 224.869 377.848 225.073C377.659 225.276 377.525 225.518 377.446 225.8L377.211 226.676C377.113 227.044 377.095 227.378 377.159 227.677C377.224 227.974 377.358 228.225 377.562 228.429C377.767 228.631 378.031 228.775 378.355 228.862C378.572 228.92 378.776 228.943 378.968 228.929C379.16 228.913 379.337 228.862 379.498 228.776C379.66 228.69 379.797 228.566 379.911 228.406L381.26 228.935C381.074 229.279 380.821 229.555 380.5 229.763C380.183 229.97 379.814 230.097 379.392 230.146C378.971 230.192 378.514 230.149 378.023 230.017Z" fill="#111827"/>
</g>
</g>
<g filter="url(#filter5_d_414_930)">
<g clip-path="url(#clip3_414_930)">
<rect x="229" y="129" width="90" height="80" rx="8" transform="rotate(-30 229 129)" fill="white"/>
<path d="M276.126 132.337C276.227 132.881 276.748 133.239 277.291 133.139C277.835 133.039 278.193 132.517 278.093 131.974L276.126 132.337ZM276.006 126.176L275.022 126.358L275.022 126.358L276.006 126.176ZM276.599 124.462L275.939 123.711L275.939 123.711L276.599 124.462ZM285.77 116.403L286.711 116.065C286.599 115.753 286.34 115.517 286.019 115.435C285.699 115.352 285.358 115.433 285.11 115.652L285.77 116.403ZM289.935 127.987L288.994 128.325L288.994 128.325L289.935 127.987ZM289.558 129.854L288.822 129.176L288.822 129.176L289.558 129.854ZM284.658 133.698C284.283 134.104 284.309 134.737 284.716 135.111C285.122 135.485 285.755 135.459 286.129 135.053L284.658 133.698ZM286.656 116.958C286.799 116.424 286.483 115.876 285.949 115.733C285.416 115.59 284.868 115.907 284.725 116.44L286.656 116.958ZM282.822 123.54C282.679 124.074 282.996 124.622 283.529 124.765C284.063 124.908 284.611 124.591 284.754 124.058L282.822 123.54ZM276.275 137.639L276.016 138.605L276.016 138.605L276.275 137.639ZM275.408 136.139L276.374 136.398L276.374 136.398L275.408 136.139ZM284.875 138.676L285.841 138.934L285.841 138.934L284.875 138.676ZM283.375 139.542L283.633 138.576L283.633 138.576L283.375 139.542ZM284.801 134.217L284.543 135.183L284.543 135.183L284.801 134.217ZM285.668 135.717L284.702 135.458L284.702 135.458L285.668 135.717ZM277.701 132.314L277.96 131.348L277.96 131.348L277.701 132.314ZM276.201 133.181L275.235 132.922L275.235 132.922L276.201 133.181ZM278.093 131.974L276.989 125.995L275.022 126.358L276.126 132.337L278.093 131.974ZM277.26 125.213L286.43 117.154L285.11 115.652L275.939 123.711L277.26 125.213ZM284.829 116.741L288.994 128.325L290.876 127.649L286.711 116.065L284.829 116.741ZM288.822 129.176L284.658 133.698L286.129 135.053L290.293 130.531L288.822 129.176ZM288.994 128.325C289.1 128.619 289.033 128.947 288.822 129.176L290.293 130.531C291.009 129.754 291.234 128.643 290.876 127.649L288.994 128.325ZM276.989 125.995C276.935 125.705 277.038 125.408 277.26 125.213L275.939 123.711C275.189 124.37 274.841 125.376 275.022 126.358L276.989 125.995ZM284.725 116.44L282.822 123.54L284.754 124.058L286.656 116.958L284.725 116.44ZM277.443 133.28L284.543 135.183L285.06 133.251L277.96 131.348L277.443 133.28ZM284.702 135.458L283.909 138.417L285.841 138.934L286.634 135.976L284.702 135.458ZM283.633 138.576L276.533 136.673L276.016 138.605L283.116 140.508L283.633 138.576ZM276.374 136.398L277.167 133.439L275.235 132.922L274.442 135.88L276.374 136.398ZM276.533 136.673C276.413 136.641 276.342 136.518 276.374 136.398L274.442 135.88C274.124 137.067 274.829 138.287 276.016 138.605L276.533 136.673ZM283.909 138.417C283.877 138.537 283.754 138.608 283.633 138.576L283.116 140.508C284.303 140.826 285.523 140.121 285.841 138.934L283.909 138.417ZM284.543 135.183C284.663 135.215 284.734 135.338 284.702 135.458L286.634 135.976C286.952 134.789 286.247 133.569 285.06 133.251L284.543 135.183ZM277.96 131.348C276.773 131.03 275.553 131.735 275.235 132.922L277.167 133.439C277.199 133.319 277.323 133.248 277.443 133.28L277.96 131.348ZM284.396 127.133C284.189 127.906 283.394 128.365 282.62 128.158L282.102 130.09C283.943 130.583 285.835 129.491 286.328 127.65L284.396 127.133ZM282.62 128.158C281.846 127.951 281.387 127.156 281.595 126.382L279.663 125.864C279.17 127.705 280.262 129.597 282.102 130.09L282.62 128.158ZM281.595 126.382C281.802 125.608 282.597 125.149 283.371 125.356L283.888 123.425C282.048 122.931 280.156 124.024 279.663 125.864L281.595 126.382ZM283.371 125.356C284.144 125.564 284.603 126.359 284.396 127.133L286.328 127.65C286.821 125.81 285.729 123.918 283.888 123.425L283.371 125.356Z" fill="#6D7280"/>
<path d="M277.304 172.703L275.843 173.547L274.14 164.452L275.83 163.476L282.859 169.496L281.397 170.34L275.91 165.497L275.851 165.531L277.304 172.703ZM275.641 169.712L279.627 167.411L280.262 168.51L276.276 170.811L275.641 169.712ZM283.213 164.863L285.131 168.184L283.795 168.955L280.522 163.287L281.799 162.55L282.355 163.513L282.422 163.475C282.369 163.082 282.431 162.71 282.609 162.358C282.789 162.005 283.09 161.706 283.513 161.462C283.904 161.236 284.293 161.123 284.68 161.122C285.07 161.121 285.436 161.232 285.779 161.457C286.125 161.681 286.427 162.02 286.686 162.474L288.77 166.083L287.434 166.855L285.469 163.452C285.251 163.073 284.981 162.833 284.661 162.733C284.343 162.631 284.011 162.68 283.667 162.879C283.433 163.014 283.255 163.185 283.133 163.394C283.011 163.598 282.954 163.826 282.962 164.078C282.972 164.328 283.056 164.59 283.213 164.863ZM289.546 161.207L291.464 164.528L290.128 165.299L286.855 159.631L288.132 158.893L288.688 159.857L288.755 159.818C288.702 159.426 288.764 159.053 288.941 158.702C289.121 158.349 289.423 158.05 289.846 157.805C290.237 157.58 290.626 157.467 291.013 157.466C291.403 157.464 291.769 157.576 292.112 157.801C292.458 158.025 292.76 158.364 293.019 158.818L295.103 162.427L293.767 163.198L291.802 159.796C291.583 159.417 291.314 159.177 290.993 159.077C290.675 158.975 290.344 159.024 290 159.222C289.766 159.357 289.588 159.529 289.466 159.737C289.344 159.942 289.287 160.17 289.295 160.422C289.305 160.672 289.388 160.933 289.546 161.207ZM298.997 160.326C298.444 160.646 297.894 160.801 297.347 160.792C296.8 160.783 296.289 160.624 295.812 160.315C295.338 160.005 294.932 159.557 294.593 158.971C294.255 158.386 294.07 157.809 294.037 157.241C294.007 156.671 294.124 156.147 294.39 155.669C294.655 155.191 295.064 154.793 295.618 154.473C296.171 154.153 296.722 153.998 297.268 154.007C297.815 154.017 298.326 154.178 298.802 154.49C299.28 154.801 299.688 155.25 300.026 155.835C300.364 156.421 300.547 156.997 300.576 157.564C300.608 158.13 300.491 158.652 300.225 159.13C299.96 159.608 299.551 160.007 298.997 160.326ZM298.387 159.252C298.687 159.078 298.89 158.851 298.997 158.57C299.102 158.286 299.123 157.975 299.059 157.638C298.998 157.299 298.868 156.958 298.669 156.613C298.469 156.266 298.237 155.982 297.975 155.76C297.713 155.534 297.433 155.395 297.135 155.344C296.836 155.293 296.537 155.355 296.237 155.528C295.929 155.706 295.722 155.937 295.614 156.222C295.509 156.506 295.488 156.818 295.55 157.16C295.614 157.497 295.745 157.839 295.946 158.186C296.145 158.53 296.374 158.814 296.635 159.038C296.897 159.26 297.178 159.397 297.476 159.448C297.776 159.495 298.079 159.429 298.387 159.252ZM302.341 150.69L302.938 151.723L299.679 153.605L299.082 152.571L302.341 150.69ZM299.103 150.749L300.439 149.977L303.511 155.299C303.615 155.479 303.722 155.601 303.831 155.665C303.942 155.726 304.052 155.748 304.163 155.729C304.274 155.711 304.385 155.67 304.496 155.606C304.579 155.558 304.652 155.508 304.714 155.456C304.778 155.402 304.826 155.36 304.857 155.329L305.685 156.243C305.628 156.309 305.542 156.395 305.426 156.501C305.312 156.606 305.162 156.716 304.976 156.83C304.647 157.033 304.316 157.157 303.984 157.201C303.651 157.242 303.337 157.191 303.043 157.045C302.752 156.899 302.505 156.647 302.303 156.292L299.103 150.749ZM308.428 154.886C308.069 155.093 307.709 155.216 307.347 155.254C306.986 155.289 306.649 155.228 306.336 155.071C306.024 154.912 305.762 154.648 305.547 154.276C305.362 153.956 305.269 153.658 305.266 153.38C305.264 153.103 305.328 152.843 305.46 152.599C305.592 152.356 305.767 152.128 305.986 151.917C306.206 151.701 306.445 151.499 306.704 151.31C307.016 151.084 307.268 150.898 307.459 150.752C307.648 150.603 307.773 150.472 307.832 150.359C307.893 150.242 307.886 150.119 307.812 149.992L307.799 149.969C307.639 149.691 307.432 149.524 307.179 149.466C306.926 149.409 306.645 149.47 306.335 149.649C306.007 149.838 305.789 150.059 305.68 150.312C305.573 150.564 305.542 150.807 305.588 151.04L304.238 151.583C304.138 151.181 304.134 150.8 304.227 150.438C304.318 150.073 304.494 149.739 304.754 149.434C305.013 149.127 305.341 148.859 305.737 148.631C306.01 148.473 306.301 148.348 306.608 148.256C306.916 148.164 307.224 148.127 307.533 148.145C307.841 148.161 308.135 148.255 308.415 148.428C308.698 148.599 308.948 148.873 309.165 149.25L311.355 153.044L310.071 153.785L309.621 153.006L309.577 153.032C309.587 153.236 309.558 153.45 309.49 153.673C309.423 153.892 309.303 154.107 309.129 154.319C308.957 154.526 308.724 154.715 308.428 154.886ZM308.209 153.704C308.477 153.549 308.679 153.362 308.814 153.143C308.949 152.921 309.018 152.691 309.021 152.452C309.027 152.213 308.97 151.988 308.849 151.779L308.463 151.111C308.441 151.17 308.389 151.243 308.305 151.331C308.223 151.417 308.128 151.507 308.017 151.6C307.907 151.693 307.797 151.783 307.686 151.87C307.575 151.957 307.479 152.032 307.398 152.095C307.214 152.238 307.061 152.385 306.94 152.537C306.818 152.69 306.743 152.848 306.716 153.011C306.687 153.172 306.723 153.338 306.822 153.51C306.964 153.756 307.161 153.89 307.413 153.912C307.665 153.934 307.931 153.865 308.209 153.704ZM312.256 144.965L312.853 145.999L309.594 147.88L308.998 146.847L312.256 144.965ZM309.018 145.024L310.354 144.253L313.427 149.574C313.53 149.754 313.637 149.876 313.746 149.941C313.857 150.002 313.968 150.023 314.079 150.005C314.19 149.987 314.3 149.946 314.411 149.882C314.495 149.834 314.567 149.783 314.629 149.731C314.694 149.678 314.741 149.635 314.772 149.604L315.601 150.519C315.543 150.585 315.457 150.671 315.341 150.777C315.228 150.882 315.078 150.991 314.891 151.105C314.562 151.308 314.232 151.432 313.9 151.476C313.566 151.518 313.252 151.466 312.959 151.321C312.667 151.174 312.421 150.923 312.219 150.567L309.018 145.024ZM319.159 148.686C318.591 149.014 318.032 149.179 317.482 149.182C316.933 149.18 316.423 149.026 315.95 148.718C315.475 148.408 315.067 147.956 314.725 147.363C314.388 146.78 314.203 146.205 314.171 145.636C314.139 145.064 314.252 144.539 314.511 144.062C314.769 143.582 315.168 143.186 315.71 142.873C316.059 142.671 316.421 142.538 316.797 142.472C317.173 142.402 317.548 142.415 317.922 142.511C318.298 142.606 318.659 142.794 319.006 143.076C319.351 143.356 319.667 143.744 319.954 144.241L320.19 144.651L315.544 147.333L315.024 146.433L318.39 144.49C318.24 144.235 318.053 144.04 317.83 143.903C317.605 143.764 317.362 143.692 317.101 143.689C316.842 143.684 316.585 143.755 316.329 143.903C316.056 144.061 315.854 144.266 315.724 144.518C315.593 144.768 315.531 145.033 315.539 145.314C315.548 145.591 315.625 145.857 315.768 146.111L316.222 146.897C316.413 147.227 316.636 147.475 316.893 147.642C317.149 147.806 317.421 147.888 317.71 147.889C317.997 147.887 318.286 147.802 318.577 147.634C318.771 147.522 318.931 147.393 319.057 147.248C319.182 147.101 319.271 146.94 319.324 146.765C319.377 146.59 319.387 146.405 319.354 146.211L320.682 145.631C320.794 146.006 320.81 146.381 320.731 146.755C320.652 147.125 320.481 147.476 320.218 147.809C319.952 148.139 319.599 148.431 319.159 148.686Z" fill="#111827"/>
</g>
</g>
</g>
<defs>
<filter id="filter0_f_414_930" x="21" y="4.00002" width="456" height="380" filterUnits="userSpaceOnUse" color-interpolation-filters="sRGB">
<feFlood flood-opacity="0" result="BackgroundImageFix"/>
<feBlend mode="normal" in="SourceGraphic" in2="BackgroundImageFix" result="shape"/>
<feGaussianBlur stdDeviation="39.5" result="effect1_foregroundBlur_414_930"/>
</filter>
<filter id="filter1_f_414_930" x="211.92" y="-19.265" width="393.621" height="413.456" filterUnits="userSpaceOnUse" color-interpolation-filters="sRGB">
<feFlood flood-opacity="0" result="BackgroundImageFix"/>
<feBlend mode="normal" in="SourceGraphic" in2="BackgroundImageFix" result="shape"/>
<feGaussianBlur stdDeviation="39.5" result="effect1_foregroundBlur_414_930"/>
</filter>
<filter id="filter2_d_414_930" x="136.632" y="95.609" width="141.736" height="134.782" filterUnits="userSpaceOnUse" color-interpolation-filters="sRGB">
<feFlood flood-opacity="0" result="BackgroundImageFix"/>
<feColorMatrix in="SourceAlpha" type="matrix" values="0 0 0 0 0 0 0 0 0 0 0 0 0 0 0 0 0 0 127 0" result="hardAlpha"/>
<feOffset dy="2"/>
<feGaussianBlur stdDeviation="4"/>
<feComposite in2="hardAlpha" operator="out"/>
<feColorMatrix type="matrix" values="0 0 0 0 0 0 0 0 0 0 0 0 0 0 0 0 0 0 0.12 0"/>
<feBlend mode="normal" in2="BackgroundImageFix" result="effect1_dropShadow_414_930"/>
<feBlend mode="normal" in="SourceGraphic" in2="effect1_dropShadow_414_930" result="shape"/>
</filter>
<filter id="filter3_d_414_930" x="202.13" y="173.104" width="120.741" height="115.791" filterUnits="userSpaceOnUse" color-interpolation-filters="sRGB">
<feFlood flood-opacity="0" result="BackgroundImageFix"/>
<feColorMatrix in="SourceAlpha" type="matrix" values="0 0 0 0 0 0 0 0 0 0 0 0 0 0 0 0 0 0 127 0" result="hardAlpha"/>
<feOffset dy="2"/>
<feGaussianBlur stdDeviation="4"/>
<feComposite in2="hardAlpha" operator="out"/>
<feColorMatrix type="matrix" values="0 0 0 0 0 0 0 0 0 0 0 0 0 0 0 0 0 0 0.12 0"/>
<feBlend mode="normal" in2="BackgroundImageFix" result="effect1_dropShadow_414_930"/>
<feBlend mode="normal" in="SourceGraphic" in2="effect1_dropShadow_414_930" result="shape"/>
</filter>
<filter id="filter4_d_414_930" x="287" y="143" width="136.196" height="119.932" filterUnits="userSpaceOnUse" color-interpolation-filters="sRGB">
<feFlood flood-opacity="0" result="BackgroundImageFix"/>
<feColorMatrix in="SourceAlpha" type="matrix" values="0 0 0 0 0 0 0 0 0 0 0 0 0 0 0 0 0 0 127 0" result="hardAlpha"/>
<feOffset dy="2"/>
<feGaussianBlur stdDeviation="4"/>
<feComposite in2="hardAlpha" operator="out"/>
<feColorMatrix type="matrix" values="0 0 0 0 0 0 0 0 0 0 0 0 0 0 0 0 0 0 0.12 0"/>
<feBlend mode="normal" in2="BackgroundImageFix" result="effect1_dropShadow_414_930"/>
<feBlend mode="normal" in="SourceGraphic" in2="effect1_dropShadow_414_930" result="shape"/>
</filter>
<filter id="filter5_d_414_930" x="221" y="78" width="133.942" height="130.282" filterUnits="userSpaceOnUse" color-interpolation-filters="sRGB">
<feFlood flood-opacity="0" result="BackgroundImageFix"/>
<feColorMatrix in="SourceAlpha" type="matrix" values="0 0 0 0 0 0 0 0 0 0 0 0 0 0 0 0 0 0 127 0" result="hardAlpha"/>
<feOffset dy="2"/>
<feGaussianBlur stdDeviation="4"/>
<feComposite in2="hardAlpha" operator="out"/>
<feColorMatrix type="matrix" values="0 0 0 0 0 0 0 0 0 0 0 0 0 0 0 0 0 0 0.12 0"/>
<feBlend mode="normal" in2="BackgroundImageFix" result="effect1_dropShadow_414_930"/>
<feBlend mode="normal" in="SourceGraphic" in2="effect1_dropShadow_414_930" result="shape"/>
</filter>
<radialGradient id="paint0_angular_414_930" cx="0" cy="0" r="1" gradientUnits="userSpaceOnUse" gradientTransform="translate(249 194) rotate(-90) scale(111 149)">
<stop stop-color="#4F46E5"/>
<stop offset="0.390625" stop-color="#DB2777"/>
<stop offset="0.713542" stop-color="#F97316"/>
<stop offset="1" stop-color="#DC2626"/>
</radialGradient>
<radialGradient id="paint1_angular_414_930" cx="0" cy="0" r="1" gradientUnits="userSpaceOnUse" gradientTransform="translate(418.095 200.97) rotate(-30) scale(97.3497 130.473)">
<stop stop-color="#4F46E5"/>
<stop offset="0.390625" stop-color="#DB2777"/>
<stop offset="0.713542" stop-color="#F97316"/>
<stop offset="1" stop-color="#DC2626"/>
</radialGradient>
<clipPath id="clip0_414_930">
<rect width="594" height="382" fill="white"/>
</clipPath>
<clipPath id="clip1_414_930">
<rect x="184.632" y="101.609" width="99" height="80" rx="8" transform="rotate(30 184.632 101.609)" fill="white"/>
</clipPath>
<clipPath id="clip2_414_930">
<rect x="315.706" y="149" width="103" height="80" rx="8" transform="rotate(15 315.706 149)" fill="white"/>
</clipPath>
<clipPath id="clip3_414_930">
<rect x="229" y="129" width="90" height="80" rx="8" transform="rotate(-30 229 129)" fill="white"/>
</clipPath>
</defs>
</svg>
