<svg width="594" height="382" viewBox="0 0 594 382" fill="none" xmlns="http://www.w3.org/2000/svg">
<g clip-path="url(#clip0_412_757)">
<g filter="url(#filter0_f_412_757)">
<path d="M187.5 250.5C236.706 250.964 250.805 263.797 250 278.134C249.675 283.906 258.561 294.434 263.713 291.812C278.387 284.344 295.966 275.283 313.5 266C356 243.5 367 296 420.5 299.5C474 303 382.5 260.5 404 231.5C425.5 202.5 352 204 354 179.5C356 155 280.5 210.5 243.5 179.5C206.5 148.5 336 147.5 382.5 101C429 54.5 359 101 313.5 101C268 101 294.5 100.5 238.5 101C182.5 101.5 223 111.5 203 141.5C183 171.5 217 164 171 179.5C125 195 146 201 108 210.5C70 220 97 213.5 87.5 217.5C78 221.5 81.5 249.5 187.5 250.5Z" fill="url(#paint0_radial_412_757)" fill-opacity="0.32"/>
</g>
<g filter="url(#filter1_d_412_757)">
<g clip-path="url(#clip1_412_757)">
<rect x="414" y="77" width="143" height="166" rx="16" transform="rotate(30 414 77)" fill="#D7195F"/>
<rect x="416.242" y="90.6282" width="124.835" height="25" rx="7" transform="rotate(30 416.242 90.6282)" fill="white" fill-opacity="0.5"/>
<rect x="398.242" y="121.805" width="47.6699" height="100.031" rx="7" transform="rotate(30 398.242 121.805)" fill="white" fill-opacity="0.5"/>
<rect x="446.454" y="149.64" width="68.8988" height="25" rx="7" transform="rotate(30 446.454 149.64)" fill="white" fill-opacity="0.5"/>
<rect x="420.954" y="193.807" width="69" height="12" rx="6" transform="rotate(30 420.954 193.807)" fill="white" fill-opacity="0.5"/>
<rect x="411.454" y="210.262" width="69" height="12" rx="6" transform="rotate(30 411.454 210.262)" fill="white" fill-opacity="0.5"/>
<rect x="401.954" y="226.716" width="69" height="12" rx="6" transform="rotate(30 401.954 226.716)" fill="white" fill-opacity="0.5"/>
</g>
</g>
<path d="M333.638 245.839L332.75 251.038L336.118 255.096L330.919 254.208L326.861 257.576L327.749 252.377L324.381 248.319L329.579 249.207L333.638 245.839Z" stroke="#374151" stroke-width="2" stroke-linejoin="round"/>
<path d="M320.655 251.385L320.862 254.223L322.102 256.784L319.264 256.992L316.702 258.231L316.494 255.393L315.255 252.831L318.093 252.624L320.655 251.385Z" stroke="#374151" stroke-width="2" stroke-linejoin="round"/>
<path d="M352.257 268.146C351.709 269.096 351.061 269.807 350.314 270.279C349.571 270.75 348.791 270.988 347.972 270.994C347.157 271.002 346.363 270.782 345.591 270.337C344.818 269.891 344.23 269.312 343.826 268.6C343.426 267.887 343.243 267.091 343.277 266.211C343.315 265.33 343.607 264.415 344.154 263.468C344.703 262.518 345.348 261.808 346.091 261.337C346.838 260.865 347.619 260.625 348.435 260.618C349.253 260.612 350.049 260.832 350.821 261.278C351.593 261.724 352.18 262.302 352.581 263.012C352.985 263.723 353.168 264.52 353.13 265.401C353.097 266.281 352.806 267.196 352.257 268.146ZM350.651 267.219C351.037 266.55 351.258 265.926 351.314 265.346C351.374 264.764 351.288 264.25 351.057 263.802C350.827 263.352 350.472 262.988 349.993 262.712C349.514 262.435 349.021 262.31 348.516 262.336C348.013 262.359 347.523 262.541 347.047 262.882C346.575 263.222 346.146 263.727 345.76 264.395C345.374 265.064 345.151 265.689 345.091 266.271C345.035 266.851 345.122 267.366 345.352 267.817C345.584 268.264 345.939 268.626 346.418 268.903C346.898 269.18 347.389 269.306 347.892 269.283C348.397 269.257 348.886 269.074 349.357 268.734C349.834 268.393 350.265 267.888 350.651 267.219ZM360.594 270.836C360.657 270.562 360.678 270.297 360.658 270.04C360.642 269.782 360.585 269.537 360.486 269.303C360.39 269.072 360.249 268.859 360.063 268.663C359.879 268.465 359.655 268.29 359.391 268.137C358.917 267.864 358.426 267.74 357.919 267.764C357.411 267.788 356.917 267.97 356.438 268.31C355.963 268.648 355.535 269.147 355.154 269.808C354.77 270.474 354.549 271.098 354.492 271.681C354.434 272.264 354.523 272.784 354.757 273.241C354.992 273.694 355.357 274.064 355.851 274.349C356.298 274.607 356.736 274.745 357.162 274.762C357.592 274.78 357.987 274.683 358.347 274.47C358.709 274.254 359.013 273.932 359.26 273.504L359.59 273.769L357.196 272.387L357.917 271.138L361.494 273.204L360.883 274.263C360.447 275.018 359.909 275.578 359.27 275.944C358.63 276.309 357.943 276.479 357.208 276.453C356.475 276.423 355.743 276.198 355.014 275.777C354.202 275.308 353.594 274.714 353.19 273.995C352.791 273.275 352.614 272.478 352.659 271.605C352.708 270.73 353.001 269.828 353.538 268.898C353.949 268.186 354.417 267.608 354.941 267.164C355.468 266.722 356.026 266.411 356.616 266.231C357.208 266.049 357.808 265.997 358.416 266.077C359.027 266.153 359.62 266.358 360.197 266.691C360.685 266.973 361.099 267.307 361.438 267.695C361.778 268.079 362.037 268.496 362.213 268.946C362.393 269.398 362.485 269.865 362.49 270.346C362.495 270.827 362.406 271.304 362.222 271.775L360.594 270.836ZM363.382 280.448L368.473 271.63L371.779 273.539C372.457 273.93 372.952 274.385 373.265 274.902C373.582 275.422 373.73 275.97 373.71 276.548C373.695 277.125 373.526 277.693 373.202 278.253C372.876 278.818 372.467 279.252 371.975 279.554C371.483 279.855 370.932 279.998 370.321 279.982C369.712 279.963 369.067 279.758 368.387 279.365L366.195 278.1L366.954 276.786L368.93 277.927C369.326 278.156 369.69 278.274 370.022 278.283C370.354 278.291 370.65 278.209 370.91 278.037C371.173 277.868 371.394 277.626 371.575 277.313C371.756 277 371.853 276.689 371.867 276.38C371.884 276.072 371.803 275.778 371.624 275.499C371.449 275.218 371.162 274.962 370.763 274.732L369.299 273.887L364.979 281.37L363.382 280.448ZM371.115 284.913L374.934 278.299L376.492 279.199L372.674 285.813L371.115 284.913ZM376.259 277.813C376.012 277.671 375.847 277.466 375.764 277.2C375.682 276.931 375.708 276.68 375.842 276.447C375.978 276.212 376.182 276.064 376.455 276.003C376.729 275.939 376.989 275.979 377.236 276.121C377.486 276.265 377.65 276.471 377.729 276.739C377.813 277.005 377.786 277.256 377.651 277.491C377.516 277.724 377.312 277.872 377.038 277.936C376.769 277.998 376.509 277.957 376.259 277.813ZM378.073 283.763L375.835 287.638L374.277 286.738L378.095 280.125L379.585 280.985L378.936 282.109L379.013 282.153C379.379 281.871 379.792 281.717 380.251 281.691C380.712 281.666 381.19 281.797 381.684 282.082C382.14 282.345 382.481 282.672 382.707 283.063C382.936 283.456 383.037 283.891 383.01 284.369C382.986 284.848 382.82 285.352 382.512 285.878L380.081 290.089L378.522 289.189L380.814 285.219C381.069 284.777 381.154 284.365 381.069 283.983C380.986 283.602 380.744 283.296 380.342 283.064C380.069 282.906 379.792 282.827 379.51 282.825C379.232 282.821 378.969 282.897 378.719 283.051C378.472 283.207 378.257 283.444 378.073 283.763ZM384.284 289.749L385.366 287.865L385.616 288.009L389.526 286.724L391.347 287.776L386.545 289.343L386.222 289.157L384.284 289.749ZM381.665 291.004L386.756 282.186L388.315 283.086L383.224 291.903L381.665 291.004ZM385.816 293.4L385.4 289.147L387.085 288.656L387.68 294.476L385.816 293.4Z" fill="#374151"/>
<g filter="url(#filter2_d_412_757)">
<rect x="221" y="54" width="142" height="166" rx="16" fill="#111827"/>
<rect x="229.756" y="64.6814" width="124.835" height="25" rx="7" fill="white" fill-opacity="0.5"/>
<rect x="229.756" y="100.681" width="47.6699" height="100.031" rx="7" fill="white" fill-opacity="0.5"/>
<rect x="285.426" y="100.681" width="68.8988" height="25" rx="7" fill="white" fill-opacity="0.5"/>
<rect x="285.426" y="151.681" width="69" height="12" rx="6" fill="white" fill-opacity="0.5"/>
<rect x="285.426" y="170.681" width="69" height="12" rx="6" fill="white" fill-opacity="0.5"/>
<rect x="285.426" y="189.681" width="69" height="12" rx="6" fill="white" fill-opacity="0.5"/>
<rect x="221.5" y="54.5" width="141" height="165" rx="15.5" stroke="white"/>
</g>
<path d="M239.9 249.7V246.7M239.9 246.7V243.7M239.9 246.7L242.9 246.7M239.9 246.7H236.9M235.1 243.7V241.9M235.1 241.9V240.1M235.1 241.9L236.9 241.9M235.1 241.9L233.3 241.9M242.3 252.94C241.398 253.213 240.44 253.36 239.449 253.36C234.031 253.36 229.639 248.968 229.639 243.55C229.639 242.559 229.786 241.602 230.059 240.7C226.031 241.922 223.1 245.663 223.1 250.09C223.1 255.508 227.492 259.9 232.91 259.9C237.337 259.9 241.079 256.968 242.3 252.94Z" stroke="#374151" stroke-width="2" stroke-linecap="round" stroke-linejoin="round"/>
<path d="M257.455 255.5H254.004V245.318H257.524C258.535 245.318 259.403 245.522 260.129 245.93C260.858 246.334 261.419 246.916 261.81 247.675C262.201 248.434 262.396 249.342 262.396 250.399C262.396 251.46 262.199 252.371 261.805 253.134C261.414 253.896 260.848 254.481 260.109 254.888C259.374 255.296 258.489 255.5 257.455 255.5ZM255.849 253.904H257.365C258.074 253.904 258.666 253.775 259.14 253.516C259.614 253.254 259.97 252.865 260.209 252.348C260.447 251.828 260.567 251.178 260.567 250.399C260.567 249.62 260.447 248.974 260.209 248.46C259.97 247.943 259.617 247.557 259.15 247.302C258.686 247.043 258.109 246.914 257.42 246.914H255.849V253.904ZM266.267 255.654C265.783 255.654 265.347 255.568 264.959 255.396C264.575 255.22 264.27 254.961 264.044 254.62C263.822 254.279 263.711 253.858 263.711 253.357C263.711 252.926 263.791 252.57 263.95 252.288C264.109 252.007 264.326 251.781 264.601 251.612C264.876 251.443 265.186 251.316 265.531 251.229C265.879 251.14 266.239 251.075 266.61 251.036C267.057 250.989 267.42 250.948 267.699 250.911C267.977 250.871 268.179 250.812 268.305 250.732C268.434 250.649 268.499 250.522 268.499 250.349V250.32C268.499 249.945 268.388 249.655 268.166 249.45C267.944 249.244 267.624 249.141 267.206 249.141C266.766 249.141 266.416 249.237 266.157 249.43C265.902 249.622 265.73 249.849 265.64 250.111L263.96 249.872C264.092 249.408 264.311 249.02 264.616 248.709C264.921 248.394 265.294 248.159 265.735 248.003C266.176 247.844 266.663 247.764 267.196 247.764C267.564 247.764 267.931 247.807 268.295 247.893C268.66 247.98 268.993 248.122 269.294 248.321C269.596 248.517 269.838 248.783 270.02 249.121C270.206 249.46 270.299 249.882 270.299 250.389V255.5H268.569V254.451H268.509C268.4 254.663 268.245 254.862 268.047 255.048C267.851 255.23 267.604 255.377 267.306 255.49C267.011 255.599 266.664 255.654 266.267 255.654ZM266.734 254.332C267.095 254.332 267.408 254.26 267.674 254.118C267.939 253.972 268.143 253.78 268.285 253.541C268.431 253.303 268.504 253.042 268.504 252.761V251.861C268.448 251.907 268.351 251.95 268.216 251.99C268.083 252.03 267.934 252.065 267.768 252.094C267.602 252.124 267.438 252.151 267.276 252.174C267.114 252.197 266.973 252.217 266.853 252.234C266.585 252.27 266.345 252.33 266.132 252.413C265.92 252.496 265.753 252.612 265.63 252.761C265.508 252.906 265.446 253.095 265.446 253.327C265.446 253.659 265.567 253.909 265.809 254.078C266.051 254.247 266.359 254.332 266.734 254.332ZM272.108 255.5V247.864H273.853V249.136H273.933C274.072 248.696 274.311 248.356 274.649 248.117C274.99 247.875 275.38 247.754 275.817 247.754C275.917 247.754 276.028 247.759 276.15 247.769C276.276 247.776 276.381 247.787 276.463 247.804V249.46C276.387 249.433 276.266 249.41 276.1 249.39C275.938 249.367 275.781 249.355 275.628 249.355C275.3 249.355 275.005 249.426 274.743 249.569C274.485 249.708 274.281 249.902 274.132 250.151C273.983 250.399 273.908 250.686 273.908 251.011V255.5H272.108ZM279.3 253.104L279.295 250.931H279.583L282.327 247.864H284.43L281.055 251.622H280.682L279.3 253.104ZM277.659 255.5V245.318H279.459V255.5H277.659ZM282.452 255.5L279.966 252.025L281.179 250.757L284.604 255.5H282.452Z" fill="#374151"/>
<g filter="url(#filter3_d_412_757)">
<g clip-path="url(#clip2_412_757)">
<rect x="57" y="99.0111" width="143" height="166" rx="16" transform="rotate(-15 57 99.0111)" fill="white"/>
<rect x="67.7672" y="107.224" width="124.835" height="25" rx="7" transform="rotate(-15 67.7672 107.224)" fill="#111827" fill-opacity="0.5"/>
<rect x="77.0847" y="141.997" width="47.6699" height="100.031" rx="7" transform="rotate(-15 77.0847 141.997)" fill="#111827" fill-opacity="0.5"/>
<rect x="130.858" y="127.589" width="68.8988" height="25" rx="7" transform="rotate(-15 130.858 127.589)" fill="#111827" fill-opacity="0.5"/>
<rect x="144.057" y="176.851" width="69" height="12" rx="6" transform="rotate(-15 144.057 176.851)" fill="#111827" fill-opacity="0.5"/>
<rect x="148.975" y="195.203" width="69" height="12" rx="6" transform="rotate(-15 148.975 195.203)" fill="#111827" fill-opacity="0.5"/>
<rect x="153.893" y="213.556" width="69" height="12" rx="6" transform="rotate(-15 153.893 213.556)" fill="#111827" fill-opacity="0.5"/>
</g>
</g>
<path d="M117.006 276.593L116.835 275.954M121.804 294.5L121.633 293.86M127.953 282.913L128.593 282.742M110.047 287.711L110.686 287.54M123.789 277.486L124.12 276.913M114.519 293.541L114.85 292.967M127.061 289.695L127.634 290.027M111.005 280.427L111.579 280.758M124.414 283.824C125.171 286.65 123.494 289.554 120.669 290.311C117.843 291.068 114.939 289.392 114.182 286.566C113.425 283.74 115.101 280.836 117.927 280.079C120.752 279.322 123.657 280.999 124.414 283.824Z" stroke="#374151" stroke-width="2" stroke-linecap="round"/>
<path d="M144.364 284.21L141.032 285.103L138.396 275.268L141.796 274.357C142.773 274.096 143.664 274.068 144.471 274.274C145.28 274.475 145.972 274.892 146.546 275.524C147.12 276.156 147.544 276.983 147.818 278.004C148.092 279.028 148.137 279.96 147.954 280.798C147.773 281.636 147.379 282.347 146.77 282.932C146.165 283.516 145.363 283.942 144.364 284.21ZM142.4 283.084L143.865 282.692C144.55 282.508 145.088 282.23 145.479 281.858C145.869 281.482 146.112 281.014 146.209 280.453C146.305 279.888 146.252 279.23 146.05 278.477C145.849 277.725 145.566 277.132 145.203 276.697C144.838 276.26 144.398 275.978 143.88 275.852C143.365 275.723 142.774 275.747 142.109 275.926L140.591 276.332L142.4 283.084ZM152.916 282.078C152.449 282.203 152.005 282.233 151.586 282.167C151.169 282.097 150.808 281.926 150.502 281.654C150.199 281.382 149.983 281.004 149.853 280.521C149.742 280.105 149.726 279.74 149.807 279.427C149.888 279.113 150.039 278.84 150.261 278.605C150.483 278.371 150.75 278.167 151.06 277.995C151.373 277.818 151.704 277.663 152.052 277.528C152.472 277.368 152.812 277.234 153.072 277.126C153.33 277.016 153.51 276.906 153.611 276.796C153.715 276.683 153.744 276.543 153.699 276.376L153.692 276.348C153.595 275.986 153.412 275.735 153.145 275.593C152.877 275.452 152.542 275.436 152.138 275.544C151.712 275.658 151.399 275.842 151.2 276.094C151.003 276.346 150.895 276.61 150.876 276.886L149.191 277.09C149.199 276.608 149.31 276.177 149.524 275.797C149.737 275.414 150.037 275.09 150.422 274.825C150.807 274.558 151.257 274.355 151.772 274.216C152.127 274.121 152.492 274.068 152.867 274.057C153.241 274.046 153.6 274.097 153.943 274.211C154.285 274.322 154.587 274.517 154.851 274.797C155.118 275.075 155.317 275.459 155.448 275.949L156.771 280.886L155.1 281.334L154.828 280.32L154.771 280.336C154.72 280.569 154.622 280.801 154.478 281.032C154.337 281.258 154.136 281.465 153.877 281.651C153.621 281.833 153.3 281.975 152.916 282.078ZM153.025 280.68C153.374 280.586 153.658 280.436 153.878 280.23C154.096 280.021 154.243 279.782 154.319 279.515C154.398 279.247 154.401 278.976 154.328 278.704L154.095 277.835C154.053 277.894 153.971 277.961 153.85 278.035C153.733 278.107 153.597 278.179 153.445 278.251C153.293 278.323 153.141 278.391 152.99 278.455C152.839 278.52 152.709 278.576 152.598 278.622C152.348 278.727 152.131 278.847 151.948 278.982C151.764 279.117 151.632 279.272 151.553 279.448C151.472 279.621 151.462 279.819 151.522 280.043C151.607 280.363 151.789 280.574 152.066 280.674C152.344 280.775 152.664 280.777 153.025 280.68ZM160.076 282.965C159.839 283.028 159.615 283.068 159.403 283.083C159.195 283.101 159.025 283.102 158.894 283.086L158.935 281.624C159.207 281.629 159.442 281.604 159.64 281.548C159.838 281.491 159.995 281.382 160.113 281.22C160.235 281.061 160.312 280.827 160.343 280.521L160.385 280.082L155.692 273.269L157.536 272.775L160.729 277.89L160.806 277.869L161.018 271.842L162.867 271.347L162.129 280.407C162.096 280.835 162.003 281.218 161.851 281.558C161.699 281.9 161.478 282.189 161.188 282.425C160.901 282.663 160.531 282.843 160.076 282.965ZM165.149 268.1L167.785 277.935L166.046 278.4L163.411 268.566L165.149 268.1ZM169.572 277.456L167.596 270.079L169.334 269.614L171.311 276.99L169.572 277.456ZM168.189 268.798C167.914 268.872 167.653 268.844 167.405 268.715C167.157 268.583 166.998 268.387 166.929 268.127C166.858 267.865 166.898 267.616 167.048 267.38C167.196 267.141 167.408 266.985 167.684 266.911C167.962 266.836 168.224 266.866 168.469 266.999C168.716 267.129 168.875 267.324 168.946 267.587C169.015 267.846 168.975 268.095 168.827 268.334C168.68 268.569 168.468 268.724 168.189 268.798ZM177.088 278.571C176.464 278.738 175.905 278.797 175.412 278.748C174.919 278.701 174.499 278.574 174.151 278.365C173.803 278.156 173.531 277.894 173.333 277.58L174.797 276.781C174.906 276.907 175.047 277.022 175.219 277.126C175.392 277.234 175.605 277.304 175.857 277.336C176.113 277.371 176.416 277.341 176.765 277.247C177.258 277.115 177.634 276.886 177.893 276.559C178.153 276.236 178.21 275.802 178.064 275.258L177.689 273.86L177.603 273.883C177.561 274.087 177.479 274.306 177.357 274.541C177.238 274.775 177.055 274.994 176.807 275.198C176.563 275.401 176.23 275.558 175.807 275.672C175.241 275.824 174.691 275.828 174.159 275.686C173.629 275.54 173.157 275.238 172.742 274.779C172.33 274.316 172.016 273.683 171.801 272.88C171.584 272.07 171.535 271.35 171.655 270.721C171.777 270.088 172.03 269.566 172.414 269.154C172.797 268.739 173.272 268.456 173.838 268.304C174.27 268.188 174.645 268.166 174.963 268.239C175.284 268.308 175.555 268.422 175.776 268.582C175.997 268.74 176.174 268.896 176.309 269.052L176.405 269.026L176.078 267.807L177.792 267.347L179.801 274.844C179.97 275.474 179.959 276.036 179.769 276.53C179.578 277.024 179.25 277.443 178.783 277.788C178.316 278.132 177.751 278.393 177.088 278.571ZM175.927 274.178C176.295 274.079 176.585 273.906 176.796 273.657C177.007 273.408 177.135 273.098 177.179 272.725C177.224 272.353 177.183 271.932 177.057 271.461C176.933 270.997 176.756 270.608 176.528 270.295C176.304 269.982 176.036 269.764 175.725 269.641C175.417 269.514 175.075 269.501 174.701 269.601C174.313 269.705 174.017 269.893 173.812 270.164C173.606 270.435 173.485 270.764 173.448 271.152C173.411 271.536 173.451 271.95 173.571 272.395C173.691 272.847 173.863 273.225 174.085 273.529C174.31 273.829 174.577 274.039 174.887 274.158C175.199 274.273 175.546 274.28 175.927 274.178ZM182.13 269.458L183.289 273.78L181.55 274.246L178.915 264.411L180.615 263.956L181.61 267.668L181.696 267.645C181.757 267.182 181.937 266.782 182.234 266.445C182.534 266.104 182.966 265.858 183.529 265.707C184.041 265.57 184.517 265.558 184.955 265.67C185.393 265.782 185.772 266.017 186.091 266.374C186.413 266.731 186.654 267.207 186.813 267.802L188.072 272.499L186.333 272.965L185.147 268.537C185.014 268.041 184.782 267.689 184.452 267.483C184.125 267.272 183.732 267.228 183.274 267.35C182.967 267.433 182.71 267.574 182.502 267.773C182.298 267.969 182.16 268.21 182.089 268.497C182.021 268.782 182.035 269.103 182.13 269.458ZM191.55 263.661L191.911 265.005L187.67 266.142L187.31 264.797L191.55 263.661ZM187.883 262.749L189.622 262.284L191.477 269.208C191.54 269.442 191.623 269.612 191.727 269.718C191.833 269.82 191.952 269.877 192.082 269.89C192.213 269.903 192.35 269.891 192.494 269.852C192.603 269.823 192.7 269.788 192.785 269.748C192.874 269.707 192.94 269.674 192.985 269.648L193.642 270.929C193.558 270.986 193.434 271.057 193.272 271.141C193.112 271.225 192.91 271.303 192.665 271.376C192.233 271.505 191.824 271.545 191.436 271.494C191.048 271.441 190.71 271.287 190.423 271.035C190.139 270.782 189.936 270.424 189.816 269.962L187.883 262.749Z" fill="#374151"/>
</g>
<defs>
<filter id="filter0_f_412_757" x="-3.93646" y="-7.66667" width="529.481" height="395.37" filterUnits="userSpaceOnUse" color-interpolation-filters="sRGB">
<feFlood flood-opacity="0" result="BackgroundImageFix"/>
<feBlend mode="normal" in="SourceGraphic" in2="BackgroundImageFix" result="shape"/>
<feGaussianBlur stdDeviation="44" result="effect1_foregroundBlur_412_757"/>
</filter>
<filter id="filter1_d_412_757" x="323" y="71" width="222.842" height="231.26" filterUnits="userSpaceOnUse" color-interpolation-filters="sRGB">
<feFlood flood-opacity="0" result="BackgroundImageFix"/>
<feColorMatrix in="SourceAlpha" type="matrix" values="0 0 0 0 0 0 0 0 0 0 0 0 0 0 0 0 0 0 127 0" result="hardAlpha"/>
<feOffset dy="2"/>
<feGaussianBlur stdDeviation="4"/>
<feComposite in2="hardAlpha" operator="out"/>
<feColorMatrix type="matrix" values="0 0 0 0 0 0 0 0 0 0 0 0 0 0 0 0 0 0 0.12 0"/>
<feBlend mode="normal" in2="BackgroundImageFix" result="effect1_dropShadow_412_757"/>
<feBlend mode="normal" in="SourceGraphic" in2="effect1_dropShadow_412_757" result="shape"/>
</filter>
<filter id="filter2_d_412_757" x="213" y="48" width="158" height="182" filterUnits="userSpaceOnUse" color-interpolation-filters="sRGB">
<feFlood flood-opacity="0" result="BackgroundImageFix"/>
<feColorMatrix in="SourceAlpha" type="matrix" values="0 0 0 0 0 0 0 0 0 0 0 0 0 0 0 0 0 0 127 0" result="hardAlpha"/>
<feOffset dy="2"/>
<feGaussianBlur stdDeviation="4"/>
<feComposite in2="hardAlpha" operator="out"/>
<feColorMatrix type="matrix" values="0 0 0 0 0 0 0 0 0 0 0 0 0 0 0 0 0 0 0.12 0"/>
<feBlend mode="normal" in2="BackgroundImageFix" result="effect1_dropShadow_412_757"/>
<feBlend mode="normal" in="SourceGraphic" in2="effect1_dropShadow_412_757" result="shape"/>
</filter>
<filter id="filter3_d_412_757" x="48" y="55" width="199.091" height="215.355" filterUnits="userSpaceOnUse" color-interpolation-filters="sRGB">
<feFlood flood-opacity="0" result="BackgroundImageFix"/>
<feColorMatrix in="SourceAlpha" type="matrix" values="0 0 0 0 0 0 0 0 0 0 0 0 0 0 0 0 0 0 127 0" result="hardAlpha"/>
<feOffset dy="2"/>
<feGaussianBlur stdDeviation="4.5"/>
<feComposite in2="hardAlpha" operator="out"/>
<feColorMatrix type="matrix" values="0 0 0 0 0 0 0 0 0 0 0 0 0 0 0 0 0 0 0.12 0"/>
<feBlend mode="normal" in2="BackgroundImageFix" result="effect1_dropShadow_412_757"/>
<feBlend mode="normal" in="SourceGraphic" in2="effect1_dropShadow_412_757" result="shape"/>
</filter>
<radialGradient id="paint0_radial_412_757" cx="0" cy="0" r="1" gradientUnits="userSpaceOnUse" gradientTransform="translate(260.804 193.917) rotate(90) scale(113.583 176.74)">
<stop stop-color="#FB923C"/>
<stop offset="0.322917" stop-color="#E94380"/>
<stop offset="0.697917" stop-color="#DB2777"/>
<stop offset="1" stop-color="#4F46E5"/>
</radialGradient>
<clipPath id="clip0_412_757">
<rect width="594" height="382" fill="white"/>
</clipPath>
<clipPath id="clip1_412_757">
<rect x="414" y="77" width="143" height="166" rx="16" transform="rotate(30 414 77)" fill="white"/>
</clipPath>
<clipPath id="clip2_412_757">
<rect x="57" y="99.0111" width="143" height="166" rx="16" transform="rotate(-15 57 99.0111)" fill="white"/>
</clipPath>
</defs>
</svg>
