<svg width="157" height="156" viewBox="0 0 157 156" fill="none" xmlns="http://www.w3.org/2000/svg">
<path d="M20.4444 5.53093C21.3713 42.1687 21.2389 78.8159 19.7032 115.418C19.5594 118.569 21.3798 120.442 24.5574 120.414C52.5318 120.767 80.3424 118.802 107.962 114.691C115.91 113.475 123.714 112.06 131.716 110.501C134.088 109.993 135.789 108.145 135.481 105.629C135.29 103.483 132.98 101.356 130.609 101.864C103.315 107.26 75.487 110.456 47.667 111.362C39.6822 111.691 31.5797 111.648 23.6491 111.633C25.3245 113.307 26.8279 114.954 28.5033 116.628C29.5617 87.5312 30.0769 58.5248 29.732 29.3828C29.6296 21.0811 29.5272 12.7794 29.2528 4.45057C29.2611 2.16012 26.5535 0.323332 24.3809 0.686196C21.6922 0.967757 20.2807 3.21338 20.4444 5.53093Z" fill="#262626"/>
<path d="M91.8519 90.4696C100.136 91.5984 108.112 93.5603 115.953 96.3822C119.801 97.6936 123.595 99.3491 127.19 101.149C129.146 102.163 131.129 103.004 132.885 104.162C133.202 104.388 134.551 104.777 134.642 105.32C134.787 105.52 134.723 104.804 134.497 105.121C133.909 106.615 132.316 107.775 131.239 109.015C129.737 110.718 128.235 112.42 126.733 114.123C123.927 117.383 121.122 120.643 118.317 123.903C112.507 130.568 106.697 137.233 100.715 143.871C97.0589 148.055 103.778 153.521 107.434 149.337C117.552 137.709 127.841 126.109 137.959 114.481C140.312 111.855 143.063 108.939 143.116 105.245C143.196 101.379 140.624 98.6824 137.545 96.9634C131.243 93.3261 124.461 90.4947 117.797 88.0345C109.784 85.1855 101.464 83.1696 93.0078 82.0136C87.7023 81.0015 86.3473 89.6024 91.8519 90.4696Z" fill="#262626"/>
</svg>
