<svg width="213" height="203" viewBox="0 0 213 203" fill="none" xmlns="http://www.w3.org/2000/svg">
<path d="M7.60137 108.504C16.2019 133.747 42.9582 147.927 68.5698 148.411C96.8453 148.984 123.282 134.555 145.602 118.473C160.802 107.513 175.014 95.4405 188.104 82.1766C191.62 78.5943 186.121 73.0659 182.605 76.6482C171.47 87.7815 159.676 98.1729 147.168 107.608C136.201 115.942 124.711 123.611 112.334 129.683C90.1147 140.572 63.8381 145.317 40.8419 134.032C29.3151 128.282 19.3408 118.902 15.2337 106.573C14.5814 104.567 12.623 103.255 10.4811 103.829C8.41759 104.267 6.94905 106.497 7.60137 108.504Z" fill="#262626"/>
<path d="M195.951 110.607C195.13 98.5448 194.523 86.4257 193.915 74.3066C193.812 71.3499 190.689 69.5468 188.076 70.9354C184.451 72.8253 180.438 74.1298 176.332 74.6561C171.662 75.2188 166.784 74.5747 162.171 75.3515C160.05 75.5755 158.832 78.3123 159.427 80.1042C160.001 82.2461 162.194 83.1505 164.179 82.8481C168.928 82.1497 173.943 82.8721 178.691 82.1737C183.44 81.4752 187.823 79.8417 191.955 77.7013C190.054 76.6038 188.018 75.4278 186.116 74.3302C186.724 86.4493 187.467 98.6468 188.152 110.63C188.344 115.629 196.279 115.684 195.951 110.607Z" fill="#262626"/>
</svg>
